<?xml version="1.0" standalone="no"?>
<!DOCTYPE svg PUBLIC "-//W3C//DTD SVG 20010904//EN"
 "http://www.w3.org/TR/2001/REC-SVG-20010904/DTD/svg10.dtd">
<svg version="1.0" xmlns="http://www.w3.org/2000/svg"
 width="648.000000pt" height="648.000000pt" viewBox="0 0 648.000000 648.000000"
 preserveAspectRatio="xMidYMid meet">
<metadata>
Created by potrace 1.14, written by Peter Selinger 2001-2017
</metadata>
<g transform="translate(0.000000,648.000000) scale(0.100000,-0.100000)"
fill="#000000" stroke="none">
<path d="M3207 6287 c-26 -94 -49 -179 -51 -187 -2 -8 -10 -35 -17 -60 -7 -25
-13 -49 -14 -55 -2 -5 -22 -77 -45 -160 -23 -82 -44 -157 -46 -165 -2 -8 -10
-37 -18 -65 -8 -27 -37 -133 -65 -235 -63 -228 -60 -216 -65 -237 -3 -10 -20
-72 -39 -138 -19 -66 -49 -174 -66 -240 -18 -66 -37 -133 -42 -150 -8 -28 -21
-76 -48 -170 -6 -22 -27 -97 -46 -166 -20 -69 -37 -135 -40 -145 -2 -10 -14
-53 -25 -94 -86 -301 -113 -398 -117 -419 -2 -14 -6 -28 -9 -33 -3 -4 -7 -16
-9 -25 -2 -10 -11 -45 -20 -78 -9 -33 -18 -67 -20 -75 -2 -8 -12 -44 -23 -80
l-19 -65 279 -465 c153 -256 284 -476 292 -490 15 -29 276 -463 281 -468 1 -2
3 706 3 1573 l0 1576 -27 12 c-68 31 -103 85 -107 166 -2 47 2 62 27 98 82
118 249 108 315 -19 44 -84 1 -199 -88 -241 -21 -10 -38 -21 -39 -25 -1 -9 -1
-3067 0 -3111 1 -31 11 -18 92 120 51 85 134 225 186 311 51 87 101 171 111
187 9 17 49 83 87 148 39 64 73 124 78 133 4 8 16 29 27 45 11 17 29 47 40 68
12 21 35 62 53 90 18 29 37 61 44 72 134 226 135 227 127 254 -4 14 -8 33 -9
41 -2 8 -13 47 -24 85 -12 39 -23 79 -26 90 -2 11 -14 54 -25 95 -20 72 -35
126 -81 290 -11 41 -28 104 -38 140 -10 36 -64 232 -120 435 -56 204 -111 402
-122 440 -11 39 -22 81 -25 94 -3 14 -7 28 -10 33 -5 8 -9 22 -20 77 -3 14 -7
28 -10 33 -3 4 -7 17 -9 27 -2 11 -13 54 -25 96 -12 42 -23 84 -25 93 -6 25
-63 230 -81 289 -9 29 -17 60 -19 70 -2 10 -4 18 -5 18 -1 0 -3 7 -5 16 -2 14
-23 89 -65 239 -5 19 -21 76 -35 125 -15 50 -28 97 -30 105 -4 19 -52 198 -61
228 -3 12 -9 22 -13 22 -3 0 -28 -78 -54 -173z"/>
<path d="M3195 5226 c-20 -17 -29 -36 -32 -69 -5 -40 -2 -47 27 -76 18 -17 40
-31 49 -32 57 -4 90 12 113 55 21 39 16 73 -14 110 -25 31 -35 36 -72 36 -31
0 -51 -7 -71 -24z"/>
<path d="M1637 4011 c-124 -63 -133 -231 -16 -308 31 -21 53 -27 99 -27 39 -1
65 -7 73 -16 19 -21 317 -518 317 -529 0 -5 4 -11 9 -13 4 -1 11 -13 15 -24 6
-20 4 -21 -36 -14 -24 5 -65 11 -93 14 -27 4 -61 9 -75 11 -14 3 -41 7 -60 9
-19 3 -51 7 -70 10 -19 3 -51 7 -70 10 -73 10 -136 19 -155 22 -11 2 -40 7
-65 10 -25 3 -52 7 -60 9 -8 2 -42 7 -75 11 -33 3 -62 8 -65 9 -3 2 -35 7 -70
10 -36 4 -67 8 -70 10 -3 2 -34 6 -70 10 -36 4 -74 9 -85 11 -11 2 -33 6 -50
8 -100 14 -254 37 -275 41 -14 2 -45 7 -70 9 -25 3 -60 8 -78 10 -85 13 -110
17 -132 21 -13 2 -46 7 -74 10 -28 3 -59 8 -68 11 -10 3 -18 3 -18 -1 0 -5
223 -286 255 -321 5 -6 24 -28 40 -50 40 -51 92 -115 113 -139 10 -11 42 -51
72 -90 30 -38 61 -77 70 -85 8 -8 28 -33 45 -55 16 -22 32 -42 35 -45 3 -3 44
-52 90 -110 46 -58 89 -110 95 -116 5 -7 24 -29 41 -50 180 -226 289 -360 293
-364 4 -3 18 -21 33 -42 l28 -36 -51 -4 c-28 -1 -53 0 -55 4 -3 4 -11 5 -20 1
-19 -7 -134 -10 -134 -3 0 3 -27 3 -60 0 -33 -3 -66 -3 -72 1 -6 4 -19 4 -29
0 -10 -3 -39 -5 -64 -3 -35 3 -45 8 -45 22 0 32 -40 95 -77 120 -120 82 -283
-5 -283 -151 0 -111 99 -192 215 -174 40 5 56 15 97 57 29 30 54 48 63 44 8
-3 17 -1 20 4 3 5 18 5 34 0 15 -4 34 -4 41 0 7 5 23 5 34 2 12 -4 36 -6 54
-4 42 3 70 4 172 2 47 -1 88 -1 93 0 9 2 105 2 115 0 6 -2 41 -1 97 1 6 0 39
0 75 0 36 -1 72 -1 80 -1 8 1 60 1 115 1 55 0 109 0 120 0 29 0 216 0 240 -1
11 0 31 0 45 1 14 1 32 1 40 1 17 -1 205 -1 235 -1 11 0 49 0 85 0 36 -1 74
-1 85 -1 11 0 60 0 109 0 48 -1 90 0 92 3 2 2 -19 14 -46 28 -27 13 -50 27
-50 32 0 4 -4 7 -9 7 -5 0 -98 51 -207 113 -110 63 -219 125 -244 139 -25 14
-119 68 -210 120 -91 52 -172 97 -180 101 -8 4 -28 15 -45 26 -49 30 -245 141
-315 179 -36 19 -72 41 -81 48 -8 8 -18 14 -22 14 -3 0 -32 15 -64 34 -32 18
-79 45 -105 59 l-48 26 -35 -21 c-112 -65 -264 24 -267 155 -2 130 138 222
255 167 56 -27 73 -45 96 -105 14 -37 16 -57 9 -88 -7 -33 -6 -42 9 -52 17
-13 275 -160 353 -201 19 -11 37 -21 40 -24 3 -3 16 -11 30 -18 14 -7 34 -18
45 -25 25 -15 249 -142 313 -178 26 -14 97 -54 157 -89 136 -78 168 -96 225
-128 25 -14 62 -36 82 -49 21 -12 40 -23 43 -23 3 0 35 -18 71 -40 36 -22 67
-40 69 -40 2 0 42 -23 90 -50 48 -27 90 -50 95 -50 4 0 -226 388 -511 863
-286 474 -522 869 -526 877 -4 8 -26 45 -48 82 l-42 68 25 50 c28 58 31 114 6
162 -49 95 -151 128 -247 79z m139 -72 c71 -36 56 -152 -22 -179 -51 -17 -84
-6 -121 43 -22 29 -20 70 7 113 24 39 85 49 136 23z m-957 -2032 c25 -21 39
-68 30 -101 -20 -70 -110 -100 -164 -53 -38 32 -45 101 -15 139 36 46 103 53
149 15z"/>
<path d="M4695 4008 c-46 -16 -103 -82 -113 -131 -10 -47 6 -117 32 -146 15
-17 14 -22 -11 -65 -16 -26 -32 -55 -38 -65 -52 -89 -101 -167 -107 -169 -5
-2 -8 -8 -8 -13 0 -8 -458 -779 -478 -804 -6 -8 -112 -185 -187 -313 -6 -9
-55 -91 -110 -182 -55 -91 -105 -174 -111 -185 -6 -11 -25 -44 -42 -73 -17
-28 -29 -52 -27 -52 6 0 37 17 85 46 35 21 245 140 330 187 40 22 245 139 355
202 22 13 68 38 103 56 34 18 62 36 62 41 0 4 5 8 10 8 6 0 125 65 265 145
140 80 259 145 265 145 5 0 10 5 10 10 0 6 4 10 9 10 7 0 86 43 139 76 1 1 -1
20 -7 43 -5 25 -5 43 0 47 5 3 7 10 3 15 -11 18 36 94 73 118 109 70 261 9
280 -113 3 -17 6 -32 8 -34 1 -2 -4 -24 -11 -50 -17 -55 -77 -116 -125 -126
-43 -8 -94 -8 -103 2 -4 4 -11 7 -14 8 -4 0 -19 6 -33 13 -23 11 -31 9 -75
-16 -27 -16 -56 -32 -64 -36 -8 -4 -37 -21 -65 -37 -27 -17 -63 -37 -80 -46
-16 -8 -39 -21 -50 -27 -11 -7 -67 -39 -125 -72 -58 -33 -113 -64 -122 -70 -9
-5 -29 -17 -45 -26 -62 -34 -333 -189 -417 -237 -49 -29 -90 -52 -91 -52 -1 0
-57 -31 -124 -70 -68 -38 -127 -70 -132 -70 -5 0 -9 -4 -9 -10 0 -5 -4 -10 -9
-10 -9 0 -218 -116 -233 -130 -5 -3 443 -6 994 -5 844 0 1004 -2 1012 -14 73
-95 157 -119 254 -74 74 35 115 159 78 232 -69 132 -242 143 -319 19 -15 -25
-29 -54 -30 -65 -1 -20 -7 -20 -264 -20 -145 1 -263 3 -263 6 0 3 13 20 28 36
15 17 43 50 62 75 19 25 43 54 52 65 23 28 343 422 376 464 53 66 77 96 94
116 9 11 42 52 73 90 31 39 63 79 73 90 9 11 36 45 61 75 24 30 47 57 50 60 3
3 25 30 48 60 23 30 50 64 60 75 10 11 34 40 53 65 19 25 43 54 53 65 10 11
37 45 60 75 23 30 48 59 54 63 28 17 12 29 -29 22 -59 -9 -77 -12 -203 -29
-60 -9 -119 -17 -130 -20 -19 -3 -84 -13 -152 -22 -18 -2 -50 -7 -70 -10 -61
-9 -95 -14 -138 -19 -22 -3 -51 -7 -65 -10 -14 -3 -45 -7 -69 -10 -23 -3 -55
-7 -70 -9 -27 -5 -161 -24 -221 -32 -19 -3 -60 -9 -90 -14 -76 -12 -161 -23
-187 -24 -13 -1 -23 -5 -23 -9 0 -5 -4 -6 -9 -3 -5 3 -33 2 -62 -4 -30 -5 -76
-12 -104 -15 -27 -4 -62 -9 -77 -11 -44 -7 -89 -13 -143 -20 -48 -6 -49 -5
-34 13 9 10 18 23 20 29 5 13 242 407 249 414 3 3 17 26 30 53 14 26 28 47 31
47 4 0 9 9 12 21 5 18 12 20 59 18 130 -6 221 98 194 221 -10 45 -49 96 -87
115 -38 20 -115 26 -154 13z m141 -103 c44 -48 27 -128 -34 -158 -96 -47 -189
77 -120 160 34 41 115 40 154 -2z m930 -1993 c6 -1 23 -14 38 -28 47 -48 30
-130 -32 -160 -64 -30 -144 16 -144 82 0 78 52 118 138 106z"/>
<path d="M1112 2900 c-15 -14 -28 -29 -29 -35 -9 -61 -6 -80 22 -108 49 -48
127 -41 160 15 21 36 23 51 11 88 -24 69 -110 91 -164 40z"/>
<path d="M5265 2904 c-22 -7 -41 -14 -41 -14 -4 0 -17 -37 -24 -67 -22 -90
101 -150 170 -84 55 52 36 138 -36 167 -23 10 -37 9 -69 -2z"/>
<path d="M3145 1596 c-60 -34 -126 -71 -145 -82 -19 -10 -37 -21 -40 -24 -3
-3 -16 -11 -30 -18 -14 -6 -38 -20 -55 -30 -32 -19 -125 -72 -190 -110 -22
-12 -48 -25 -57 -29 -10 -3 -18 -9 -18 -14 0 -5 -4 -9 -9 -9 -5 0 -49 -23 -98
-51 -48 -28 -113 -65 -143 -81 -30 -17 -59 -34 -65 -38 -10 -7 -70 -41 -135
-76 -19 -11 -37 -21 -40 -24 -3 -3 -16 -11 -30 -18 -14 -7 -41 -22 -60 -33
-19 -12 -52 -30 -73 -42 l-37 -21 -30 22 c-38 28 -104 41 -150 29 -138 -35
-183 -215 -78 -309 121 -108 313 -14 303 148 l-2 44 111 62 c61 35 120 68 131
75 11 7 26 15 34 19 7 4 88 50 180 103 92 53 180 103 196 111 17 8 32 18 35
21 3 3 37 23 75 44 109 59 110 60 115 65 3 3 19 12 35 20 17 8 37 19 45 26 14
10 59 36 160 90 19 11 37 21 40 24 3 3 15 11 28 18 12 6 31 17 42 24 10 7 22
9 26 6 5 -5 9 -977 5 -1091 -1 -10 -11 -21 -24 -26 -35 -14 -87 -61 -99 -90
-39 -98 -5 -197 83 -241 72 -37 158 -21 213 40 34 38 42 55 50 110 4 28 -25
112 -45 132 -18 17 -71 55 -84 59 -6 3 -10 200 -11 562 l-2 557 32 -19 c17
-10 49 -29 71 -41 43 -24 220 -125 245 -140 37 -23 270 -156 320 -182 30 -17
60 -34 65 -38 6 -4 42 -24 80 -45 39 -21 77 -44 86 -51 8 -8 19 -14 22 -14 4
0 36 -18 72 -40 36 -22 67 -40 70 -40 5 0 175 -99 192 -112 7 -6 9 -17 4 -31
-11 -29 7 -95 36 -135 41 -55 104 -78 181 -67 55 8 124 74 138 131 27 104 -52
217 -157 227 -40 4 -105 -16 -132 -40 -17 -16 -20 -16 -55 2 -50 27 -256 145
-368 211 -51 30 -94 54 -98 54 -3 0 -30 16 -60 35 -30 19 -57 35 -60 35 -3 0
-29 14 -58 31 -29 18 -71 42 -93 54 -22 13 -154 89 -294 169 -140 80 -261 148
-270 150 -9 3 -65 -23 -126 -58z m-1307 -737 c12 -8 29 -28 37 -45 44 -93 -64
-182 -149 -123 -39 26 -45 40 -41 92 2 42 19 65 58 82 34 14 66 12 95 -6z
m2989 -38 c21 -31 21 -47 -2 -104 -9 -21 -55 -47 -85 -47 -63 0 -115 66 -99
126 24 87 134 103 186 25z m-1480 -519 c11 -18 20 -40 18 -50 -2 -9 -4 -23 -4
-30 -1 -8 -14 -27 -30 -43 -88 -88 -229 41 -148 135 47 55 122 49 164 -12z"/>
</g>
</svg>
