<svg width="50" height="46" viewBox="0 0 50 46" fill="none" xmlns="http://www.w3.org/2000/svg">
<path d="M27.5 33.2222H22.5C21.125 33.2222 20 32.0722 20 30.6667H2.525V40.8889C2.525 43.7 4.775 46 7.525 46H42.5C45.25 46 47.5 43.7 47.5 40.8889V30.6667H30C30 32.0722 28.875 33.2222 27.5 33.2222ZM45 10.2222H35C35 4.57444 30.525 0 25 0C19.475 0 15 4.57444 15 10.2222H5C2.25 10.2222 0 12.5222 0 15.3333V23C0 25.8367 2.225 28.1111 5 28.1111H20V25.5556C20 24.15 21.125 23 22.5 23H27.5C28.875 23 30 24.15 30 25.5556V28.1111H45C47.75 28.1111 50 25.8111 50 23V15.3333C50 12.5222 47.75 10.2222 45 10.2222ZM20 10.2222C20 7.41111 22.25 5.11111 25 5.11111C27.75 5.11111 30 7.41111 30 10.2222H19.975H20Z" fill="url(#paint0_linear_21_3039)"/>
<defs>
<linearGradient id="paint0_linear_21_3039" x1="-3.72529e-07" y1="23" x2="50" y2="23" gradientUnits="userSpaceOnUse">
<stop stop-color="#1786A6"/>
<stop offset="1" stop-color="#373B94"/>
</linearGradient>
</defs>
</svg>
