<svg width="76" height="81" viewBox="0 0 76 81" fill="none" xmlns="http://www.w3.org/2000/svg">
<path d="M38.274 17.9112C38.9879 17.9112 39.5666 17.3358 39.5666 16.6261C39.5666 15.9163 38.9879 15.3409 38.274 15.3409C37.5602 15.3409 36.9814 15.9163 36.9814 16.6261C36.9814 17.3358 37.5602 17.9112 38.274 17.9112Z" fill="url(#paint0_linear_21_5565)"/>
<path d="M49.4004 40.3344L38.7214 58.3292V18.8554C39.769 18.6489 40.5599 17.728 40.5599 16.626C40.5599 15.3733 39.5357 14.355 38.2758 14.355C37.0158 14.355 35.9916 15.3733 35.9916 16.626C35.9916 17.6908 36.7335 18.5863 37.7298 18.8299V58.3269L27.0508 40.4319L38.2734 0L49.4004 40.3344Z" fill="url(#paint1_linear_21_5565)"/>
<path d="M12.2447 46.9528C12.9586 46.9528 13.5373 46.3775 13.5373 45.6677C13.5373 44.9579 12.9586 44.3825 12.2447 44.3825C11.5309 44.3825 10.9521 44.9579 10.9521 45.6677C10.9521 46.3775 11.5309 46.9528 12.2447 46.9528Z" fill="url(#paint2_linear_21_5565)"/>
<path d="M56.7526 69.0791C56.0853 69.0791 55.4834 69.3645 55.0657 69.8191L38.7708 60.4958L38.2738 60.2105L37.7768 60.4958L21.4818 69.8191C21.0642 69.3645 20.4622 69.0791 19.7949 69.0791C18.535 69.0791 17.5107 70.0975 17.5107 71.3502C17.5107 72.6029 18.535 73.6213 19.7949 73.6213C21.0549 73.6213 22.0791 72.6029 22.0791 71.3502C22.0791 71.1159 22.0441 70.8909 21.9765 70.6775L37.7768 61.6326V75.6488C36.7549 75.8762 35.9896 76.7855 35.9896 77.8665C35.9896 79.1192 37.0139 80.1376 38.2738 80.1376C39.5337 80.1376 40.558 79.1192 40.558 77.8665C40.558 76.7832 39.7904 75.8762 38.7708 75.6488V61.6326L54.5711 70.6775C54.5034 70.8886 54.4684 71.1136 54.4684 71.3502C54.4684 72.6029 55.4927 73.6213 56.7526 73.6213C58.0126 73.6213 59.0368 72.6029 59.0368 71.3502C59.0368 70.0975 58.0126 69.0791 56.7526 69.0791ZM19.7949 72.6354C19.0833 72.6354 18.5023 72.0578 18.5023 71.3502C18.5023 70.6427 19.0833 70.065 19.7949 70.065C20.5066 70.065 21.0875 70.6427 21.0875 71.3502C21.0875 72.0578 20.5066 72.6354 19.7949 72.6354ZM39.5664 77.8689C39.5664 78.5764 38.9854 79.154 38.2738 79.154C37.5622 79.154 36.9812 78.5764 36.9812 77.8689C36.9812 77.1613 37.5622 76.5837 38.2738 76.5837C38.9854 76.586 39.5664 77.1613 39.5664 77.8689ZM56.7526 72.6354C56.041 72.6354 55.4601 72.0578 55.4601 71.3502C55.4601 70.6427 56.041 70.065 56.7526 70.065C57.4643 70.065 58.0452 70.6427 58.0452 71.3502C58.0452 72.0578 57.4643 72.6354 56.7526 72.6354Z" fill="url(#paint3_linear_21_5565)"/>
<path d="M32.4689 58.016L13.7497 47.3727C13.3484 47.7253 12.8211 47.9388 12.2448 47.9388C10.9849 47.9388 9.96059 46.9204 9.96059 45.6677C9.96059 44.415 10.9849 43.3966 12.2448 43.3966C13.5047 43.3966 14.529 44.415 14.529 45.6677C14.529 45.9901 14.4613 46.294 14.3376 46.5724L33.1851 57.2852L34.9397 58.2828L20.6209 34.4236C21.0292 34.013 21.2836 33.4493 21.2836 32.8252C21.2836 31.5725 20.2593 30.5541 18.9994 30.5541C17.7394 30.5541 16.7152 31.5725 16.7152 32.8252C16.7152 34.0779 17.7394 35.0963 18.9994 35.0963C19.2747 35.0963 19.5383 35.0453 19.7833 34.9548L24.3657 42.587L0.520508 39.1444L15.8169 58.0114H9.16031C9.10664 56.8051 8.1057 55.8377 6.88078 55.8377C5.62086 55.8377 4.59659 56.8561 4.59659 58.1088C4.59659 59.3615 5.62086 60.3799 6.88078 60.3799C7.82339 60.3799 8.63534 59.8092 8.98298 58.9973H34.2048L32.4689 58.016ZM17.7091 32.8252C17.7091 32.1177 18.2877 31.5401 19.0017 31.5401C19.7157 31.5401 20.2943 32.1154 20.2943 32.8252C20.2943 33.5328 19.7157 34.1104 19.0017 34.1104C18.2877 34.1104 17.7091 33.5351 17.7091 32.8252ZM6.88078 59.3986C6.16916 59.3986 5.58819 58.8233 5.58819 58.1134C5.58819 57.4036 6.16682 56.8282 6.88078 56.8282C7.5924 56.8282 8.17337 57.4036 8.17337 58.1134C8.17337 58.8233 7.5924 59.3986 6.88078 59.3986Z" fill="url(#paint4_linear_21_5565)"/>
<path d="M63.7525 47.1501C64.4664 47.1501 65.0451 46.5747 65.0451 45.8649C65.0451 45.1551 64.4664 44.5797 63.7525 44.5797C63.0387 44.5797 62.46 45.1551 62.46 45.8649C62.46 46.5747 63.0387 47.1501 63.7525 47.1501Z" fill="url(#paint5_linear_21_5565)"/>
<path d="M41.792 59.2014H67.0137C67.3614 60.0134 68.1733 60.584 69.116 60.584C70.3759 60.584 71.4001 59.5656 71.4001 58.3129C71.4001 57.0602 70.3759 56.0419 69.116 56.0419C67.8887 56.0419 66.8878 57.0092 66.8364 58.2155H60.1798L75.4762 39.3485L51.631 42.7911L56.2134 35.159C56.4584 35.2494 56.7221 35.3005 56.9974 35.3005C58.2573 35.3005 59.2816 34.2821 59.2816 33.0294C59.2816 31.7767 58.2573 30.7583 56.9974 30.7583C55.7374 30.7583 54.7132 31.7767 54.7132 33.0294C54.7132 33.6511 54.9675 34.2171 55.3758 34.6277L41.0547 58.4823L42.8092 57.4848L61.6567 46.7719C61.5331 46.4935 61.4654 46.1896 61.4654 45.8672C61.4654 44.6145 62.4897 43.5961 63.7496 43.5961C65.0095 43.5961 66.0338 44.6145 66.0338 45.8672C66.0338 47.1199 65.0095 48.1383 63.7496 48.1383C63.1733 48.1383 62.646 47.9225 62.2447 47.5722L43.5255 58.2155L41.792 59.2014ZM56.9974 34.3076C56.2857 34.3076 55.7048 33.7323 55.7048 33.0224C55.7048 32.3149 56.2834 31.7373 56.9974 31.7373C57.7113 31.7373 58.29 32.3126 58.29 33.0224C58.29 33.7323 57.709 34.3076 56.9974 34.3076ZM67.8257 58.3106C67.8257 57.6031 68.4043 57.0255 69.1183 57.0255C69.8299 57.0255 70.4109 57.6008 70.4109 58.3106C70.4109 59.0182 69.8322 59.5958 69.1183 59.5958C68.4067 59.5958 67.8257 59.0205 67.8257 58.3106Z" fill="url(#paint6_linear_21_5565)"/>
<defs>
<linearGradient id="paint0_linear_21_5565" x1="36.983" y1="16.6265" x2="39.5661" y2="16.6265" gradientUnits="userSpaceOnUse">
<stop stop-color="#373B94"/>
<stop offset="1" stop-color="#0CB2C5"/>
</linearGradient>
<linearGradient id="paint1_linear_21_5565" x1="38.2243" y1="5.96041" x2="38.2243" y2="71.1385" gradientUnits="userSpaceOnUse">
<stop stop-color="#373B94"/>
<stop offset="1" stop-color="#0CB2C5"/>
</linearGradient>
<linearGradient id="paint2_linear_21_5565" x1="12.2448" y1="5.96046" x2="12.2448" y2="71.1384" gradientUnits="userSpaceOnUse">
<stop stop-color="#373B94"/>
<stop offset="1" stop-color="#0CB2C5"/>
</linearGradient>
<linearGradient id="paint3_linear_21_5565" x1="38.2743" y1="5.96037" x2="38.2743" y2="71.1384" gradientUnits="userSpaceOnUse">
<stop stop-color="#373B94"/>
<stop offset="1" stop-color="#0CB2C5"/>
</linearGradient>
<linearGradient id="paint4_linear_21_5565" x1="17.7319" y1="5.9604" x2="17.7319" y2="71.1385" gradientUnits="userSpaceOnUse">
<stop stop-color="#373B94"/>
<stop offset="1" stop-color="#0CB2C5"/>
</linearGradient>
<linearGradient id="paint5_linear_21_5565" x1="63.7537" y1="6.15798" x2="63.7537" y2="71.336" gradientUnits="userSpaceOnUse">
<stop stop-color="#373B94"/>
<stop offset="1" stop-color="#0CB2C5"/>
</linearGradient>
<linearGradient id="paint6_linear_21_5565" x1="58.266" y1="5.96042" x2="58.266" y2="71.1385" gradientUnits="userSpaceOnUse">
<stop stop-color="#373B94"/>
<stop offset="1" stop-color="#0CB2C5"/>
</linearGradient>
</defs>
</svg>
