<svg width="713" height="580" viewBox="0 0 713 580" fill="none" xmlns="http://www.w3.org/2000/svg">
<g clip-path="url(#clip0_21_3493)">
<g style="mix-blend-mode:overlay" opacity="0.21">
<path d="M63.6882 402.177L105.409 426.245C109.344 428.521 113.815 429.712 118.364 429.695C122.926 429.711 127.41 428.521 131.359 426.245L150.55 415.214L229.325 461.465L195.047 481.201C193.238 482.237 191.737 483.734 190.698 485.538C189.659 487.342 189.119 489.389 189.133 491.47C189.122 493.544 189.664 495.584 190.703 497.382C191.742 499.179 193.241 500.669 195.047 501.699L322.866 575.267C328.259 578.375 334.379 580.008 340.608 580C346.838 580.013 352.96 578.38 358.351 575.267L386.795 558.9L387.157 558.218L391.181 556.333L486.129 501.699C487.935 500.669 489.434 499.179 490.474 497.382C491.513 495.584 492.054 493.544 492.043 491.47C492.057 489.389 491.517 487.342 490.478 485.538C489.439 483.734 487.938 482.237 486.129 481.201L463.076 467.923L549.938 418.383C551.503 417.511 552.803 416.235 553.702 414.69C554.601 413.144 555.066 411.385 555.048 409.598C555.073 407.809 554.615 406.047 553.724 404.494C552.832 402.942 551.538 401.657 549.978 400.773L527.931 388.057C526.836 387.456 525.923 386.573 525.287 385.501C524.65 384.429 524.313 383.206 524.31 381.96C524.299 380.719 524.612 379.497 525.219 378.414C525.825 377.331 526.705 376.424 527.77 375.783L569.29 350.672L598.539 367.519C601.749 369.351 605.381 370.318 609.08 370.327C612.778 370.318 616.411 369.351 619.621 367.519L693.327 325.079C694.466 324.428 695.413 323.487 696.07 322.353C696.727 321.219 697.072 319.931 697.068 318.621C697.072 317.311 696.727 316.023 696.07 314.889C695.413 313.755 694.466 312.814 693.327 312.163L622.799 271.568C618.586 269.161 613.815 267.895 608.959 267.895C604.103 267.895 599.332 269.161 595.119 271.568L524.712 312.123C523.572 312.774 522.626 313.715 521.969 314.849C521.311 315.983 520.967 317.271 520.971 318.581C520.967 319.891 521.311 321.178 521.969 322.313C522.626 323.447 523.572 324.388 524.712 325.039L566.192 348.907L525.959 373.175C524.444 374.085 523.193 375.375 522.332 376.916C521.471 378.457 521.029 380.196 521.051 381.96C521.067 383.724 521.547 385.453 522.444 386.973C523.341 388.494 524.622 389.753 526.161 390.625L548.208 403.341C549.313 403.957 550.23 404.861 550.86 405.956C551.491 407.051 551.812 408.296 551.789 409.558C551.796 410.812 551.468 412.045 550.839 413.131C550.209 414.217 549.301 415.116 548.208 415.736L459.697 466.158L363.662 410.882C356.535 406.784 348.453 404.627 340.226 404.627C331.999 404.627 323.917 406.784 316.791 410.882L231.94 459.7L153.286 413.409L223.009 373.296C224.368 372.508 225.496 371.379 226.28 370.02C227.064 368.661 227.476 367.121 227.475 365.554C227.484 363.985 227.076 362.441 226.291 361.081C225.506 359.721 224.374 358.593 223.009 357.812L197.542 343.17L318.239 273.574L328.74 279.631C332.18 281.602 336.078 282.639 340.045 282.639C344.013 282.639 347.911 281.602 351.35 279.631L430.769 233.901C431.996 233.224 433.017 232.229 433.725 231.022C434.433 229.815 434.802 228.44 434.793 227.042C434.777 225.649 434.398 224.284 433.693 223.081C432.987 221.878 431.98 220.879 430.769 220.183L354.891 176.499C350.372 173.916 345.254 172.558 340.045 172.558C334.836 172.558 329.718 173.916 325.199 176.499L249.321 220.183C248.111 220.879 247.103 221.878 246.398 223.081C245.692 224.284 245.313 225.649 245.298 227.042C245.288 228.44 245.657 229.815 246.365 231.022C247.073 232.229 248.094 233.224 249.321 233.901L315.222 271.849L194.524 341.405L135.181 307.269C129.992 304.291 124.11 302.724 118.123 302.724C112.136 302.724 106.253 304.291 101.064 307.269L13.2769 357.812C11.9063 358.586 10.7691 359.713 9.98366 361.075C9.19822 362.436 8.79331 363.983 8.81111 365.554C8.80172 367.123 9.21012 368.666 9.99471 370.026C10.7793 371.386 11.9119 372.515 13.2769 373.296L60.4293 400.412M251.212 231.455C250.46 231.017 249.838 230.39 249.407 229.637C248.976 228.883 248.752 228.03 248.758 227.162C248.759 226.302 248.987 225.457 249.417 224.711C249.848 223.965 250.466 223.344 251.212 222.91L327.09 179.307C331.155 176.981 335.76 175.757 340.447 175.757C345.134 175.757 349.74 176.981 353.805 179.307L429.683 222.991C430.428 223.424 431.047 224.045 431.478 224.791C431.908 225.537 432.136 226.382 432.137 227.243C432.143 228.11 431.919 228.963 431.488 229.717C431.057 230.471 430.434 231.098 429.683 231.535L350.264 277.224C347.278 278.938 343.893 279.84 340.447 279.84C337.002 279.84 333.617 278.938 330.631 277.224L251.212 231.455ZM129.83 423.678C126.346 425.689 122.391 426.748 118.364 426.748C114.338 426.748 110.383 425.689 106.898 423.678L15.0069 370.809C14.1075 370.286 13.3622 369.536 12.8465 368.635C12.3308 367.733 12.063 366.712 12.0699 365.674C12.0588 364.635 12.325 363.612 12.8411 362.71C13.3572 361.808 14.1047 361.059 15.0069 360.539L102.834 309.997C107.568 307.323 112.924 305.94 118.364 305.985C123.818 305.934 129.188 307.318 133.934 309.997L221.721 360.539C222.628 361.057 223.382 361.805 223.905 362.706C224.428 363.608 224.702 364.632 224.699 365.674C224.697 366.715 224.422 367.737 223.899 368.638C223.377 369.54 222.626 370.288 221.721 370.809L129.83 423.678ZM484.48 483.848C485.834 484.618 486.957 485.734 487.735 487.08C488.513 488.427 488.917 489.956 488.905 491.51C488.91 493.057 488.502 494.578 487.725 495.917C486.947 497.256 485.828 498.365 484.48 499.131L356.701 572.699C351.764 575.537 346.166 577.03 340.468 577.03C334.769 577.03 329.171 575.537 324.234 572.699L196.415 499.131C195.067 498.365 193.947 497.256 193.17 495.917C192.392 494.578 191.985 493.057 191.99 491.51C191.978 489.956 192.382 488.427 193.16 487.08C193.938 485.734 195.061 484.618 196.415 483.848L318.521 413.569C325.191 409.744 332.752 407.73 340.447 407.73C348.143 407.73 355.704 409.744 362.374 413.569L484.48 483.848ZM691.717 322.512L618.011 364.952C615.254 366.521 612.134 367.346 608.959 367.346C605.784 367.346 602.664 366.521 599.907 364.952L526.241 322.512C525.532 322.114 524.947 321.53 524.549 320.822C524.152 320.114 523.958 319.311 523.988 318.501C523.958 317.69 524.152 316.887 524.549 316.179C524.947 315.472 525.532 314.887 526.241 314.489L596.648 273.935C600.397 271.799 604.641 270.679 608.959 270.685C613.277 270.679 617.521 271.799 621.27 273.935L691.717 314.489C692.422 314.889 693.002 315.475 693.392 316.183C693.783 316.891 693.969 317.693 693.93 318.501C693.953 319.3 693.759 320.09 693.37 320.789C692.98 321.488 692.41 322.069 691.717 322.472V322.512Z" fill="black"/>
<path d="M118.364 415.013C117.188 415.012 116.034 414.693 115.025 414.091L50.2908 376.825C49.4878 376.37 48.82 375.711 48.3555 374.915C47.8911 374.118 47.6465 373.214 47.6465 372.293C47.6465 371.372 47.8911 370.467 48.3555 369.671C48.82 368.875 49.4878 368.215 50.2908 367.76L111.163 332.741C113.347 331.467 115.834 330.802 118.364 330.815C120.907 330.807 123.406 331.471 125.606 332.741L186.478 367.76C187.281 368.215 187.948 368.875 188.413 369.671C188.877 370.467 189.122 371.372 189.122 372.293C189.122 373.214 188.877 374.118 188.413 374.915C187.948 375.711 187.281 376.37 186.478 376.825L121.744 414.091C120.72 414.693 119.553 415.011 118.364 415.013Z" fill="black"/>
<path d="M340.447 269.763C339.271 269.761 338.117 269.442 337.108 268.84L272.374 231.454C271.571 230.999 270.903 230.34 270.439 229.543C269.974 228.747 269.729 227.843 269.729 226.922C269.729 226 269.974 225.096 270.439 224.3C270.903 223.503 271.571 222.844 272.374 222.389L333.246 187.37C335.43 186.096 337.917 185.431 340.447 185.444C342.977 185.431 345.465 186.096 347.649 187.37L408.521 222.389C409.324 222.844 409.991 223.503 410.456 224.3C410.92 225.096 411.165 226 411.165 226.922C411.165 227.843 410.92 228.747 410.456 229.543C409.991 230.34 409.324 230.999 408.521 231.454L343.827 268.72C342.812 269.359 341.646 269.718 340.447 269.763Z" fill="black"/>
<path d="M608.959 357.531C608.024 357.535 607.106 357.285 606.303 356.809L555.208 327.325C554.528 326.997 553.954 326.484 553.553 325.846C553.151 325.207 552.938 324.469 552.938 323.715C552.938 322.962 553.151 322.223 553.553 321.585C553.954 320.946 554.528 320.434 555.208 320.105L603.487 292.387C605.22 291.372 607.191 290.832 609.2 290.822C611.209 290.832 613.181 291.372 614.913 292.387L663.192 320.105C663.872 320.434 664.446 320.946 664.847 321.585C665.249 322.223 665.462 322.962 665.462 323.715C665.462 324.469 665.249 325.207 664.847 325.846C664.446 326.484 663.872 326.997 663.192 327.325L611.534 356.809C610.754 357.271 609.866 357.52 608.959 357.531Z" fill="black"/>
<path d="M340.448 554.528C338.709 554.537 337 554.08 335.499 553.204L239.866 498.169C238.679 497.491 237.693 496.513 237.007 495.333C236.32 494.153 235.959 492.813 235.959 491.45C235.959 490.086 236.32 488.746 237.007 487.566C237.693 486.386 238.679 485.408 239.866 484.731L329.786 432.984C333.031 431.125 336.706 430.144 340.448 430.136C344.19 430.144 347.865 431.125 351.109 432.984L441.029 484.731C442.216 485.408 443.203 486.386 443.889 487.566C444.575 488.746 444.936 490.086 444.936 491.45C444.936 492.813 444.575 494.153 443.889 495.333C443.203 496.513 442.216 497.491 441.029 498.169L345.396 553.204C343.896 554.08 342.186 554.537 340.448 554.528Z" fill="black"/>
</g>
<path d="M54.6356 355.405L96.3568 379.473C100.291 381.749 104.763 382.94 109.312 382.923C113.861 382.944 118.333 381.753 122.266 379.473L141.457 368.442L220.112 414.733L185.834 434.469C184.025 435.505 182.524 437.002 181.485 438.806C180.446 440.61 179.906 442.657 179.92 444.738C179.909 446.812 180.45 448.852 181.489 450.649C182.529 452.447 184.028 453.937 185.834 454.967L313.813 528.495C319.206 531.603 325.327 533.236 331.556 533.228C337.785 533.236 343.905 531.603 349.298 528.495L378.668 511.607L382.048 510.042H381.685L477.117 455.127C478.923 454.097 480.422 452.607 481.461 450.81C482.5 449.013 483.042 446.973 483.031 444.898C483.045 442.818 482.505 440.771 481.466 438.967C480.427 437.163 478.926 435.666 477.117 434.629L454.064 421.352L540.926 371.812C542.49 370.94 543.79 369.664 544.689 368.118C545.588 366.572 546.053 364.814 546.035 363.027C546.06 361.238 545.603 359.475 544.711 357.923C543.82 356.37 542.526 355.085 540.966 354.202L518.919 341.486C517.824 340.884 516.911 340.002 516.274 338.929C515.637 337.857 515.3 336.635 515.297 335.389C515.286 334.148 515.599 332.926 516.206 331.842C516.813 330.759 517.692 329.852 518.758 329.211L560.277 304.1L589.526 320.948C592.736 322.779 596.369 323.747 600.067 323.756C603.766 323.747 607.398 322.779 610.608 320.948L684.314 278.508C685.454 277.856 686.401 276.916 687.058 275.781C687.715 274.647 688.059 273.359 688.056 272.049C688.059 270.739 687.715 269.452 687.058 268.318C686.401 267.183 685.454 266.243 684.314 265.591L613.907 225.036C609.694 222.63 604.923 221.364 600.067 221.364C595.212 221.364 590.441 222.63 586.227 225.036L515.821 265.591C514.681 266.243 513.734 267.183 513.077 268.318C512.42 269.452 512.075 270.739 512.079 272.049C512.075 273.359 512.42 274.647 513.077 275.781C513.734 276.916 514.681 277.856 515.821 278.508L557.3 302.375L517.068 326.644C515.546 327.548 514.291 328.836 513.429 330.378C512.568 331.921 512.129 333.663 512.159 335.429C512.175 337.193 512.655 338.921 513.552 340.442C514.449 341.963 515.731 343.222 517.269 344.093L539.316 356.809C540.421 357.426 541.338 358.33 541.969 359.424C542.599 360.519 542.92 361.764 542.897 363.027C542.904 364.281 542.576 365.514 541.947 366.6C541.318 367.685 540.41 368.584 539.316 369.204L450.805 419.627L354.77 364.35C347.637 360.249 339.548 358.09 331.314 358.09C323.081 358.09 314.992 360.249 307.859 364.35L223.049 413.168L144.394 366.878L214.117 326.764C215.477 325.977 216.605 324.847 217.388 323.489C218.172 322.13 218.584 320.59 218.583 319.022C218.592 317.453 218.184 315.91 217.399 314.55C216.615 313.189 215.482 312.061 214.117 311.28L188.65 296.639L309.348 227.042L319.848 233.099C323.288 235.07 327.186 236.108 331.153 236.108C335.121 236.108 339.019 235.07 342.459 233.099L421.878 187.37C423.105 186.692 424.126 185.698 424.834 184.491C425.542 183.284 425.91 181.909 425.901 180.511C425.907 179.118 425.537 177.75 424.829 176.55C424.121 175.35 423.101 174.362 421.878 173.691L345.999 130.008C341.487 127.406 336.366 126.035 331.153 126.035C325.941 126.035 320.82 127.406 316.308 130.008L240.429 173.691C239.206 174.362 238.186 175.35 237.478 176.55C236.77 177.75 236.4 179.118 236.406 180.511C236.397 181.909 236.765 183.284 237.473 184.491C238.181 185.698 239.202 186.692 240.429 187.37L306.33 225.317L185.633 294.874L126.29 260.737C121.101 257.76 115.218 256.192 109.231 256.192C103.244 256.192 97.3617 257.76 92.1726 260.737L4.38525 311.28C3.01467 312.055 1.87749 313.182 1.09205 314.543C0.306618 315.905 -0.098292 317.452 -0.0804921 319.022C-0.098292 320.593 0.306618 322.14 1.09205 323.501C1.87749 324.863 3.01467 325.99 4.38525 326.764L51.5377 353.881M242.079 184.803C241.327 184.365 240.705 183.739 240.274 182.985C239.843 182.231 239.619 181.378 239.625 180.511C239.626 179.65 239.854 178.805 240.284 178.059C240.715 177.313 241.333 176.692 242.079 176.259L317.957 132.575C322.022 130.249 326.628 129.025 331.314 129.025C336.001 129.025 340.607 130.249 344.672 132.575L420.55 176.259C421.296 176.692 421.914 177.313 422.345 178.059C422.775 178.805 423.003 179.65 423.004 180.511C423.01 181.378 422.786 182.231 422.355 182.985C421.924 183.739 421.301 184.365 420.55 184.803L341.131 230.492C338.145 232.206 334.76 233.108 331.314 233.108C327.869 233.108 324.484 232.206 321.498 230.492L242.079 184.803ZM120.697 376.826C117.213 378.836 113.257 379.895 109.231 379.895C105.205 379.895 101.25 378.836 97.7648 376.826L5.87384 323.956C4.96877 323.44 4.219 322.692 3.70248 321.789C3.18595 320.886 2.92163 319.861 2.93694 318.822C2.92584 317.783 3.1919 316.76 3.708 315.858C4.2241 314.956 4.9716 314.206 5.87384 313.687L93.7014 263.144C98.4349 260.471 103.791 259.087 109.231 259.133C114.685 259.082 120.055 260.466 124.801 263.144L212.588 313.687C213.495 314.204 214.249 314.952 214.771 315.854C215.294 316.756 215.568 317.78 215.566 318.822C215.564 319.863 215.289 320.885 214.766 321.786C214.244 322.687 213.493 323.436 212.588 323.956L120.697 376.826ZM475.347 436.996C476.701 437.766 477.824 438.881 478.602 440.228C479.38 441.575 479.784 443.103 479.772 444.657C479.777 446.205 479.369 447.725 478.592 449.064C477.814 450.403 476.695 451.513 475.347 452.279L347.609 525.887C342.679 528.725 337.087 530.219 331.395 530.219C325.703 530.219 320.111 528.725 315.181 525.887L187.363 452.319C186.015 451.553 184.895 450.443 184.117 449.104C183.34 447.765 182.933 446.245 182.937 444.698C182.925 443.144 183.329 441.615 184.107 440.268C184.885 438.921 186.009 437.806 187.363 437.036L309.468 366.757C316.139 362.931 323.699 360.918 331.395 360.918C339.09 360.918 346.651 362.931 353.322 366.757L475.347 436.996ZM682.665 275.579L608.959 318.019C606.204 319.596 603.083 320.425 599.906 320.425C596.73 320.425 593.609 319.596 590.854 318.019L517.188 275.579C516.479 275.182 515.894 274.597 515.497 273.889C515.099 273.182 514.905 272.379 514.935 271.568C514.905 270.758 515.099 269.954 515.497 269.247C515.894 268.539 516.479 267.954 517.188 267.557L587.595 227.002C591.344 224.867 595.589 223.746 599.906 223.753C604.224 223.746 608.469 224.867 612.218 227.002L682.665 267.557C683.363 267.963 683.938 268.551 684.328 269.257C684.717 269.964 684.907 270.762 684.877 271.568C684.907 272.374 684.717 273.172 684.328 273.879C683.938 274.585 683.363 275.173 682.665 275.579Z" fill="url(#paint0_linear_21_3493)"/>
<path d="M400.152 123.549C399.978 123.32 399.759 123.129 399.508 122.988L338.636 87.9286C336.429 86.6765 333.934 86.0133 331.395 86.0032V222.389C332.571 222.387 333.725 222.069 334.734 221.466L399.468 184.201C400.293 183.742 400.973 183.064 401.435 182.243C401.897 181.421 402.121 180.488 402.083 179.548V127.4C402.089 126.652 401.918 125.913 401.582 125.243C401.246 124.574 400.756 123.993 400.152 123.549Z" fill="url(#paint1_linear_21_3493)"/>
<path d="M331.395 86.0032C328.855 86.0133 326.361 86.6765 324.153 87.9286L265.534 121.784L263.482 122.988C262.687 123.446 262.028 124.107 261.575 124.904C261.123 125.701 260.892 126.605 260.907 127.521V179.668C260.869 180.609 261.094 181.542 261.555 182.363C262.017 183.185 262.698 183.862 263.523 184.321L328.257 221.587C329.266 222.189 330.42 222.508 331.596 222.509V86.1235L331.395 86.0032Z" fill="url(#paint2_linear_21_3493)"/>
<path d="M331.394 170.201C330.222 170.214 329.068 169.909 328.055 169.319L263.321 132.053C262.518 131.598 261.85 130.939 261.386 130.142C260.921 129.346 260.677 128.442 260.677 127.521C260.677 126.599 260.921 125.695 261.386 124.899C261.85 124.102 262.518 123.443 263.321 122.988L324.193 87.9286C326.384 86.6729 328.867 86.0092 331.394 86.0032C333.922 86.0092 336.405 86.6729 338.596 87.9286L399.468 122.988C400.271 123.443 400.939 124.102 401.403 124.899C401.868 125.695 402.112 126.599 402.112 127.521C402.112 128.442 401.868 129.346 401.403 130.142C400.939 130.939 400.271 131.598 399.468 132.053L334.734 169.319C333.721 169.909 332.567 170.214 331.394 170.201Z" fill="url(#paint3_linear_21_3493)"/>
<path d="M178.069 300.129C177.895 299.911 177.675 299.733 177.425 299.607L116.674 264.548C114.47 263.288 111.974 262.624 109.433 262.623V368.241C110.621 368.234 111.786 367.915 112.812 367.319L177.506 330.053C178.331 329.595 179.011 328.917 179.473 328.095C179.935 327.274 180.159 326.341 180.121 325.4V304.1C180.123 303.323 179.938 302.556 179.581 301.865C179.223 301.174 178.705 300.579 178.069 300.129Z" fill="url(#paint4_linear_21_3493)"/>
<path d="M109.312 262.623C106.772 262.633 104.278 263.296 102.07 264.548L43.25 298.404L41.2384 299.607C40.4326 300.047 39.7629 300.698 39.3019 301.49C38.8409 302.282 38.6062 303.185 38.6233 304.1V325.4C38.5853 326.341 38.8095 327.274 39.2712 328.095C39.7328 328.917 40.4138 329.595 41.2384 330.053L105.972 367.319C106.982 367.921 108.136 368.24 109.312 368.241V262.623Z" fill="url(#paint5_linear_21_3493)"/>
<path d="M109.312 346.821C108.136 346.819 106.982 346.501 105.972 345.898L41.2384 308.673C40.4362 308.212 39.7699 307.548 39.3067 306.749C38.8435 305.95 38.5996 305.043 38.5996 304.12C38.5996 303.197 38.8435 302.29 39.3067 301.491C39.7699 300.692 40.4362 300.028 41.2384 299.567L102.11 264.548C104.294 263.275 106.782 262.61 109.312 262.623C111.854 262.614 114.353 263.279 116.554 264.548L177.385 299.567C178.187 300.028 178.854 300.692 179.317 301.491C179.78 302.29 180.024 303.197 180.024 304.12C180.024 305.043 179.78 305.95 179.317 306.749C178.854 307.548 178.187 308.212 177.385 308.673L112.651 345.938C111.627 346.5 110.48 346.803 109.312 346.821Z" fill="url(#paint6_linear_21_3493)"/>
<path d="M654.381 256.846C654.237 256.668 654.059 256.518 653.858 256.405L605.579 228.647C603.83 227.637 601.847 227.098 599.826 227.082V310.759C600.755 310.757 601.668 310.522 602.482 310.077L653.778 280.553C654.43 280.189 654.967 279.651 655.33 278.999C655.692 278.347 655.865 277.608 655.83 276.863V259.975C655.855 259.377 655.737 258.78 655.485 258.236C655.233 257.692 654.855 257.216 654.381 256.846Z" fill="url(#paint7_linear_21_3493)"/>
<path d="M599.907 227.082C597.897 227.092 595.926 227.632 594.194 228.647L547.604 255.523L545.955 256.485C545.321 256.84 544.796 257.36 544.435 257.988C544.074 258.617 543.89 259.331 543.903 260.056V276.943C543.871 277.692 544.05 278.434 544.42 279.087C544.79 279.739 545.336 280.275 545.995 280.634L597.251 310.117C598.054 310.593 598.972 310.843 599.907 310.839V227.082Z" fill="url(#paint8_linear_21_3493)"/>
<path d="M599.907 293.791C598.978 293.788 598.065 293.554 597.251 293.109L545.995 263.545C545.326 263.213 544.763 262.7 544.369 262.066C543.975 261.432 543.767 260.701 543.767 259.955C543.767 259.209 543.975 258.478 544.369 257.844C544.763 257.21 545.326 256.698 545.995 256.365L594.274 228.607C596.01 227.604 597.981 227.078 599.987 227.082C601.993 227.078 603.965 227.604 605.7 228.607L653.979 256.365C654.649 256.698 655.212 257.21 655.606 257.844C655.999 258.478 656.208 259.209 656.208 259.955C656.208 260.701 655.999 261.432 655.606 262.066C655.212 262.7 654.649 263.213 653.979 263.545L602.683 293.069C601.837 293.548 600.88 293.797 599.907 293.791Z" fill="url(#paint9_linear_21_3493)"/>
<path d="M432.982 295.636C432.711 295.313 432.384 295.042 432.017 294.834L341.976 243.047C338.717 241.189 335.029 240.207 331.274 240.199V507.756C333.013 507.765 334.722 507.308 336.223 506.432L431.856 451.396C433.097 450.726 434.13 449.727 434.839 448.51C435.549 447.293 435.909 445.904 435.879 444.497V301.533C435.904 300.39 435.655 299.259 435.151 298.233C434.647 297.207 433.903 296.316 432.982 295.636Z" fill="url(#paint10_linear_21_3493)"/>
<path d="M331.394 240.199C327.64 240.211 323.953 241.192 320.693 243.047L233.79 293.069L230.773 294.834C229.593 295.508 228.617 296.485 227.944 297.663C227.272 298.841 226.929 300.177 226.951 301.533V444.497C226.921 445.904 227.281 447.293 227.99 448.51C228.7 449.727 229.733 450.726 230.974 451.396L326.607 506.432C328.107 507.308 329.817 507.765 331.555 507.756V240.199H331.394Z" fill="url(#paint11_linear_21_3493)"/>
<path d="M331.395 364.591C329.656 364.6 327.947 364.143 326.447 363.267L230.814 308.232C229.636 307.551 228.658 306.574 227.979 305.399C227.299 304.223 226.941 302.89 226.941 301.533C226.941 300.176 227.299 298.842 227.979 297.667C228.658 296.491 229.636 295.514 230.814 294.834L320.733 243.047C323.978 241.188 327.653 240.207 331.395 240.199C335.137 240.207 338.812 241.188 342.057 243.047L431.976 294.834C433.154 295.514 434.132 296.491 434.811 297.667C435.491 298.842 435.849 300.176 435.849 301.533C435.849 302.89 435.491 304.223 434.811 305.399C434.132 306.574 433.154 307.551 431.976 308.232L336.344 363.267C334.843 364.143 333.134 364.6 331.395 364.591Z" fill="url(#paint12_linear_21_3493)"/>
<path d="M299.973 391.106V416.698L260.062 393.794V368.161L263.442 370.127L299.973 391.106Z" fill="#253E53"/>
<path d="M299.973 391.106V412.206L263.442 391.146V370.127L299.973 391.106Z" fill="#00C6FF"/>
<path d="M368.852 391.106V416.698L408.762 393.794V368.161L405.383 370.127L368.852 391.106Z" fill="#253E53"/>
<path d="M368.852 391.106V412.206L405.383 391.146V370.127L368.852 391.106Z" fill="#00C6FF"/>
<path d="M381.686 301.613L379.915 302.656L333.849 329.131C333.108 329.575 332.26 329.811 331.395 329.813C330.518 329.81 329.657 329.575 328.901 329.131L282.875 302.656L281.104 301.613C280.548 301.248 280.092 300.75 279.776 300.166C279.46 299.581 279.295 298.928 279.295 298.264C279.295 297.6 279.46 296.946 279.776 296.361C280.092 295.777 280.548 295.279 281.104 294.914L326.044 269.041C327.676 268.12 329.52 267.637 331.395 267.637C333.258 267.636 335.088 268.12 336.706 269.041L381.686 294.914C382.242 295.279 382.698 295.777 383.014 296.361C383.33 296.946 383.495 297.6 383.495 298.264C383.495 298.928 383.33 299.581 383.014 300.166C382.698 300.75 382.242 301.248 381.686 301.613Z" fill="#253E53"/>
<path d="M379.916 302.656L333.85 329.131C333.108 329.575 332.26 329.811 331.395 329.813C330.518 329.81 329.657 329.575 328.901 329.131L282.875 302.656L326.044 277.786C327.674 276.853 329.517 276.355 331.395 276.342C333.261 276.355 335.092 276.853 336.706 277.786L379.916 302.656Z" fill="white"/>
<path d="M379.916 302.656L333.85 329.131C333.108 329.575 332.26 329.811 331.395 329.813C330.518 329.81 329.657 329.575 328.901 329.131L282.875 302.656L326.044 277.786C327.674 276.853 329.517 276.355 331.395 276.342C333.261 276.355 335.092 276.853 336.706 277.786L379.916 302.656Z" fill="#00C6FF"/>
<path style="mix-blend-mode:screen" opacity="0.45" d="M405.383 137.629L339.482 99.7221C337.036 98.3062 334.264 97.5461 331.436 97.5159C328.61 97.5655 325.843 98.3243 323.389 99.7221L257.488 137.629L282.955 302.656L328.981 329.131C329.737 329.575 330.598 329.81 331.476 329.813C332.353 329.81 333.214 329.575 333.97 329.131L379.996 302.656L405.463 137.629H405.383Z" fill="url(#paint13_linear_21_3493)"/>
<path style="mix-blend-mode:screen" opacity="0.45" d="M399.227 152.832L338.879 118.054C336.612 116.757 334.048 116.067 331.436 116.048C328.81 116.067 326.233 116.757 323.952 118.054L263.604 152.832L286.938 304.14L329.142 328.208C329.842 328.602 330.632 328.81 331.436 328.81C332.239 328.81 333.029 328.602 333.729 328.208L375.933 304.14L399.267 152.832H399.227Z" fill="url(#paint14_linear_21_3493)"/>
<path d="M620.465 264.508L619.741 264.949L600.429 276.061C600.121 276.233 599.777 276.329 599.424 276.341C599.057 276.334 598.698 276.238 598.378 276.061L579.106 264.949L578.342 264.508C578.1 264.366 577.899 264.164 577.76 263.921C577.62 263.679 577.547 263.404 577.547 263.124C577.547 262.844 577.62 262.569 577.76 262.327C577.899 262.084 578.1 261.882 578.342 261.74L597.171 250.869C597.864 250.501 598.638 250.308 599.424 250.308C600.196 250.313 600.956 250.506 601.636 250.869L620.465 261.74C620.707 261.882 620.908 262.084 621.047 262.327C621.187 262.569 621.26 262.844 621.26 263.124C621.26 263.404 621.187 263.679 621.047 263.921C620.908 264.164 620.707 264.366 620.465 264.508Z" fill="#253E53"/>
<path d="M619.58 264.949L600.269 276.061C599.961 276.233 599.616 276.329 599.263 276.341C598.896 276.334 598.537 276.238 598.217 276.061L578.945 264.949L597.01 254.56C597.692 254.16 598.471 253.952 599.263 253.958C600.041 253.957 600.805 254.165 601.476 254.56L619.58 264.949Z" fill="white"/>
<path d="M619.58 264.949L600.269 276.061C599.961 276.233 599.616 276.329 599.263 276.341C598.896 276.334 598.537 276.238 598.217 276.061L578.945 264.949L597.01 254.56C597.692 254.16 598.471 253.952 599.263 253.958C600.041 253.957 600.805 254.165 601.476 254.56L619.58 264.949Z" fill="#00C6FF"/>
<path style="mix-blend-mode:screen" opacity="0.45" d="M630.362 195.874L602.803 179.829C601.777 179.232 600.611 178.914 599.423 178.906C598.222 178.907 597.042 179.225 596.004 179.829L568.444 195.874L579.106 264.949L598.377 276.061C598.698 276.238 599.057 276.334 599.423 276.342C599.789 276.33 600.147 276.233 600.469 276.061L619.741 264.949L630.402 195.874H630.362Z" fill="url(#paint15_linear_21_3493)"/>
<path style="mix-blend-mode:screen" opacity="0.45" d="M627.828 202.212L602.522 187.691C601.588 187.122 600.517 186.817 599.424 186.808C598.317 186.816 597.233 187.121 596.286 187.691L571.02 202.212L580.796 265.591L598.458 275.74C598.749 275.917 599.083 276.014 599.424 276.021C599.751 276.007 600.069 275.91 600.349 275.74L618.051 265.591L627.828 202.212Z" fill="url(#paint16_linear_21_3493)"/>
<path d="M133.934 305.624L133.049 306.146L110.519 319.102C110.151 319.311 109.735 319.422 109.312 319.423C108.889 319.417 108.475 319.307 108.105 319.102L85.5746 306.146L84.7297 305.624C84.4467 305.452 84.2127 305.211 84.0504 304.923C83.888 304.635 83.8027 304.31 83.8027 303.98C83.8027 303.649 83.888 303.324 84.0504 303.036C84.2127 302.748 84.4467 302.507 84.7297 302.335L106.697 289.699C107.496 289.254 108.396 289.02 109.312 289.017C110.227 289.02 111.127 289.254 111.927 289.699L133.934 302.335C134.217 302.507 134.451 302.748 134.613 303.036C134.776 303.324 134.861 303.649 134.861 303.98C134.861 304.31 134.776 304.635 134.613 304.923C134.451 305.211 134.217 305.452 133.934 305.624Z" fill="#253E53"/>
<path d="M133.049 306.146L110.518 319.102C110.151 319.311 109.735 319.422 109.311 319.423C108.889 319.417 108.474 319.307 108.104 319.102L85.5742 306.146L106.696 294.112C107.485 293.637 108.39 293.387 109.311 293.39C110.233 293.387 111.138 293.637 111.927 294.112L133.049 306.146Z" fill="white"/>
<path d="M133.049 306.146L110.518 319.102C110.151 319.311 109.735 319.422 109.311 319.423C108.889 319.417 108.474 319.307 108.104 319.102L85.5742 306.146L106.696 294.112C107.485 293.637 108.39 293.387 109.311 293.39C110.233 293.387 111.138 293.637 111.927 294.112L133.049 306.146Z" fill="#00C6FF"/>
<path style="mix-blend-mode:screen" opacity="0.45" d="M145.481 225.437L113.295 206.905C112.073 206.198 110.685 205.825 109.272 205.822C107.859 205.825 106.471 206.198 105.248 206.905L73.0625 225.437L85.4943 306.146L108.025 319.102C108.392 319.311 108.808 319.422 109.231 319.423C109.655 319.422 110.071 319.311 110.439 319.102L132.969 306.146L145.441 225.437H145.481Z" fill="url(#paint17_linear_21_3493)"/>
<path style="mix-blend-mode:screen" opacity="0.45" d="M142.504 232.859L112.973 215.85C111.851 215.233 110.593 214.902 109.312 214.888C108.03 214.902 106.773 215.233 105.651 215.85L76.1602 232.859L87.546 306.868L108.185 318.902C108.529 319.094 108.918 319.191 109.312 319.183C109.706 319.191 110.095 319.094 110.438 318.902L131.077 306.868L142.504 232.859Z" fill="url(#paint18_linear_21_3493)"/>
<path d="M363.018 129.928L361.891 130.609L332.562 147.457C332.09 147.747 331.547 147.9 330.993 147.898C330.439 147.894 329.898 147.741 329.424 147.457L300.134 130.609L299.008 129.928C298.631 129.714 298.318 129.404 298.101 129.031C297.883 128.658 297.769 128.233 297.769 127.802C297.769 127.37 297.883 126.945 298.101 126.572C298.318 126.199 298.631 125.889 299.008 125.675L327.613 109.189C328.647 108.616 329.81 108.313 330.993 108.306C332.176 108.308 333.34 108.611 334.372 109.189L363.018 125.675C363.394 125.889 363.707 126.199 363.925 126.572C364.142 126.945 364.257 127.37 364.257 127.802C364.257 128.233 364.142 128.658 363.925 129.031C363.707 129.404 363.394 129.714 363.018 129.928Z" fill="#253E53"/>
<path d="M362.092 130.609L332.762 147.457C332.291 147.747 331.747 147.9 331.193 147.898C330.64 147.893 330.098 147.741 329.624 147.457L300.335 130.609L327.814 114.564C328.838 113.962 330.005 113.644 331.193 113.641C332.383 113.638 333.551 113.957 334.573 114.564L362.092 130.609Z" fill="white"/>
<path d="M362.092 130.609L332.762 147.457C332.291 147.747 331.747 147.9 331.193 147.898C330.64 147.893 330.098 147.741 329.624 147.457L300.335 130.609L327.814 114.564C328.838 113.962 330.005 113.644 331.193 113.641C332.383 113.638 333.551 113.957 334.573 114.564L362.092 130.609Z" fill="#00C6FF"/>
<path style="mix-blend-mode:screen" opacity="0.45" d="M378.185 25.5523L336.223 1.48429C334.658 0.578351 332.883 0.0944859 331.073 0.0803223C329.252 0.10376 327.466 0.586766 325.883 1.48429L284.001 25.5523L300.094 130.609L329.383 147.457C329.857 147.741 330.399 147.894 330.952 147.898C331.518 147.895 332.073 147.743 332.562 147.457L361.851 130.609L377.944 25.5523H378.185Z" fill="url(#paint19_linear_21_3493)"/>
<path style="mix-blend-mode:screen" opacity="0.45" d="M374.162 35.2197L335.74 13.0771C334.291 12.2577 332.658 11.8162 330.993 11.7935C329.326 11.8109 327.692 12.2528 326.245 13.0771L287.823 35.2197L302.669 131.492L329.544 146.936C329.977 147.208 330.481 147.347 330.993 147.337C331.504 147.347 332.008 147.208 332.441 146.936L359.316 131.492L374.202 35.2197H374.162Z" fill="url(#paint20_linear_21_3493)"/>
<path style="mix-blend-mode:screen" opacity="0.57" d="M417.578 510.289C418.058 493.149 401.216 478.774 379.96 478.182C358.704 477.59 341.083 491.005 340.603 508.145C340.123 525.286 356.965 539.661 378.221 540.253C399.477 540.845 417.098 527.43 417.578 510.289Z" fill="url(#paint21_radial_21_3493)"/>
<path style="mix-blend-mode:screen" opacity="0.57" d="M493.973 423.07C493.491 440.239 475.869 453.677 454.626 453.075C433.383 452.473 416.566 438.113 417.009 420.984C417.451 403.856 435.113 390.418 456.356 391.019C477.599 391.621 494.456 405.942 493.973 423.07Z" fill="url(#paint22_radial_21_3493)"/>
<path style="mix-blend-mode:screen" opacity="0.57" d="M553.935 388.11C553.452 405.239 535.87 418.677 514.587 418.075C493.304 417.473 476.527 403.113 477.01 385.984C477.493 368.856 495.075 355.418 516.358 356.019C537.641 356.621 554.417 370.942 553.935 388.11Z" fill="url(#paint23_radial_21_3493)"/>
<path style="mix-blend-mode:screen" opacity="0.57" d="M400.354 223.432C399.871 240.6 382.289 253.998 361.006 253.437C339.723 252.875 322.946 238.434 323.429 221.346C323.912 204.258 341.493 190.78 362.776 191.341C384.059 191.903 400.836 206.464 400.354 223.432Z" fill="url(#paint24_radial_21_3493)"/>
<path style="mix-blend-mode:screen" opacity="0.57" d="M295.91 195.112C295.428 212.24 277.806 225.678 256.563 225.077C235.32 224.475 218.463 210.114 218.946 192.986C219.428 175.857 237.05 162.419 258.293 163.021C279.536 163.623 296.353 177.943 295.91 195.112Z" fill="url(#paint25_radial_21_3493)"/>
<path style="mix-blend-mode:screen" opacity="0.57" d="M279.978 486.656C279.495 503.825 261.873 517.223 240.63 516.621C219.387 516.019 202.57 501.659 203.053 484.53C203.536 467.402 221.117 453.924 242.36 454.525C263.603 455.127 280.46 469.488 279.978 486.656Z" fill="url(#paint26_radial_21_3493)"/>
<path style="mix-blend-mode:screen" opacity="0.57" d="M456.88 176.66C456.397 193.828 438.776 207.226 417.533 206.665C396.29 206.103 379.433 191.662 379.915 174.574C380.398 157.485 398.02 144.007 419.263 144.569C440.506 145.131 457.363 159.531 456.88 176.66Z" fill="url(#paint27_radial_21_3493)"/>
<path style="mix-blend-mode:screen" opacity="0.57" d="M713.975 263.15C713.492 280.319 695.87 293.717 674.628 293.115C653.385 292.513 636.527 278.153 637.01 261.024C637.493 243.896 655.115 230.418 676.357 231.019C697.6 231.621 714.458 245.982 713.975 263.15Z" fill="url(#paint28_radial_21_3493)"/>
<path style="mix-blend-mode:screen" opacity="0.57" d="M685.973 300.11C685.491 317.239 667.869 330.677 646.626 330.075C625.383 329.473 608.566 315.113 609.009 297.984C609.451 280.856 627.113 267.418 648.356 268.019C669.599 268.621 686.456 282.942 685.973 300.11Z" fill="url(#paint29_radial_21_3493)"/>
<path style="mix-blend-mode:screen" opacity="0.57" d="M597.935 304.11C597.452 321.239 579.83 334.677 558.587 334.075C537.345 333.473 520.527 319.113 521.01 301.984C521.493 284.856 539.074 271.418 560.317 272.019C581.56 272.621 598.377 286.821 597.935 304.11Z" fill="url(#paint30_radial_21_3493)"/>
<path style="mix-blend-mode:screen" opacity="0.57" d="M92.052 355.004C91.5692 372.172 73.9474 385.57 52.7047 385.009C31.4619 384.447 14.6045 370.006 15.0873 352.918C15.5701 335.83 33.1919 322.352 54.4346 322.913C75.6774 323.475 92.5348 337.875 92.052 355.004Z" fill="url(#paint31_radial_21_3493)"/>
<path style="mix-blend-mode:screen" opacity="0.57" d="M227.975 300.11C227.492 317.239 209.87 330.677 188.628 330.075C167.385 329.473 150.527 315.113 151.01 297.984C151.493 280.856 169.115 267.418 190.357 268.019C211.6 268.621 228.458 282.942 227.975 300.11Z" fill="url(#paint32_radial_21_3493)"/>
<path style="mix-blend-mode:screen" opacity="0.57" d="M182.973 370.07C182.491 387.239 164.869 400.677 143.626 400.075C122.383 399.473 105.566 385.113 106.009 367.984C106.451 350.856 124.113 337.418 145.356 338.019C166.599 338.621 183.376 352.942 182.973 370.07Z" fill="url(#paint33_radial_21_3493)"/>
<path style="mix-blend-mode:screen" opacity="0.57" d="M259.017 417.741C258.534 434.91 240.952 448.348 219.669 447.746C198.386 447.145 181.609 432.784 182.092 415.656C182.575 398.527 200.157 385.089 221.44 385.691C242.723 386.293 259.499 400.613 259.017 417.741Z" fill="url(#paint34_radial_21_3493)"/>
<path style="mix-blend-mode:screen" d="M357.225 315.412C367.45 315.422 377.254 319.48 384.481 326.693C391.708 333.906 395.767 343.685 395.767 353.881C395.772 358.931 394.78 363.932 392.845 368.599C390.91 373.266 388.072 377.507 384.493 381.08C380.913 384.652 376.662 387.487 371.983 389.42C367.305 391.354 362.289 392.349 357.225 392.349C346.992 392.349 337.178 388.296 329.942 381.082C322.707 373.868 318.642 364.083 318.642 353.881C318.642 343.678 322.707 333.893 329.942 326.679C337.178 319.465 346.992 315.412 357.225 315.412Z" fill="url(#paint35_radial_21_3493)"/>
<path style="mix-blend-mode:screen" d="M280.058 315.412C290.291 315.412 300.105 319.465 307.341 326.679C314.576 333.893 318.641 343.678 318.641 353.881C318.641 364.083 314.576 373.868 307.341 381.082C300.105 388.296 290.291 392.349 280.058 392.349C274.993 392.349 269.978 391.354 265.299 389.42C260.621 387.487 256.37 384.652 252.79 381.08C249.211 377.507 246.373 373.266 244.438 368.599C242.503 363.932 241.51 358.931 241.516 353.881C241.516 343.685 245.575 333.906 252.802 326.693C260.029 319.48 269.832 315.422 280.058 315.412Z" fill="url(#paint36_radial_21_3493)"/>
<path style="mix-blend-mode:screen" d="M321.337 147.216C324.172 147.216 326.98 147.774 329.599 148.857C332.218 149.94 334.597 151.527 336.6 153.528C338.603 155.529 340.19 157.904 341.272 160.517C342.353 163.13 342.907 165.93 342.902 168.757C342.902 174.46 340.63 179.928 336.586 183.961C332.541 187.993 327.056 190.258 321.337 190.258C318.505 190.258 315.701 189.702 313.085 188.621C310.468 187.541 308.091 185.957 306.089 183.961C304.086 181.964 302.498 179.594 301.414 176.985C300.33 174.377 299.772 171.581 299.772 168.757C299.767 165.93 300.321 163.13 301.402 160.517C302.484 157.904 304.071 155.529 306.074 153.528C308.077 151.527 310.456 149.94 313.075 148.857C315.694 147.774 318.502 147.216 321.337 147.216Z" fill="url(#paint37_radial_21_3493)"/>
<path style="mix-blend-mode:screen" d="M323.187 260.938C327.95 260.949 332.514 262.842 335.878 266.204C339.242 269.565 341.131 274.12 341.131 278.869C341.131 283.614 339.24 288.164 335.875 291.519C332.51 294.874 327.946 296.759 323.187 296.759C318.424 296.759 313.856 294.876 310.485 291.522C307.113 288.168 305.214 283.617 305.203 278.869C305.203 274.113 307.098 269.552 310.47 266.19C313.843 262.827 318.417 260.938 323.187 260.938Z" fill="url(#paint38_radial_21_3493)"/>
<path d="M611.385 238.703L603.514 224.142V215.467C603.514 214.651 602.831 214 602.015 214H593.982C593.165 214 592.493 214.651 592.493 215.467V224.142L584.616 238.703C584.015 239.813 584.046 241.161 584.692 242.246C585.338 243.33 586.51 244 587.772 244H608.224C609.486 244 610.661 243.33 611.307 242.246C611.953 241.161 611.986 239.813 611.385 238.703ZM599.299 232.611C600.005 232.611 600.576 233.182 600.576 233.887C600.576 234.592 600.003 235.164 599.299 235.164C598.595 235.164 598.023 234.592 598.023 233.887C598.023 233.184 598.594 232.611 599.299 232.611ZM595.71 224.936C596.415 224.936 596.986 225.507 596.986 226.213C596.986 226.917 596.415 227.489 595.71 227.489C595.004 227.489 594.433 226.917 594.433 226.213C594.434 225.507 595.004 224.936 595.71 224.936ZM595.71 229.392C596.852 229.392 597.779 230.319 597.779 231.461C597.779 232.603 596.852 233.529 595.71 233.529C594.567 233.529 593.641 232.603 593.641 231.461C593.641 230.318 594.567 229.392 595.71 229.392ZM607.593 240.004C607.327 240.456 606.841 240.723 606.319 240.723H589.678C589.154 240.723 588.669 240.456 588.404 240.004C588.138 239.552 588.131 239 588.385 238.541L590.385 234.946C590.671 234.432 591.233 234.137 591.818 234.193C594.475 234.446 597.46 236.718 600.128 236.617C601.557 236.563 602.884 236.042 604.147 235.346C604.86 234.952 605.758 235.21 606.153 235.922L607.612 238.54C607.865 238.999 607.858 239.553 607.593 240.004Z" fill="white"/>
<path d="M122.831 253.051H91.1702C90.6088 253.051 90.1514 253.508 90.1514 254.07V256.191C90.1514 256.753 90.6088 257.21 91.1702 257.21H122.831C123.392 257.21 123.849 256.753 123.849 256.191V254.07C123.849 253.508 123.392 253.051 122.831 253.051Z" fill="white"/>
<path d="M122.608 249.166C122.608 248.607 122.156 248.162 121.605 248.162H92.3944C91.8423 248.162 91.3906 248.607 91.3906 249.166V252.335H122.608V249.166Z" fill="white"/>
<path d="M91.3906 276.834C91.3906 277.386 91.8423 277.838 92.3944 277.838H121.604C122.156 277.838 122.608 277.386 122.608 276.834V257.927H91.3906V276.834ZM108.591 261.304C108.591 261.104 108.757 260.946 108.949 260.946H117.733C117.933 260.946 118.091 261.104 118.091 261.304V276.404H108.591V261.304ZM95.091 265.598C95.091 265.31 95.324 265.077 95.6086 265.077H98.4988V262.191C98.4988 261.902 98.7311 261.67 99.0193 261.67H100.916C101.205 261.67 101.438 261.902 101.438 262.191V265.077H104.324C104.612 265.077 104.845 265.31 104.845 265.598V267.495C104.845 267.783 104.612 268.016 104.324 268.016H101.438V270.906C101.438 271.191 101.205 271.423 100.916 271.423H99.0193C98.7311 271.423 98.4988 271.191 98.4988 270.906V268.016H95.6086C95.324 268.016 95.091 267.783 95.091 267.495V265.598Z" fill="white"/>
<path d="M350.336 88.0235C349.821 87.8039 349.268 87.6905 348.709 87.6899H311.28C305.94 87.8337 305.873 95.6461 311.28 95.8265H348.709C349.639 95.8166 350.537 95.4893 351.256 94.8987C351.974 94.3082 352.47 93.4898 352.66 92.5793C352.849 91.6688 352.723 90.7208 352.3 89.8922C351.877 89.0637 351.184 88.4044 350.336 88.0235ZM314.315 92.5719C314.103 92.5679 313.9 92.4809 313.751 92.3296C313.602 92.1783 313.518 91.9747 313.517 91.7622C313.516 91.5497 313.598 91.3453 313.745 91.1925C313.893 91.0397 314.095 90.9508 314.307 90.9446C314.519 90.9488 314.721 91.0359 314.871 91.1871C315.02 91.3384 315.104 91.542 315.105 91.7543C315.106 91.9667 315.024 92.171 314.876 92.3238C314.729 92.4765 314.527 92.5656 314.315 92.5719ZM320.596 92.5719C320.381 92.5709 320.175 92.4848 320.024 92.3323C319.872 92.1798 319.786 91.9734 319.786 91.7582C319.787 91.5431 319.872 91.3367 320.024 91.1842C320.175 91.0317 320.381 90.9456 320.597 90.9446C320.811 90.9463 321.017 91.0328 321.168 91.1852C321.319 91.3376 321.404 91.5436 321.404 91.7583C321.404 91.973 321.319 92.179 321.168 92.3314C321.017 92.4838 320.811 92.5703 320.596 92.5719ZM326.87 92.5719C326.657 92.5679 326.455 92.4809 326.306 92.3296C326.157 92.1783 326.072 91.9747 326.071 91.7622C326.07 91.5497 326.152 91.3453 326.3 91.1925C326.448 91.0397 326.649 90.9508 326.862 90.9446C327.074 90.9489 327.276 91.0359 327.425 91.1872C327.574 91.3384 327.658 91.542 327.659 91.7543C327.661 91.9667 327.579 92.1711 327.431 92.3238C327.283 92.4765 327.082 92.5656 326.87 92.5719ZM333.151 92.5719C332.936 92.5709 332.73 92.4848 332.578 92.3323C332.427 92.1798 332.341 91.9734 332.341 91.7582C332.341 91.5431 332.427 91.3367 332.578 91.1842C332.73 91.0317 332.936 90.9456 333.151 90.9446C333.366 90.9463 333.571 91.0328 333.723 91.1852C333.874 91.3376 333.959 91.5436 333.959 91.7583C333.959 91.973 333.874 92.179 333.723 92.3314C333.571 92.4838 333.366 92.5703 333.151 92.5719ZM339.425 92.5719C339.212 92.5679 339.01 92.4809 338.861 92.3296C338.711 92.1784 338.627 91.9747 338.626 91.7622C338.625 91.5498 338.707 91.3453 338.855 91.1925C339.003 91.0398 339.204 90.9508 339.417 90.9446C339.629 90.9488 339.831 91.0359 339.98 91.1871C340.129 91.3384 340.213 91.5419 340.214 91.7543C340.215 91.9667 340.133 92.171 339.986 92.3238C339.838 92.4765 339.637 92.5656 339.425 92.5719ZM345.706 92.5719C345.492 92.5702 345.288 92.4842 345.136 92.3327C344.985 92.1811 344.9 91.9762 344.899 91.7623C344.898 91.5483 344.981 91.3426 345.131 91.1895C345.28 91.0365 345.484 90.9485 345.698 90.9446C345.912 90.9467 346.116 91.0328 346.267 91.1843C346.418 91.3358 346.503 91.5405 346.504 91.7542C346.505 91.968 346.422 92.1736 346.273 92.3266C346.123 92.4796 345.92 92.5677 345.706 92.5719Z" fill="white"/>
<path d="M338.944 78.7395V86.0624H348.708C349.259 86.0633 349.807 86.1427 350.336 86.2984V78.7395C350.336 78.6325 350.315 78.5265 350.274 78.4276C350.234 78.3288 350.174 78.2389 350.098 78.1633C350.022 78.0876 349.933 78.0277 349.834 77.987C349.735 77.9462 349.629 77.9254 349.522 77.9258H339.758C339.651 77.9254 339.545 77.9462 339.446 77.987C339.347 78.0277 339.257 78.0877 339.182 78.1633C339.106 78.2389 339.046 78.3288 339.006 78.4277C338.965 78.5265 338.944 78.6325 338.944 78.7395Z" fill="white"/>
<path d="M321.044 86.0624V78.7395C321.044 78.6325 321.023 78.5265 320.982 78.4277C320.942 78.3288 320.882 78.2389 320.806 78.1633C320.73 78.0877 320.641 78.0277 320.542 77.987C320.443 77.9462 320.337 77.9254 320.23 77.9258H310.466C310.359 77.9254 310.253 77.9462 310.154 77.987C310.055 78.0277 309.965 78.0877 309.89 78.1633C309.814 78.2389 309.754 78.3288 309.714 78.4277C309.673 78.5265 309.652 78.6325 309.652 78.7395V86.2984C310.181 86.1433 310.729 86.0638 311.28 86.0624H321.044Z" fill="white"/>
<path d="M334.876 77.9258H325.112C325.006 77.9254 324.9 77.9462 324.801 77.987C324.702 78.0278 324.612 78.0877 324.536 78.1633C324.461 78.2389 324.401 78.3288 324.36 78.4277C324.319 78.5266 324.298 78.6325 324.299 78.7395V86.0624H335.69V78.7395C335.69 78.6325 335.67 78.5265 335.629 78.4276C335.588 78.3288 335.528 78.2389 335.453 78.1633C335.377 78.0876 335.287 78.0277 335.188 77.987C335.089 77.9462 334.983 77.9254 334.876 77.9258Z" fill="white"/>
<path d="M319.01 66.5022C319.951 66.4291 320.913 66.5995 321.304 67.5681C321.719 68.5284 321.153 69.3422 320.434 69.9439C320.281 70.0975 320.196 70.3052 320.196 70.5217C320.196 70.7381 320.281 70.9458 320.434 71.0994L322.867 73.5322C323.02 73.6847 323.228 73.7703 323.444 73.7703C323.661 73.7703 323.868 73.6847 324.022 73.5322L324.51 73.0359C324.754 72.7994 325.062 72.6393 325.395 72.5754C325.729 72.5116 326.074 72.5466 326.388 72.6764C326.702 72.8061 326.971 73.0248 327.162 73.3056C327.353 73.5863 327.458 73.9169 327.464 74.2565L327.464 74.9562C327.463 75.0631 327.484 75.1691 327.525 75.268C327.566 75.3669 327.626 75.4567 327.701 75.5323C327.777 75.608 327.867 75.6679 327.966 75.7086C328.065 75.7494 328.17 75.7702 328.277 75.7698H331.711C331.818 75.7702 331.924 75.7494 332.023 75.7086C332.122 75.6679 332.212 75.6079 332.287 75.5323C332.363 75.4567 332.423 75.3669 332.464 75.268C332.504 75.1691 332.525 75.0631 332.525 74.9562V74.2564C332.53 73.9168 332.635 73.5863 332.827 73.3055C333.018 73.0248 333.287 72.8061 333.601 72.6763C333.915 72.5466 334.26 72.5115 334.593 72.5754C334.927 72.6393 335.235 72.7994 335.478 73.0359L335.967 73.5322C336.12 73.6847 336.328 73.7703 336.544 73.7703C336.761 73.7703 336.968 73.6847 337.122 73.5322L339.555 71.0994C339.707 70.9458 339.793 70.7381 339.793 70.5217C339.793 70.3052 339.707 70.0976 339.555 69.9439L339.058 69.4558C338.822 69.212 338.662 68.9043 338.598 68.5707C338.534 68.2371 338.569 67.8921 338.699 67.5782C338.829 67.2643 339.047 66.9952 339.328 66.804C339.609 66.6128 339.939 66.5079 340.279 66.5022H340.979C341.194 66.5015 341.401 66.4156 341.553 66.2632C341.706 66.1107 341.792 65.9041 341.792 65.6885V62.2549C341.792 62.0393 341.706 61.8327 341.553 61.6802C341.401 61.5278 341.194 61.4419 340.979 61.4412C338.627 61.7564 337.673 59.4167 339.555 57.9994C339.704 57.844 339.787 57.637 339.787 57.4217C339.787 57.2064 339.704 56.9994 339.555 56.844L337.122 54.4112C336.968 54.2587 336.761 54.1732 336.544 54.1732C336.328 54.1732 336.12 54.2587 335.967 54.4112C334.534 56.3066 332.209 55.3184 332.525 52.9872C332.525 52.8802 332.504 52.7743 332.464 52.6754C332.423 52.5765 332.363 52.4867 332.287 52.4111C332.212 52.3355 332.122 52.2756 332.023 52.2348C331.924 52.194 331.818 52.1732 331.711 52.1736H328.278C328.171 52.1732 328.065 52.194 327.966 52.2348C327.867 52.2755 327.777 52.3355 327.701 52.4111C327.626 52.4867 327.566 52.5766 327.525 52.6755C327.484 52.7743 327.464 52.8803 327.464 52.9873C327.537 53.9285 327.366 54.89 326.398 55.2818C325.438 55.6961 324.624 55.1299 324.022 54.4111C323.868 54.2587 323.661 54.1732 323.444 54.1732C323.228 54.1732 323.02 54.2587 322.867 54.4112L320.434 56.844C319.855 57.4739 320.439 58.0569 320.93 58.4876C321.167 58.7314 321.327 59.039 321.391 59.3726C321.455 59.7062 321.419 60.0513 321.29 60.3652C321.16 60.6791 320.941 60.9482 320.661 61.1394C320.38 61.3306 320.049 61.4355 319.71 61.4412L319.01 61.4412C318.794 61.4419 318.588 61.5278 318.435 61.6803C318.283 61.8327 318.197 62.0393 318.196 62.2549V65.6885C318.197 65.9041 318.283 66.1107 318.435 66.2631C318.588 66.4156 318.794 66.5015 319.01 66.5022ZM329.994 59.0897C336.446 59.2931 336.445 68.6512 329.994 68.8537C323.542 68.6503 323.544 59.2921 329.994 59.0897Z" fill="white"/>
<path d="M332.322 210.987C333.162 210.987 333.843 210.313 333.843 209.481C333.843 208.649 333.162 207.975 332.322 207.975C331.483 207.975 330.802 208.649 330.802 209.481C330.802 210.313 331.483 210.987 332.322 210.987Z" fill="white"/>
<path d="M345.415 237.261L332.849 258.343V212.093C333.501 211.967 334.084 211.607 334.485 211.082C334.886 210.557 335.077 209.904 335.021 209.248C334.966 208.592 334.668 207.979 334.185 207.528C333.701 207.076 333.066 206.817 332.402 206.8C331.738 206.783 331.09 207.009 330.584 207.436C330.078 207.862 329.748 208.459 329.659 209.111C329.569 209.763 329.726 210.425 330.099 210.97C330.472 211.515 331.035 211.904 331.68 212.063V258.343L319.116 237.375L332.325 190L345.415 237.261Z" fill="white"/>
<path d="M301.7 245.015C302.54 245.015 303.221 244.341 303.221 243.51C303.221 242.678 302.54 242.004 301.7 242.004C300.861 242.004 300.18 242.678 300.18 243.51C300.18 244.341 300.861 245.015 301.7 245.015Z" fill="white"/>
<path d="M354.065 270.941C353.692 270.941 353.322 271.017 352.98 271.167C352.638 271.316 352.332 271.535 352.081 271.808L332.907 260.884L332.326 260.55L331.741 260.884L312.57 271.808C312.148 271.35 311.576 271.052 310.955 270.967C310.334 270.881 309.703 271.014 309.17 271.341C308.637 271.668 308.236 272.169 308.037 272.758C307.838 273.347 307.854 273.986 308.08 274.565C308.307 275.144 308.731 275.626 309.279 275.928C309.827 276.23 310.464 276.332 311.08 276.218C311.696 276.104 312.253 275.78 312.653 275.302C313.054 274.825 313.273 274.223 313.273 273.602C313.274 273.335 313.233 273.069 313.152 272.814L331.741 262.213V278.636C331.094 278.779 330.523 279.152 330.137 279.686C329.751 280.219 329.578 280.875 329.65 281.527C329.722 282.18 330.035 282.783 330.529 283.22C331.022 283.658 331.662 283.901 332.324 283.901C332.987 283.901 333.626 283.658 334.12 283.22C334.613 282.783 334.926 282.18 334.998 281.527C335.07 280.875 334.897 280.219 334.511 279.686C334.125 279.152 333.554 278.779 332.907 278.636V262.219L351.496 272.82C351.328 273.355 351.335 273.93 351.516 274.462C351.697 274.993 352.043 275.455 352.504 275.78C352.966 276.106 353.519 276.279 354.086 276.274C354.653 276.27 355.203 276.088 355.66 275.756C356.116 275.423 356.454 274.956 356.627 274.422C356.8 273.888 356.797 273.313 356.621 272.78C356.444 272.247 356.102 271.782 355.643 271.453C355.184 271.124 354.632 270.947 354.065 270.947V270.941ZM310.583 275.106C310.282 275.106 309.988 275.017 309.738 274.852C309.488 274.686 309.293 274.451 309.178 274.175C309.063 273.9 309.033 273.597 309.092 273.305C309.151 273.013 309.296 272.744 309.509 272.534C309.722 272.323 309.993 272.18 310.288 272.122C310.583 272.065 310.889 272.095 311.167 272.209C311.445 272.324 311.682 272.517 311.849 272.765C312.015 273.013 312.104 273.304 312.104 273.602C312.103 274.001 311.942 274.384 311.657 274.665C311.372 274.947 310.986 275.106 310.583 275.106ZM333.843 281.24C333.844 281.538 333.755 281.83 333.588 282.078C333.421 282.326 333.184 282.52 332.906 282.634C332.628 282.748 332.322 282.778 332.027 282.72C331.732 282.662 331.46 282.519 331.248 282.308C331.035 282.097 330.89 281.829 330.831 281.536C330.773 281.244 330.803 280.941 330.918 280.666C331.034 280.39 331.229 280.155 331.48 279.99C331.73 279.825 332.025 279.737 332.326 279.737C332.728 279.739 333.113 279.898 333.397 280.179C333.682 280.461 333.842 280.842 333.843 281.24ZM354.065 275.106C353.764 275.106 353.47 275.018 353.219 274.853C352.969 274.688 352.774 274.452 352.658 274.177C352.543 273.902 352.512 273.599 352.571 273.307C352.63 273.014 352.775 272.746 352.987 272.535C353.2 272.324 353.471 272.181 353.767 272.123C354.062 272.065 354.368 272.095 354.646 272.209C354.924 272.323 355.161 272.517 355.328 272.765C355.495 273.013 355.584 273.304 355.583 273.602C355.583 274.001 355.422 274.383 355.138 274.664C354.853 274.946 354.468 275.105 354.065 275.106Z" fill="white"/>
<path d="M325.493 257.976L303.47 245.507C303.008 245.906 302.422 246.136 301.81 246.159C301.198 246.182 300.596 245.997 300.105 245.634C299.614 245.272 299.263 244.753 299.11 244.166C298.958 243.578 299.014 242.956 299.268 242.404C299.522 241.852 299.959 241.403 300.507 241.131C301.055 240.859 301.68 240.782 302.279 240.911C302.878 241.04 303.414 241.368 303.798 241.841C304.182 242.314 304.391 242.903 304.39 243.51C304.39 243.875 304.314 244.236 304.165 244.57L326.338 257.122L328.402 258.291L311.557 230.335C311.993 229.897 312.263 229.324 312.321 228.712C312.378 228.1 312.22 227.488 311.874 226.978C311.527 226.468 311.013 226.093 310.419 225.916C309.824 225.739 309.186 225.771 308.613 226.007C308.04 226.243 307.567 226.668 307.275 227.21C306.982 227.752 306.888 228.378 307.009 228.981C307.129 229.584 307.456 230.127 307.935 230.518C308.414 230.909 309.015 231.123 309.635 231.126C309.95 231.125 310.263 231.069 310.558 230.96L315.949 239.903L287.909 235.877L305.905 257.981H298.071C298.04 257.329 297.768 256.712 297.306 256.246C296.844 255.781 296.226 255.5 295.568 255.458C294.911 255.416 294.261 255.615 293.742 256.018C293.224 256.42 292.873 256.997 292.757 257.64C292.642 258.282 292.769 258.944 293.115 259.499C293.461 260.054 294.001 260.464 294.633 260.649C295.265 260.835 295.943 260.783 296.539 260.504C297.135 260.226 297.606 259.74 297.862 259.139H327.535L325.493 257.976ZM308.128 228.462C308.128 228.164 308.217 227.873 308.385 227.625C308.552 227.378 308.789 227.185 309.067 227.071C309.345 226.957 309.651 226.927 309.946 226.985C310.241 227.043 310.512 227.186 310.724 227.397C310.937 227.608 311.082 227.876 311.14 228.168C311.199 228.46 311.169 228.763 311.054 229.038C310.939 229.313 310.744 229.548 310.494 229.714C310.244 229.879 309.95 229.968 309.649 229.968C309.246 229.968 308.859 229.809 308.574 229.527C308.289 229.244 308.128 228.861 308.128 228.462ZM295.395 259.598C295.094 259.598 294.8 259.51 294.55 259.344C294.3 259.179 294.105 258.944 293.99 258.669C293.875 258.394 293.844 258.091 293.903 257.799C293.962 257.507 294.107 257.238 294.319 257.028C294.532 256.817 294.803 256.674 295.098 256.615C295.393 256.557 295.699 256.587 295.977 256.701C296.254 256.815 296.492 257.008 296.659 257.256C296.826 257.503 296.915 257.795 296.915 258.092C296.915 258.492 296.754 258.874 296.469 259.156C296.184 259.439 295.798 259.598 295.395 259.598Z" fill="white"/>
<path d="M362.297 245.247C363.137 245.247 363.818 244.572 363.818 243.741C363.818 242.909 363.137 242.235 362.297 242.235C361.457 242.235 360.776 242.909 360.776 243.741C360.776 244.572 361.457 245.247 362.297 245.247Z" fill="white"/>
<path d="M336.464 259.365H366.137C366.394 259.969 366.868 260.459 367.467 260.739C368.066 261.02 368.748 261.072 369.383 260.886C370.018 260.7 370.562 260.288 370.91 259.73C371.258 259.171 371.386 258.506 371.269 257.86C371.153 257.214 370.8 256.633 370.278 256.229C369.756 255.825 369.102 255.625 368.441 255.668C367.78 255.712 367.158 255.995 366.695 256.464C366.231 256.932 365.958 257.554 365.929 258.209H358.097L376.096 236.103L348.043 240.134L353.434 231.191C353.729 231.3 354.041 231.356 354.356 231.357C354.979 231.355 355.582 231.14 356.063 230.749C356.544 230.357 356.873 229.812 356.994 229.207C357.115 228.602 357.021 227.974 356.727 227.43C356.434 226.886 355.96 226.46 355.384 226.223C354.809 225.986 354.169 225.954 353.573 226.132C352.976 226.309 352.461 226.686 352.113 227.198C351.765 227.71 351.608 228.325 351.666 228.939C351.725 229.553 351.996 230.128 352.434 230.566L335.589 258.522L337.667 257.35L359.84 244.798C359.691 244.464 359.614 244.103 359.615 243.738C359.613 243.127 359.822 242.533 360.207 242.056C360.593 241.579 361.132 241.248 361.735 241.117C362.338 240.986 362.968 241.063 363.52 241.337C364.072 241.61 364.513 242.062 364.769 242.618C365.025 243.175 365.08 243.801 364.927 244.393C364.773 244.984 364.419 245.506 363.923 245.871C363.428 246.235 362.822 246.421 362.205 246.396C361.588 246.372 360.999 246.139 360.535 245.736L338.512 258.207L336.464 259.365ZM354.35 230.199C354.05 230.199 353.755 230.11 353.505 229.945C353.255 229.779 353.06 229.544 352.945 229.269C352.83 228.993 352.8 228.69 352.859 228.398C352.918 228.106 353.063 227.838 353.276 227.627C353.489 227.417 353.76 227.274 354.055 227.216C354.351 227.158 354.656 227.188 354.934 227.303C355.212 227.417 355.449 227.61 355.616 227.858C355.783 228.106 355.872 228.398 355.871 228.696C355.87 229.095 355.71 229.477 355.425 229.759C355.14 230.041 354.753 230.199 354.35 230.199ZM367.092 258.324C367.092 258.026 367.182 257.734 367.349 257.487C367.516 257.239 367.754 257.046 368.032 256.932C368.31 256.818 368.616 256.789 368.911 256.847C369.206 256.905 369.477 257.049 369.689 257.26C369.902 257.471 370.047 257.739 370.105 258.031C370.163 258.324 370.133 258.627 370.017 258.902C369.902 259.177 369.706 259.412 369.456 259.577C369.205 259.742 368.911 259.83 368.61 259.829C368.207 259.829 367.821 259.67 367.537 259.387C367.252 259.105 367.092 258.722 367.092 258.324Z" fill="white"/>
</g>
<defs>
<linearGradient id="paint0_linear_21_3493" x1="-0.0810598" y1="329.632" x2="688.056" y2="329.632" gradientUnits="userSpaceOnUse">
<stop stop-color="#1786A6"/>
<stop offset="1" stop-color="#373B94"/>
</linearGradient>
<linearGradient id="paint1_linear_21_3493" x1="331.395" y1="154.196" x2="402.087" y2="154.196" gradientUnits="userSpaceOnUse">
<stop stop-color="#1786A6"/>
<stop offset="1" stop-color="#373B94"/>
</linearGradient>
<linearGradient id="paint2_linear_21_3493" x1="260.903" y1="154.256" x2="331.596" y2="154.256" gradientUnits="userSpaceOnUse">
<stop stop-color="#1786A6"/>
<stop offset="1" stop-color="#373B94"/>
</linearGradient>
<linearGradient id="paint3_linear_21_3493" x1="260.677" y1="128.102" x2="402.112" y2="128.102" gradientUnits="userSpaceOnUse">
<stop stop-color="#1786A6"/>
<stop offset="1" stop-color="#373B94"/>
</linearGradient>
<linearGradient id="paint4_linear_21_3493" x1="109.433" y1="315.432" x2="180.125" y2="315.432" gradientUnits="userSpaceOnUse">
<stop stop-color="#1786A6"/>
<stop offset="1" stop-color="#373B94"/>
</linearGradient>
<linearGradient id="paint5_linear_21_3493" x1="38.6191" y1="315.432" x2="109.312" y2="315.432" gradientUnits="userSpaceOnUse">
<stop stop-color="#1786A6"/>
<stop offset="1" stop-color="#373B94"/>
</linearGradient>
<linearGradient id="paint6_linear_21_3493" x1="38.5996" y1="304.722" x2="180.024" y2="304.722" gradientUnits="userSpaceOnUse">
<stop stop-color="#1786A6"/>
<stop offset="1" stop-color="#373B94"/>
</linearGradient>
<linearGradient id="paint7_linear_21_3493" x1="599.826" y1="268.921" x2="655.834" y2="268.921" gradientUnits="userSpaceOnUse">
<stop stop-color="#1786A6"/>
<stop offset="1" stop-color="#373B94"/>
</linearGradient>
<linearGradient id="paint8_linear_21_3493" x1="543.899" y1="268.961" x2="599.907" y2="268.961" gradientUnits="userSpaceOnUse">
<stop stop-color="#1786A6"/>
<stop offset="1" stop-color="#373B94"/>
</linearGradient>
<linearGradient id="paint9_linear_21_3493" x1="543.767" y1="260.437" x2="656.208" y2="260.437" gradientUnits="userSpaceOnUse">
<stop stop-color="#1786A6"/>
<stop offset="1" stop-color="#373B94"/>
</linearGradient>
<linearGradient id="paint10_linear_21_3493" x1="331.274" y1="373.978" x2="435.881" y2="373.978" gradientUnits="userSpaceOnUse">
<stop stop-color="#1786A6"/>
<stop offset="1" stop-color="#373B94"/>
</linearGradient>
<linearGradient id="paint11_linear_21_3493" x1="226.949" y1="373.978" x2="331.555" y2="373.978" gradientUnits="userSpaceOnUse">
<stop stop-color="#1786A6"/>
<stop offset="1" stop-color="#373B94"/>
</linearGradient>
<linearGradient id="paint12_linear_21_3493" x1="226.941" y1="302.395" x2="435.849" y2="302.395" gradientUnits="userSpaceOnUse">
<stop stop-color="#1786A6"/>
<stop offset="1" stop-color="#373B94"/>
</linearGradient>
<linearGradient id="paint13_linear_21_3493" x1="331.395" y1="328.73" x2="331.395" y2="96.4328" gradientUnits="userSpaceOnUse">
<stop stop-color="white"/>
<stop offset="0.02" stop-color="#F3F3F3"/>
<stop offset="0.12" stop-color="#BBBBBB"/>
<stop offset="0.22" stop-color="#898989"/>
<stop offset="0.32" stop-color="#5F5F5F"/>
<stop offset="0.43" stop-color="#3C3C3C"/>
<stop offset="0.53" stop-color="#222222"/>
<stop offset="0.64" stop-color="#0F0F0F"/>
<stop offset="0.75" stop-color="#040404"/>
<stop offset="0.87"/>
</linearGradient>
<linearGradient id="paint14_linear_21_3493" x1="331.395" y1="328.048" x2="331.395" y2="115.046" gradientUnits="userSpaceOnUse">
<stop stop-color="white"/>
<stop offset="0.02" stop-color="#F3F3F3"/>
<stop offset="0.12" stop-color="#BBBBBB"/>
<stop offset="0.22" stop-color="#898989"/>
<stop offset="0.32" stop-color="#5F5F5F"/>
<stop offset="0.43" stop-color="#3C3C3C"/>
<stop offset="0.53" stop-color="#222222"/>
<stop offset="0.64" stop-color="#0F0F0F"/>
<stop offset="0.75" stop-color="#040404"/>
<stop offset="0.87"/>
</linearGradient>
<linearGradient id="paint15_linear_21_3493" x1="599.423" y1="275.86" x2="599.423" y2="178.625" gradientUnits="userSpaceOnUse">
<stop stop-color="white"/>
<stop offset="0.02" stop-color="#F3F3F3"/>
<stop offset="0.12" stop-color="#BBBBBB"/>
<stop offset="0.22" stop-color="#898989"/>
<stop offset="0.32" stop-color="#5F5F5F"/>
<stop offset="0.43" stop-color="#3C3C3C"/>
<stop offset="0.53" stop-color="#222222"/>
<stop offset="0.64" stop-color="#0F0F0F"/>
<stop offset="0.75" stop-color="#040404"/>
<stop offset="0.87"/>
</linearGradient>
<linearGradient id="paint16_linear_21_3493" x1="599.424" y1="275.579" x2="599.424" y2="186.407" gradientUnits="userSpaceOnUse">
<stop stop-color="white"/>
<stop offset="0.02" stop-color="#F3F3F3"/>
<stop offset="0.12" stop-color="#BBBBBB"/>
<stop offset="0.22" stop-color="#898989"/>
<stop offset="0.32" stop-color="#5F5F5F"/>
<stop offset="0.43" stop-color="#3C3C3C"/>
<stop offset="0.53" stop-color="#222222"/>
<stop offset="0.64" stop-color="#0F0F0F"/>
<stop offset="0.75" stop-color="#040404"/>
<stop offset="0.87"/>
</linearGradient>
<linearGradient id="paint17_linear_21_3493" x1="109.312" y1="318.902" x2="109.312" y2="205.301" gradientUnits="userSpaceOnUse">
<stop stop-color="white"/>
<stop offset="0.02" stop-color="#F3F3F3"/>
<stop offset="0.12" stop-color="#BBBBBB"/>
<stop offset="0.22" stop-color="#898989"/>
<stop offset="0.32" stop-color="#5F5F5F"/>
<stop offset="0.43" stop-color="#3C3C3C"/>
<stop offset="0.53" stop-color="#222222"/>
<stop offset="0.64" stop-color="#0F0F0F"/>
<stop offset="0.75" stop-color="#040404"/>
<stop offset="0.87"/>
</linearGradient>
<linearGradient id="paint18_linear_21_3493" x1="109.312" y1="318.541" x2="109.312" y2="214.406" gradientUnits="userSpaceOnUse">
<stop stop-color="white"/>
<stop offset="0.02" stop-color="#F3F3F3"/>
<stop offset="0.12" stop-color="#BBBBBB"/>
<stop offset="0.22" stop-color="#898989"/>
<stop offset="0.32" stop-color="#5F5F5F"/>
<stop offset="0.43" stop-color="#3C3C3C"/>
<stop offset="0.53" stop-color="#222222"/>
<stop offset="0.64" stop-color="#0F0F0F"/>
<stop offset="0.75" stop-color="#040404"/>
<stop offset="0.87"/>
</linearGradient>
<linearGradient id="paint19_linear_21_3493" x1="330.993" y1="147.176" x2="330.993" y2="-0.681828" gradientUnits="userSpaceOnUse">
<stop stop-color="white"/>
<stop offset="0.02" stop-color="#F3F3F3"/>
<stop offset="0.12" stop-color="#BBBBBB"/>
<stop offset="0.22" stop-color="#898989"/>
<stop offset="0.32" stop-color="#5F5F5F"/>
<stop offset="0.43" stop-color="#3C3C3C"/>
<stop offset="0.53" stop-color="#222222"/>
<stop offset="0.64" stop-color="#0F0F0F"/>
<stop offset="0.75" stop-color="#040404"/>
<stop offset="0.87"/>
</linearGradient>
<linearGradient id="paint20_linear_21_3493" x1="330.993" y1="146.735" x2="330.993" y2="11.1516" gradientUnits="userSpaceOnUse">
<stop stop-color="white"/>
<stop offset="0.02" stop-color="#F3F3F3"/>
<stop offset="0.12" stop-color="#BBBBBB"/>
<stop offset="0.22" stop-color="#898989"/>
<stop offset="0.32" stop-color="#5F5F5F"/>
<stop offset="0.43" stop-color="#3C3C3C"/>
<stop offset="0.53" stop-color="#222222"/>
<stop offset="0.64" stop-color="#0F0F0F"/>
<stop offset="0.75" stop-color="#040404"/>
<stop offset="0.87"/>
</linearGradient>
<radialGradient id="paint21_radial_21_3493" cx="0" cy="0" r="1" gradientUnits="userSpaceOnUse" gradientTransform="translate(378.992 508.307) rotate(1.59527) scale(38.5193 31.0563)">
<stop stop-color="#F2F2F2"/>
<stop offset="0.02" stop-color="#D1D1D1"/>
<stop offset="0.06" stop-color="#A5A5A5"/>
<stop offset="0.1" stop-color="#7E7E7E"/>
<stop offset="0.14" stop-color="#5C5C5C"/>
<stop offset="0.19" stop-color="#3F3F3F"/>
<stop offset="0.24" stop-color="#282828"/>
<stop offset="0.3" stop-color="#161616"/>
<stop offset="0.37" stop-color="#090909"/>
<stop offset="0.46" stop-color="#020202"/>
<stop offset="0.67"/>
</radialGradient>
<radialGradient id="paint22_radial_21_3493" cx="0" cy="0" r="1" gradientUnits="userSpaceOnUse" gradientTransform="translate(452.261 420.181) rotate(1.7626) scale(38.5376 31.0708)">
<stop stop-color="#F2F2F2"/>
<stop offset="0.02" stop-color="#D1D1D1"/>
<stop offset="0.06" stop-color="#A5A5A5"/>
<stop offset="0.1" stop-color="#7E7E7E"/>
<stop offset="0.14" stop-color="#5C5C5C"/>
<stop offset="0.19" stop-color="#3F3F3F"/>
<stop offset="0.24" stop-color="#282828"/>
<stop offset="0.3" stop-color="#161616"/>
<stop offset="0.37" stop-color="#090909"/>
<stop offset="0.46" stop-color="#020202"/>
<stop offset="0.67"/>
</radialGradient>
<radialGradient id="paint23_radial_21_3493" cx="0" cy="0" r="1" gradientUnits="userSpaceOnUse" gradientTransform="translate(512.331 385.401) rotate(1.7626) scale(38.5376 31.0708)">
<stop stop-color="#F2F2F2"/>
<stop offset="0.02" stop-color="#D1D1D1"/>
<stop offset="0.06" stop-color="#A5A5A5"/>
<stop offset="0.1" stop-color="#7E7E7E"/>
<stop offset="0.14" stop-color="#5C5C5C"/>
<stop offset="0.19" stop-color="#3F3F3F"/>
<stop offset="0.24" stop-color="#282828"/>
<stop offset="0.3" stop-color="#161616"/>
<stop offset="0.37" stop-color="#090909"/>
<stop offset="0.46" stop-color="#020202"/>
<stop offset="0.67"/>
</radialGradient>
<radialGradient id="paint24_radial_21_3493" cx="0" cy="0" r="1" gradientUnits="userSpaceOnUse" gradientTransform="translate(359.103 220.468) rotate(1.7626) scale(38.5376 31.0708)">
<stop stop-color="#F2F2F2"/>
<stop offset="0.02" stop-color="#D1D1D1"/>
<stop offset="0.06" stop-color="#A5A5A5"/>
<stop offset="0.1" stop-color="#7E7E7E"/>
<stop offset="0.14" stop-color="#5C5C5C"/>
<stop offset="0.19" stop-color="#3F3F3F"/>
<stop offset="0.24" stop-color="#282828"/>
<stop offset="0.3" stop-color="#161616"/>
<stop offset="0.37" stop-color="#090909"/>
<stop offset="0.46" stop-color="#020202"/>
<stop offset="0.67"/>
</radialGradient>
<radialGradient id="paint25_radial_21_3493" cx="0" cy="0" r="1" gradientUnits="userSpaceOnUse" gradientTransform="translate(254.625 191.691) rotate(1.7626) scale(38.5376 31.0708)">
<stop stop-color="#F2F2F2"/>
<stop offset="0.02" stop-color="#D1D1D1"/>
<stop offset="0.06" stop-color="#A5A5A5"/>
<stop offset="0.1" stop-color="#7E7E7E"/>
<stop offset="0.14" stop-color="#5C5C5C"/>
<stop offset="0.19" stop-color="#3F3F3F"/>
<stop offset="0.24" stop-color="#282828"/>
<stop offset="0.3" stop-color="#161616"/>
<stop offset="0.37" stop-color="#090909"/>
<stop offset="0.46" stop-color="#020202"/>
<stop offset="0.67"/>
</radialGradient>
<radialGradient id="paint26_radial_21_3493" cx="0" cy="0" r="1" gradientUnits="userSpaceOnUse" gradientTransform="translate(237.937 483.097) rotate(1.7626) scale(38.5376 31.0708)">
<stop stop-color="#F2F2F2"/>
<stop offset="0.02" stop-color="#D1D1D1"/>
<stop offset="0.06" stop-color="#A5A5A5"/>
<stop offset="0.1" stop-color="#7E7E7E"/>
<stop offset="0.14" stop-color="#5C5C5C"/>
<stop offset="0.19" stop-color="#3F3F3F"/>
<stop offset="0.24" stop-color="#282828"/>
<stop offset="0.3" stop-color="#161616"/>
<stop offset="0.37" stop-color="#090909"/>
<stop offset="0.46" stop-color="#020202"/>
<stop offset="0.67"/>
</radialGradient>
<radialGradient id="paint27_radial_21_3493" cx="0" cy="0" r="1" gradientUnits="userSpaceOnUse" gradientTransform="translate(415.792 173.717) rotate(1.7626) scale(38.5376 31.0708)">
<stop stop-color="#F2F2F2"/>
<stop offset="0.02" stop-color="#D1D1D1"/>
<stop offset="0.06" stop-color="#A5A5A5"/>
<stop offset="0.1" stop-color="#7E7E7E"/>
<stop offset="0.14" stop-color="#5C5C5C"/>
<stop offset="0.19" stop-color="#3F3F3F"/>
<stop offset="0.24" stop-color="#282828"/>
<stop offset="0.3" stop-color="#161616"/>
<stop offset="0.37" stop-color="#090909"/>
<stop offset="0.46" stop-color="#020202"/>
<stop offset="0.67"/>
</radialGradient>
<radialGradient id="paint28_radial_21_3493" cx="0" cy="0" r="1" gradientUnits="userSpaceOnUse" gradientTransform="translate(672.791 260.939) rotate(1.7626) scale(38.5376 31.0708)">
<stop stop-color="#F2F2F2"/>
<stop offset="0.02" stop-color="#D1D1D1"/>
<stop offset="0.06" stop-color="#A5A5A5"/>
<stop offset="0.1" stop-color="#7E7E7E"/>
<stop offset="0.14" stop-color="#5C5C5C"/>
<stop offset="0.19" stop-color="#3F3F3F"/>
<stop offset="0.24" stop-color="#282828"/>
<stop offset="0.3" stop-color="#161616"/>
<stop offset="0.37" stop-color="#090909"/>
<stop offset="0.46" stop-color="#020202"/>
<stop offset="0.67"/>
</radialGradient>
<radialGradient id="paint29_radial_21_3493" cx="0" cy="0" r="1" gradientUnits="userSpaceOnUse" gradientTransform="translate(644.689 297.787) rotate(1.7626) scale(38.5376 31.0708)">
<stop stop-color="#F2F2F2"/>
<stop offset="0.02" stop-color="#D1D1D1"/>
<stop offset="0.06" stop-color="#A5A5A5"/>
<stop offset="0.1" stop-color="#7E7E7E"/>
<stop offset="0.14" stop-color="#5C5C5C"/>
<stop offset="0.19" stop-color="#3F3F3F"/>
<stop offset="0.24" stop-color="#282828"/>
<stop offset="0.3" stop-color="#161616"/>
<stop offset="0.37" stop-color="#090909"/>
<stop offset="0.46" stop-color="#020202"/>
<stop offset="0.67"/>
</radialGradient>
<radialGradient id="paint30_radial_21_3493" cx="0" cy="0" r="1" gradientUnits="userSpaceOnUse" gradientTransform="translate(556.543 301.398) rotate(1.7626) scale(38.5376 31.0708)">
<stop stop-color="#F2F2F2"/>
<stop offset="0.02" stop-color="#D1D1D1"/>
<stop offset="0.06" stop-color="#A5A5A5"/>
<stop offset="0.1" stop-color="#7E7E7E"/>
<stop offset="0.14" stop-color="#5C5C5C"/>
<stop offset="0.19" stop-color="#3F3F3F"/>
<stop offset="0.24" stop-color="#282828"/>
<stop offset="0.3" stop-color="#161616"/>
<stop offset="0.37" stop-color="#090909"/>
<stop offset="0.46" stop-color="#020202"/>
<stop offset="0.67"/>
</radialGradient>
<radialGradient id="paint31_radial_21_3493" cx="0" cy="0" r="1" gradientUnits="userSpaceOnUse" gradientTransform="translate(50.1853 350.926) rotate(1.7626) scale(38.5376 31.0708)">
<stop stop-color="#F2F2F2"/>
<stop offset="0.02" stop-color="#D1D1D1"/>
<stop offset="0.06" stop-color="#A5A5A5"/>
<stop offset="0.1" stop-color="#7E7E7E"/>
<stop offset="0.14" stop-color="#5C5C5C"/>
<stop offset="0.19" stop-color="#3F3F3F"/>
<stop offset="0.24" stop-color="#282828"/>
<stop offset="0.3" stop-color="#161616"/>
<stop offset="0.37" stop-color="#090909"/>
<stop offset="0.46" stop-color="#020202"/>
<stop offset="0.67"/>
</radialGradient>
<radialGradient id="paint32_radial_21_3493" cx="0" cy="0" r="1" gradientUnits="userSpaceOnUse" gradientTransform="translate(186.351 296.443) rotate(1.7626) scale(38.5376 31.0708)">
<stop stop-color="#F2F2F2"/>
<stop offset="0.02" stop-color="#D1D1D1"/>
<stop offset="0.06" stop-color="#A5A5A5"/>
<stop offset="0.1" stop-color="#7E7E7E"/>
<stop offset="0.14" stop-color="#5C5C5C"/>
<stop offset="0.19" stop-color="#3F3F3F"/>
<stop offset="0.24" stop-color="#282828"/>
<stop offset="0.3" stop-color="#161616"/>
<stop offset="0.37" stop-color="#090909"/>
<stop offset="0.46" stop-color="#020202"/>
<stop offset="0.67"/>
</radialGradient>
<radialGradient id="paint33_radial_21_3493" cx="0" cy="0" r="1" gradientUnits="userSpaceOnUse" gradientTransform="translate(141.045 366.258) rotate(1.7626) scale(38.5376 31.0708)">
<stop stop-color="#F2F2F2"/>
<stop offset="0.02" stop-color="#D1D1D1"/>
<stop offset="0.06" stop-color="#A5A5A5"/>
<stop offset="0.1" stop-color="#7E7E7E"/>
<stop offset="0.14" stop-color="#5C5C5C"/>
<stop offset="0.19" stop-color="#3F3F3F"/>
<stop offset="0.24" stop-color="#282828"/>
<stop offset="0.3" stop-color="#161616"/>
<stop offset="0.37" stop-color="#090909"/>
<stop offset="0.46" stop-color="#020202"/>
<stop offset="0.67"/>
</radialGradient>
<radialGradient id="paint34_radial_21_3493" cx="0" cy="0" r="1" gradientUnits="userSpaceOnUse" gradientTransform="translate(217.149 414.185) rotate(1.7626) scale(38.5376 31.0708)">
<stop stop-color="#F2F2F2"/>
<stop offset="0.02" stop-color="#D1D1D1"/>
<stop offset="0.06" stop-color="#A5A5A5"/>
<stop offset="0.1" stop-color="#7E7E7E"/>
<stop offset="0.14" stop-color="#5C5C5C"/>
<stop offset="0.19" stop-color="#3F3F3F"/>
<stop offset="0.24" stop-color="#282828"/>
<stop offset="0.3" stop-color="#161616"/>
<stop offset="0.37" stop-color="#090909"/>
<stop offset="0.46" stop-color="#020202"/>
<stop offset="0.67"/>
</radialGradient>
<radialGradient id="paint35_radial_21_3493" cx="0" cy="0" r="1" gradientUnits="userSpaceOnUse" gradientTransform="translate(357.225 353.881) rotate(-90) scale(38.4688 38.5829)">
<stop stop-color="#2977E2"/>
<stop offset="0.01" stop-color="#2468C6"/>
<stop offset="0.03" stop-color="#1C539D"/>
<stop offset="0.05" stop-color="#163F77"/>
<stop offset="0.08" stop-color="#102E57"/>
<stop offset="0.11" stop-color="#0B1F3B"/>
<stop offset="0.14" stop-color="#071425"/>
<stop offset="0.17" stop-color="#040B15"/>
<stop offset="0.22" stop-color="#020509"/>
<stop offset="0.28" stop-color="#000102"/>
<stop offset="0.45"/>
</radialGradient>
<radialGradient id="paint36_radial_21_3493" cx="0" cy="0" r="1" gradientUnits="userSpaceOnUse" gradientTransform="translate(280.099 353.881) rotate(-90) scale(38.4688 38.583)">
<stop stop-color="#2977E2"/>
<stop offset="0.01" stop-color="#2468C6"/>
<stop offset="0.03" stop-color="#1C539D"/>
<stop offset="0.05" stop-color="#163F77"/>
<stop offset="0.08" stop-color="#102E57"/>
<stop offset="0.11" stop-color="#0B1F3B"/>
<stop offset="0.14" stop-color="#071425"/>
<stop offset="0.17" stop-color="#040B15"/>
<stop offset="0.22" stop-color="#020509"/>
<stop offset="0.28" stop-color="#000102"/>
<stop offset="0.45"/>
</radialGradient>
<radialGradient id="paint37_radial_21_3493" cx="0" cy="0" r="1" gradientUnits="userSpaceOnUse" gradientTransform="translate(321.337 168.637) rotate(-90) scale(21.5008 21.5646)">
<stop stop-color="#2977E2"/>
<stop offset="0.01" stop-color="#2468C6"/>
<stop offset="0.03" stop-color="#1C539D"/>
<stop offset="0.05" stop-color="#163F77"/>
<stop offset="0.08" stop-color="#102E57"/>
<stop offset="0.11" stop-color="#0B1F3B"/>
<stop offset="0.14" stop-color="#071425"/>
<stop offset="0.17" stop-color="#040B15"/>
<stop offset="0.22" stop-color="#020509"/>
<stop offset="0.28" stop-color="#000102"/>
<stop offset="0.45"/>
</radialGradient>
<radialGradient id="paint38_radial_21_3493" cx="0" cy="0" r="1" gradientUnits="userSpaceOnUse" gradientTransform="translate(323.187 278.869) rotate(-90) scale(17.9307 17.984)">
<stop stop-color="#2977E2"/>
<stop offset="0.01" stop-color="#2468C6"/>
<stop offset="0.03" stop-color="#1C539D"/>
<stop offset="0.05" stop-color="#163F77"/>
<stop offset="0.08" stop-color="#102E57"/>
<stop offset="0.11" stop-color="#0B1F3B"/>
<stop offset="0.14" stop-color="#071425"/>
<stop offset="0.17" stop-color="#040B15"/>
<stop offset="0.22" stop-color="#020509"/>
<stop offset="0.28" stop-color="#000102"/>
<stop offset="0.45"/>
</radialGradient>
<clipPath id="clip0_21_3493">
<rect width="713" height="580" fill="white"/>
</clipPath>
</defs>
</svg>
