<svg width="545" height="536" viewBox="0 0 545 536" fill="none" xmlns="http://www.w3.org/2000/svg">
<g clip-path="url(#clip0_21_3768)">
<path d="M235.001 200.445L195.103 223.586L155.029 200.445L195.103 177.303L235.001 200.445Z" fill="url(#paint0_linear_21_3768)"/>
<path d="M235.001 200.445V245.91L195.103 268.993V223.587L235.001 200.445Z" fill="url(#paint1_linear_21_3768)"/>
<path d="M195.103 223.587V268.993L155.029 245.91V200.445L195.103 223.587Z" fill="#0D2F65"/>
<path d="M213.238 196.705L195.044 207.224L176.792 196.705L195.044 186.127L213.238 196.705Z" fill="#00C6FF"/>
<path d="M213.239 196.705V199.51L195.045 210.087V207.224L213.239 196.705Z" fill="#0D2F65"/>
<path d="M195.044 207.224V210.087L176.792 199.51V196.705L195.044 207.224Z" fill="#255385"/>
<path d="M168.017 222.593V238.664L182.115 246.845V230.774L168.017 222.593Z" fill="url(#paint2_linear_21_3768)"/>
<path d="M168.017 222.593V238.664L182.115 246.845V230.774L168.017 222.593Z" fill="#00C6FF"/>
<path d="M168.017 222.593L171.41 224.58V236.794L168.017 238.664V222.593Z" fill="#19468F"/>
<path d="M171.41 236.794L182.115 242.93V246.845L168.017 238.664L171.41 236.794Z" fill="#183A72"/>
<path d="M390.029 289.973L350.131 313.115L310.058 289.973L350.131 266.831L390.029 289.973Z" fill="url(#paint3_linear_21_3768)"/>
<path d="M390.029 289.973V335.438L350.131 358.58V313.115L390.029 289.973Z" fill="url(#paint4_linear_21_3768)"/>
<path d="M350.131 313.115V358.58L310.058 335.438V289.973L350.131 313.115Z" fill="#0D2F65"/>
<path d="M368.267 286.233L350.073 296.752L331.82 286.233L350.073 275.656L368.267 286.233Z" fill="#00C6FF"/>
<path d="M368.267 286.233V289.038L350.073 299.615V296.752L368.267 286.233Z" fill="#0D2F65"/>
<path d="M350.073 296.752V299.615L331.82 289.038V286.233L350.073 296.752Z" fill="#255385"/>
<path d="M323.045 312.18V328.192L337.144 336.373V320.303L323.045 312.18Z" fill="url(#paint5_linear_21_3768)"/>
<path d="M323.045 312.18V328.192L337.144 336.373V320.303L323.045 312.18Z" fill="#00C6FF"/>
<path d="M323.045 312.18L326.438 314.167V326.322L323.045 328.192V312.18Z" fill="#19468F"/>
<path d="M326.438 326.322L337.144 332.516V336.373L323.045 328.192L326.438 326.322Z" fill="#183A72"/>
<path d="M545 379.501L505.102 402.643L465.087 379.501L505.102 356.359L545 379.501Z" fill="url(#paint6_linear_21_3768)"/>
<path d="M545 379.501V424.967L505.102 448.108V402.643L545 379.501Z" fill="url(#paint7_linear_21_3768)"/>
<path d="M505.102 402.643V448.108L465.087 424.967V379.501L505.102 402.643Z" fill="#0D2F65"/>
<path d="M523.296 375.761L505.102 386.338L486.791 375.761L505.102 365.184L523.296 375.761Z" fill="#00C6FF"/>
<path d="M523.296 375.761V378.624L505.102 389.143V386.338L523.296 375.761Z" fill="#0D2F65"/>
<path d="M505.102 386.338V389.143L486.791 378.624V375.761L505.102 386.338Z" fill="#255385"/>
<path d="M478.016 401.708V417.778L492.115 425.901V409.889L478.016 401.708Z" fill="url(#paint8_linear_21_3768)"/>
<path d="M478.016 401.708V417.778L492.115 425.901V409.889L478.016 401.708Z" fill="#00C6FF"/>
<path d="M478.016 401.708L481.467 403.695V415.85L478.016 417.778V401.708Z" fill="#19468F"/>
<path d="M481.467 415.85L492.115 422.045V425.902L478.016 417.779L481.467 415.85Z" fill="#183A72"/>
<path d="M392.721 467.393L352.823 490.535L312.749 467.393L352.823 444.251L392.721 467.393Z" fill="url(#paint9_linear_21_3768)"/>
<path d="M392.72 467.393V512.858L352.822 536V490.535L392.72 467.393Z" fill="url(#paint10_linear_21_3768)"/>
<path d="M352.823 490.535V536L312.749 512.858V467.393L352.823 490.535Z" fill="#0D2F65"/>
<path d="M370.958 463.653L352.764 474.23L334.512 463.653L352.764 453.075L370.958 463.653Z" fill="#00C6FF"/>
<path d="M370.959 463.653V466.516L352.765 477.035V474.23L370.959 463.653Z" fill="#0D2F65"/>
<path d="M352.764 474.23V477.035L334.512 466.516V463.653L352.764 474.23Z" fill="#255385"/>
<path d="M386.929 112.67L347.031 135.812L307.016 112.67L347.031 89.5281L386.929 112.67Z" fill="url(#paint11_linear_21_3768)"/>
<path d="M386.928 112.67V158.135L347.03 181.277V135.812L386.928 112.67Z" fill="url(#paint12_linear_21_3768)"/>
<path d="M347.031 135.812V181.277L307.016 158.135V112.67L347.031 135.812Z" fill="#0D2F65"/>
<path d="M365.225 108.93L346.972 119.507L328.72 108.93L346.972 98.3523L365.225 108.93Z" fill="#00C6FF"/>
<path d="M365.225 108.93V111.793L346.973 122.312V119.507L365.225 108.93Z" fill="#0D2F65"/>
<path d="M346.972 119.507V122.312L328.72 111.735V108.93L346.972 119.507Z" fill="#255385"/>
<path d="M319.944 134.876V150.889L334.043 159.07V143.058L319.944 134.876Z" fill="url(#paint13_linear_21_3768)"/>
<path d="M319.944 134.876V150.889L334.043 159.07V143.058L319.944 134.876Z" fill="#00C6FF"/>
<path d="M319.944 134.876L323.396 136.863V149.019L319.944 150.889V134.876Z" fill="#19468F"/>
<path d="M323.396 149.019L334.043 155.213V159.07L319.944 150.889L323.396 149.019Z" fill="#183A72"/>
<path d="M541.958 202.198L502.06 225.34L461.986 202.198L502.06 179.115L541.958 202.198Z" fill="url(#paint14_linear_21_3768)"/>
<path d="M541.958 202.198V247.663L502.06 270.805V225.34L541.958 202.198Z" fill="url(#paint15_linear_21_3768)"/>
<path d="M502.06 225.34V270.805L461.986 247.663V202.198L502.06 225.34Z" fill="#0D2F65"/>
<path d="M520.195 198.458L502.001 209.035L483.749 198.458L502.001 187.939L520.195 198.458Z" fill="#00C6FF"/>
<path d="M520.195 198.458V201.322L502.001 211.84V209.035L520.195 198.458Z" fill="#0D2F65"/>
<path d="M502.001 209.035V211.84L483.749 201.322V198.458L502.001 209.035Z" fill="#255385"/>
<path d="M474.974 224.405V240.475L489.072 248.598V232.586L474.974 224.405Z" fill="url(#paint16_linear_21_3768)"/>
<path d="M474.974 224.405V240.475L489.072 248.598V232.586L474.974 224.405Z" fill="#00C6FF"/>
<path d="M474.974 224.405L478.367 226.392V238.547L474.974 240.475V224.405Z" fill="#19468F"/>
<path d="M478.367 238.547L489.072 244.741V248.598L474.974 240.475L478.367 238.547Z" fill="#19468F"/>
<path d="M79.9715 110.858L40.0735 134L0 110.858L40.0735 87.7749L79.9715 110.858Z" fill="url(#paint17_linear_21_3768)"/>
<path d="M79.9713 110.858V156.323L40.0732 179.465V134L79.9713 110.858Z" fill="url(#paint18_linear_21_3768)"/>
<path d="M40.0735 134V179.465L0 156.323V110.858L40.0735 134Z" fill="#0D2F65"/>
<path d="M58.209 107.118L40.0151 117.695L21.7041 107.118L40.0151 96.5991L58.209 107.118Z" fill="#00C6FF"/>
<path d="M58.2086 107.118V109.982L40.0146 120.501V117.696L58.2086 107.118Z" fill="#0D2F65"/>
<path d="M40.0151 117.696V120.501L21.7041 109.982V107.118L40.0151 117.696Z" fill="#255385"/>
<path d="M67.0432 133.065V149.136L52.9443 157.259V141.246L67.0432 133.065Z" fill="url(#paint19_linear_21_3768)"/>
<path d="M67.0432 133.065V149.136L52.9443 157.259V141.246L67.0432 133.065Z" fill="#00C6FF"/>
<path d="M221.099 222V238.071L207 246.194V230.181L221.099 222Z" fill="#00C6FF"/>
<path d="M376.099 312V328.071L362 336.194V320.181L376.099 312Z" fill="#00C6FF"/>
<path d="M67.0425 133.065L63.6494 135.052V147.207L67.0425 149.136V133.065Z" fill="#19468F"/>
<path d="M221.098 222L217.705 223.987V236.142L221.098 238.071V222Z" fill="#19468F"/>
<path d="M376.098 312L372.705 313.987V326.142L376.098 328.071V312Z" fill="#19468F"/>
<path d="M63.6501 147.207L52.9443 153.402V157.258L67.0432 149.136L63.6501 147.207Z" fill="#183A72"/>
<path d="M217.706 236.142L207 242.337V246.194L221.099 238.071L217.706 236.142Z" fill="#183A72"/>
<path d="M372.706 326.142L362 332.337V336.194L376.099 328.071L372.706 326.142Z" fill="#183A72"/>
<path d="M231.9 23.1417L192.002 46.2835L151.929 23.1417L192.002 0L231.9 23.1417Z" fill="url(#paint20_linear_21_3768)"/>
<path d="M231.9 23.1417V68.6071L192.002 91.7488V46.2835L231.9 23.1417Z" fill="url(#paint21_linear_21_3768)"/>
<path d="M192.002 46.2835V91.7488L151.929 68.6071V23.1417L192.002 46.2835Z" fill="#0D2F65"/>
<path d="M210.138 19.4016L191.944 29.9206L173.691 19.4016L191.944 8.82422L210.138 19.4016Z" fill="#00C6FF"/>
<path d="M210.138 19.4016V22.2067L191.944 32.7841V29.9206L210.138 19.4016Z" fill="#0D2F65"/>
<path d="M191.944 29.9206V32.7841L173.691 22.2067V19.4016L191.944 29.9206Z" fill="#255385"/>
<path d="M218.971 45.29V61.3607L204.931 69.5421V53.4715L218.971 45.29Z" fill="url(#paint22_linear_21_3768)"/>
<path d="M218.971 45.29V61.3607L204.931 69.5421V53.4715L218.971 45.29Z" fill="#00C6FF"/>
<path d="M374.04 134V150.071L360 158.252V142.181L374.04 134Z" fill="#00C6FF"/>
<path d="M218.971 45.29L215.578 47.277V59.4907L218.971 61.3607V45.29Z" fill="#19468F"/>
<path d="M374.041 134L370.647 135.987V148.201L374.041 150.071V134Z" fill="#19468F"/>
<path d="M215.578 59.4907L204.931 65.6268V69.5422L218.971 61.3608L215.578 59.4907Z" fill="#183A72"/>
<path d="M370.647 148.201L360 154.337V158.252L374.04 150.071L370.647 148.201Z" fill="#183A72"/>
<path d="M83.0721 288.161L43.1741 311.303L3.10059 288.161L43.1741 265.02L83.0721 288.161Z" fill="url(#paint23_linear_21_3768)"/>
<path d="M83.0718 288.161V333.626L43.1738 356.768V311.303L83.0718 288.161Z" fill="url(#paint24_linear_21_3768)"/>
<path d="M43.1741 311.303V356.768L3.10059 333.626V288.161L43.1741 311.303Z" fill="#0D2F65"/>
<path d="M61.3097 284.421L43.1158 294.999L24.8633 284.421L43.1158 273.902L61.3097 284.421Z" fill="#00C6FF"/>
<path d="M61.3102 284.421V287.285L43.1162 297.804V294.999L61.3102 284.421Z" fill="#0D2F65"/>
<path d="M43.1157 294.999V297.804L24.8633 287.285V284.421L43.1157 294.999Z" fill="#255385"/>
<path d="M70.1429 310.368V326.439L56.1025 334.562V318.55L70.1429 310.368Z" fill="url(#paint25_linear_21_3768)"/>
<path d="M70.1429 310.368V326.439L56.1025 334.562V318.55L70.1429 310.368Z" fill="#00C6FF"/>
<path d="M70.1431 310.368L66.75 312.355V324.51L70.1431 326.439V310.368Z" fill="#19468F"/>
<path d="M66.7498 324.51L56.1025 330.705V334.562L70.1429 326.439L66.7498 324.51Z" fill="#183A72"/>
<path d="M238.043 377.748L198.203 400.831L158.13 377.748L198.203 354.606L238.043 377.748Z" fill="url(#paint26_linear_21_3768)"/>
<path d="M238.043 377.748V423.213L198.203 446.297V400.831L238.043 377.748Z" fill="url(#paint27_linear_21_3768)"/>
<path d="M198.203 400.831V446.297L158.13 423.155V377.748L198.203 400.831Z" fill="#0D2F65"/>
<path d="M216.339 373.949L198.145 384.527L179.834 373.949L198.145 363.43L216.339 373.949Z" fill="#00C6FF"/>
<path d="M216.339 373.949V376.813L198.145 387.332V384.527L216.339 373.949Z" fill="#0D2F65"/>
<path d="M198.145 384.527V387.332L179.834 376.813V373.949L198.145 384.527Z" fill="#255385"/>
<path d="M538.857 24.8949L499.018 48.0367L458.944 24.8949L499.018 1.81165L538.857 24.8949Z" fill="url(#paint28_linear_21_3768)"/>
<path d="M538.857 24.8949V70.3602L499.018 93.502V48.0366L538.857 24.8949Z" fill="url(#paint29_linear_21_3768)"/>
<path d="M499.018 48.0366V93.502L458.944 70.3602V24.8949L499.018 48.0366Z" fill="#0D2F65"/>
<path d="M517.153 21.1548L498.959 31.7322L480.648 21.1548L498.959 10.6359L517.153 21.1548Z" fill="#00C6FF"/>
<path d="M517.153 21.1548V24.0183L498.959 34.5957V31.7322L517.153 21.1548Z" fill="#0D2F65"/>
<path d="M498.959 31.7322V34.5957L480.648 24.0183V21.1548L498.959 31.7322Z" fill="#255385"/>
<path d="M471.932 47.1016V63.1722L485.972 71.3536V55.283L471.932 47.1016Z" fill="url(#paint30_linear_21_3768)"/>
<path d="M471.932 47.1016V63.1722L485.972 71.3536V55.283L471.932 47.1016Z" fill="#00C6FF"/>
<path d="M471.932 47.1016L475.325 49.0885V61.2437L471.932 63.1722V47.1016Z" fill="#19468F"/>
<path d="M475.325 61.2439L485.972 67.4384V71.3538L471.932 63.1724L475.325 61.2439Z" fill="#183A72"/>
<path d="M226.04 400V416.071L212 424.194V408.181L226.04 400Z" fill="#00C6FF"/>
<path d="M226.041 400L222.647 401.987V414.142L226.041 416.071V400Z" fill="#19468F"/>
<path d="M222.647 414.142L212 420.337V424.194L226.04 416.071L222.647 414.142Z" fill="#183A72"/>
<path d="M53 142L155 201" stroke="url(#paint31_linear_21_3768)" stroke-width="3"/>
<path d="M205 54L307 113" stroke="url(#paint32_linear_21_3768)" stroke-width="3"/>
<path d="M83 288.5L182 231" stroke="url(#paint33_linear_21_3768)" stroke-width="3"/>
<path d="M235 200.5L334 143.5" stroke="url(#paint34_linear_21_3768)" stroke-width="3"/>
<path d="M387 113L486 55.5" stroke="url(#paint35_linear_21_3768)" stroke-width="3"/>
<path d="M360 142.5L462 202.5" stroke="url(#paint36_linear_21_3768)" stroke-width="3"/>
<path d="M390.5 290.5L489 233" stroke="url(#paint37_linear_21_3768)" stroke-width="3"/>
<path d="M207 230.5L310 290" stroke="url(#paint38_linear_21_3768)" stroke-width="3"/>
<path d="M56 319L158 378" stroke="url(#paint39_linear_21_3768)" stroke-width="3"/>
<path d="M212 408.5L313 467.5M238.5 378L337 320.5" stroke="url(#paint40_linear_21_3768)" stroke-width="3"/>
<path d="M362 320.5L465 379M393 467.5L492 410" stroke="url(#paint41_linear_21_3768)" stroke-width="3"/>
<path style="mix-blend-mode:screen" opacity="0.57" d="M127.844 166.18C128.325 149.039 111.483 134.664 90.2265 134.072C68.9704 133.48 51.3497 146.895 50.8695 164.036C50.3893 181.176 67.2315 195.551 88.4875 196.143C109.744 196.735 127.364 183.32 127.844 166.18Z" fill="url(#paint42_radial_21_3768)"/>
<path style="mix-blend-mode:screen" opacity="0.57" d="M183.844 198.18C184.325 181.039 167.483 166.664 146.226 166.072C124.97 165.48 107.35 178.895 106.869 196.036C106.389 213.176 123.231 227.551 144.488 228.143C165.744 228.735 183.364 215.32 183.844 198.18Z" fill="url(#paint43_radial_21_3768)"/>
<path style="mix-blend-mode:screen" opacity="0.57" d="M263.844 67.1795C264.325 50.039 247.483 35.664 226.226 35.072C204.97 34.48 187.35 47.8952 186.869 65.0358C186.389 82.1763 203.231 96.5514 224.488 97.1434C245.744 97.7354 263.364 84.32 263.844 67.1795Z" fill="url(#paint44_radial_21_3768)"/>
<path style="mix-blend-mode:screen" opacity="0.57" d="M328.844 105.18C329.325 88.039 312.483 73.664 291.226 73.072C269.97 72.48 252.35 85.8952 251.869 103.036C251.389 120.176 268.231 134.551 289.488 135.143C310.744 135.735 328.364 122.32 328.844 105.18Z" fill="url(#paint45_radial_21_3768)"/>
<path style="mix-blend-mode:screen" opacity="0.57" d="M321.844 175.18C322.325 158.039 305.483 143.664 284.226 143.072C262.97 142.48 245.35 155.895 244.869 173.036C244.389 190.176 261.231 204.551 282.488 205.143C303.744 205.735 321.364 192.32 321.844 175.18Z" fill="url(#paint46_radial_21_3768)"/>
<path style="mix-blend-mode:screen" opacity="0.57" d="M467.844 90.1795C468.325 73.039 451.483 58.664 430.226 58.072C408.97 57.48 391.35 70.8952 390.869 88.0358C390.389 105.176 407.231 119.551 428.488 120.143C449.744 120.735 467.364 107.32 467.844 90.1795Z" fill="url(#paint47_radial_21_3768)"/>
<path style="mix-blend-mode:screen" opacity="0.57" d="M457.844 178.18C458.325 161.039 441.483 146.664 420.226 146.072C398.97 145.48 381.35 158.895 380.869 176.036C380.389 193.176 397.231 207.551 418.488 208.143C439.744 208.735 457.364 195.32 457.844 178.18Z" fill="url(#paint48_radial_21_3768)"/>
<path style="mix-blend-mode:screen" opacity="0.57" d="M308.844 269.18C309.325 252.039 292.483 237.664 271.226 237.072C249.97 236.48 232.35 249.895 231.869 267.036C231.389 284.176 248.231 298.551 269.488 299.143C290.744 299.735 308.364 286.32 308.844 269.18Z" fill="url(#paint49_radial_21_3768)"/>
<path style="mix-blend-mode:screen" opacity="0.57" d="M147.844 352.18C148.325 335.039 131.483 320.664 110.226 320.072C88.9704 319.48 71.3497 332.895 70.8695 350.036C70.3893 367.176 87.2315 381.551 108.488 382.143C129.744 382.735 147.364 369.32 147.844 352.18Z" fill="url(#paint50_radial_21_3768)"/>
<path style="mix-blend-mode:screen" opacity="0.57" d="M319.844 355.18C320.325 338.039 303.483 323.664 282.226 323.072C260.97 322.48 243.35 335.895 242.869 353.036C242.389 370.176 259.231 384.551 280.488 385.143C301.744 385.735 319.364 372.32 319.844 355.18Z" fill="url(#paint51_radial_21_3768)"/>
<path style="mix-blend-mode:screen" opacity="0.57" d="M301.844 441.18C302.325 424.039 285.483 409.664 264.226 409.072C242.97 408.48 225.35 421.895 224.869 439.036C224.389 456.176 241.231 470.551 262.488 471.143C283.744 471.735 301.364 458.32 301.844 441.18Z" fill="url(#paint52_radial_21_3768)"/>
<path style="mix-blend-mode:screen" opacity="0.57" d="M470.844 446.18C471.325 429.039 454.483 414.664 433.226 414.072C411.97 413.48 394.35 426.895 393.869 444.036C393.389 461.176 410.231 475.551 431.488 476.143C452.744 476.735 470.364 463.32 470.844 446.18Z" fill="url(#paint53_radial_21_3768)"/>
<path style="mix-blend-mode:screen" opacity="0.57" d="M465.844 361.18C466.325 344.039 449.483 329.664 428.226 329.072C406.97 328.48 389.35 341.895 388.869 359.036C388.389 376.176 405.231 390.551 426.488 391.143C447.744 391.735 465.364 378.32 465.844 361.18Z" fill="url(#paint54_radial_21_3768)"/>
<path style="mix-blend-mode:screen" opacity="0.57" d="M473.844 266.18C474.325 249.039 457.483 234.664 436.226 234.072C414.97 233.48 397.35 246.895 396.869 264.036C396.389 281.176 413.231 295.551 434.488 296.143C455.744 296.735 473.364 283.32 473.844 266.18Z" fill="url(#paint55_radial_21_3768)"/>
<path style="mix-blend-mode:screen" opacity="0.57" d="M158.844 270.18C159.325 253.039 142.483 238.664 121.226 238.072C99.9704 237.48 82.3497 250.895 81.8695 268.036C81.3893 285.176 98.2315 299.551 119.488 300.143C140.744 300.735 158.364 287.32 158.844 270.18Z" fill="url(#paint56_radial_21_3768)"/>
</g>
<defs>
<linearGradient id="paint0_linear_21_3768" x1="155.029" y1="200.445" x2="235.001" y2="200.445" gradientUnits="userSpaceOnUse">
<stop stop-color="#1786A6"/>
<stop offset="1" stop-color="#373B94"/>
</linearGradient>
<linearGradient id="paint1_linear_21_3768" x1="195.103" y1="234.719" x2="235.001" y2="234.719" gradientUnits="userSpaceOnUse">
<stop stop-color="#1786A6"/>
<stop offset="1" stop-color="#373B94"/>
</linearGradient>
<linearGradient id="paint2_linear_21_3768" x1="182.057" y1="234.748" x2="168.017" y2="234.748" gradientUnits="userSpaceOnUse">
<stop stop-color="#8837FF"/>
<stop offset="1" stop-color="#590BFF"/>
</linearGradient>
<linearGradient id="paint3_linear_21_3768" x1="310.058" y1="289.973" x2="390.029" y2="289.973" gradientUnits="userSpaceOnUse">
<stop stop-color="#1786A6"/>
<stop offset="1" stop-color="#373B94"/>
</linearGradient>
<linearGradient id="paint4_linear_21_3768" x1="350.131" y1="324.276" x2="390.029" y2="324.276" gradientUnits="userSpaceOnUse">
<stop stop-color="#1786A6"/>
<stop offset="1" stop-color="#373B94"/>
</linearGradient>
<linearGradient id="paint5_linear_21_3768" x1="337.085" y1="324.277" x2="322.986" y2="324.277" gradientUnits="userSpaceOnUse">
<stop stop-color="#8837FF"/>
<stop offset="1" stop-color="#590BFF"/>
</linearGradient>
<linearGradient id="paint6_linear_21_3768" x1="465.087" y1="379.501" x2="545" y2="379.501" gradientUnits="userSpaceOnUse">
<stop stop-color="#1786A6"/>
<stop offset="1" stop-color="#373B94"/>
</linearGradient>
<linearGradient id="paint7_linear_21_3768" x1="505.102" y1="413.805" x2="545" y2="413.805" gradientUnits="userSpaceOnUse">
<stop stop-color="#1786A6"/>
<stop offset="1" stop-color="#373B94"/>
</linearGradient>
<linearGradient id="paint8_linear_21_3768" x1="492.115" y1="413.805" x2="478.016" y2="413.805" gradientUnits="userSpaceOnUse">
<stop stop-color="#8837FF"/>
<stop offset="1" stop-color="#590BFF"/>
</linearGradient>
<linearGradient id="paint9_linear_21_3768" x1="312.749" y1="467.393" x2="392.721" y2="467.393" gradientUnits="userSpaceOnUse">
<stop stop-color="#1786A6"/>
<stop offset="1" stop-color="#373B94"/>
</linearGradient>
<linearGradient id="paint10_linear_21_3768" x1="352.822" y1="501.697" x2="392.72" y2="501.697" gradientUnits="userSpaceOnUse">
<stop stop-color="#1786A6"/>
<stop offset="1" stop-color="#373B94"/>
</linearGradient>
<linearGradient id="paint11_linear_21_3768" x1="307.016" y1="112.67" x2="386.929" y2="112.67" gradientUnits="userSpaceOnUse">
<stop stop-color="#1786A6"/>
<stop offset="1" stop-color="#373B94"/>
</linearGradient>
<linearGradient id="paint12_linear_21_3768" x1="347.03" y1="146.973" x2="386.928" y2="146.973" gradientUnits="userSpaceOnUse">
<stop stop-color="#1786A6"/>
<stop offset="1" stop-color="#373B94"/>
</linearGradient>
<linearGradient id="paint13_linear_21_3768" x1="334.043" y1="146.973" x2="319.944" y2="146.973" gradientUnits="userSpaceOnUse">
<stop stop-color="#8837FF"/>
<stop offset="1" stop-color="#590BFF"/>
</linearGradient>
<linearGradient id="paint14_linear_21_3768" x1="461.986" y1="202.227" x2="541.958" y2="202.227" gradientUnits="userSpaceOnUse">
<stop stop-color="#1786A6"/>
<stop offset="1" stop-color="#373B94"/>
</linearGradient>
<linearGradient id="paint15_linear_21_3768" x1="502.06" y1="236.502" x2="541.958" y2="236.502" gradientUnits="userSpaceOnUse">
<stop stop-color="#1786A6"/>
<stop offset="1" stop-color="#373B94"/>
</linearGradient>
<linearGradient id="paint16_linear_21_3768" x1="489.014" y1="236.502" x2="474.974" y2="236.502" gradientUnits="userSpaceOnUse">
<stop stop-color="#8837FF"/>
<stop offset="1" stop-color="#590BFF"/>
</linearGradient>
<linearGradient id="paint17_linear_21_3768" x1="-5.95834e-07" y1="110.887" x2="79.9715" y2="110.887" gradientUnits="userSpaceOnUse">
<stop stop-color="#1786A6"/>
<stop offset="1" stop-color="#373B94"/>
</linearGradient>
<linearGradient id="paint18_linear_21_3768" x1="40.0732" y1="145.162" x2="79.9713" y2="145.162" gradientUnits="userSpaceOnUse">
<stop stop-color="#1786A6"/>
<stop offset="1" stop-color="#373B94"/>
</linearGradient>
<linearGradient id="paint19_linear_21_3768" x1="52.9443" y1="145.162" x2="67.0432" y2="145.162" gradientUnits="userSpaceOnUse">
<stop stop-color="#8837FF"/>
<stop offset="1" stop-color="#590BFF"/>
</linearGradient>
<linearGradient id="paint20_linear_21_3768" x1="151.929" y1="23.1417" x2="231.9" y2="23.1417" gradientUnits="userSpaceOnUse">
<stop stop-color="#1786A6"/>
<stop offset="1" stop-color="#373B94"/>
</linearGradient>
<linearGradient id="paint21_linear_21_3768" x1="192.002" y1="57.4453" x2="231.9" y2="57.4453" gradientUnits="userSpaceOnUse">
<stop stop-color="#1786A6"/>
<stop offset="1" stop-color="#373B94"/>
</linearGradient>
<linearGradient id="paint22_linear_21_3768" x1="204.931" y1="57.4453" x2="218.971" y2="57.4453" gradientUnits="userSpaceOnUse">
<stop stop-color="#8837FF"/>
<stop offset="1" stop-color="#590BFF"/>
</linearGradient>
<linearGradient id="paint23_linear_21_3768" x1="3.10059" y1="288.161" x2="83.0721" y2="288.161" gradientUnits="userSpaceOnUse">
<stop stop-color="#1786A6"/>
<stop offset="1" stop-color="#373B94"/>
</linearGradient>
<linearGradient id="paint24_linear_21_3768" x1="43.1738" y1="322.465" x2="83.0718" y2="322.465" gradientUnits="userSpaceOnUse">
<stop stop-color="#1786A6"/>
<stop offset="1" stop-color="#373B94"/>
</linearGradient>
<linearGradient id="paint25_linear_21_3768" x1="56.1025" y1="322.465" x2="70.1429" y2="322.465" gradientUnits="userSpaceOnUse">
<stop stop-color="#8837FF"/>
<stop offset="1" stop-color="#590BFF"/>
</linearGradient>
<linearGradient id="paint26_linear_21_3768" x1="158.13" y1="377.719" x2="238.043" y2="377.719" gradientUnits="userSpaceOnUse">
<stop stop-color="#1786A6"/>
<stop offset="1" stop-color="#373B94"/>
</linearGradient>
<linearGradient id="paint27_linear_21_3768" x1="198.203" y1="412.022" x2="238.043" y2="412.022" gradientUnits="userSpaceOnUse">
<stop stop-color="#1786A6"/>
<stop offset="1" stop-color="#373B94"/>
</linearGradient>
<linearGradient id="paint28_linear_21_3768" x1="458.944" y1="24.9242" x2="538.857" y2="24.9242" gradientUnits="userSpaceOnUse">
<stop stop-color="#1786A6"/>
<stop offset="1" stop-color="#373B94"/>
</linearGradient>
<linearGradient id="paint29_linear_21_3768" x1="499.018" y1="59.1984" x2="538.857" y2="59.1984" gradientUnits="userSpaceOnUse">
<stop stop-color="#1786A6"/>
<stop offset="1" stop-color="#373B94"/>
</linearGradient>
<linearGradient id="paint30_linear_21_3768" x1="485.972" y1="59.2568" x2="471.873" y2="59.2568" gradientUnits="userSpaceOnUse">
<stop stop-color="#8837FF"/>
<stop offset="1" stop-color="#590BFF"/>
</linearGradient>
<linearGradient id="paint31_linear_21_3768" x1="53" y1="171.5" x2="155" y2="171.5" gradientUnits="userSpaceOnUse">
<stop stop-color="#1786A6"/>
<stop offset="1" stop-color="#373B94"/>
</linearGradient>
<linearGradient id="paint32_linear_21_3768" x1="205" y1="83.5" x2="307" y2="83.5" gradientUnits="userSpaceOnUse">
<stop stop-color="#1786A6"/>
<stop offset="1" stop-color="#373B94"/>
</linearGradient>
<linearGradient id="paint33_linear_21_3768" x1="83" y1="259.75" x2="182" y2="259.75" gradientUnits="userSpaceOnUse">
<stop stop-color="#1786A6"/>
<stop offset="1" stop-color="#373B94"/>
</linearGradient>
<linearGradient id="paint34_linear_21_3768" x1="235" y1="172" x2="334" y2="172" gradientUnits="userSpaceOnUse">
<stop stop-color="#1786A6"/>
<stop offset="1" stop-color="#373B94"/>
</linearGradient>
<linearGradient id="paint35_linear_21_3768" x1="387" y1="84.25" x2="486" y2="84.25" gradientUnits="userSpaceOnUse">
<stop stop-color="#1786A6"/>
<stop offset="1" stop-color="#373B94"/>
</linearGradient>
<linearGradient id="paint36_linear_21_3768" x1="360" y1="172.5" x2="462" y2="172.5" gradientUnits="userSpaceOnUse">
<stop stop-color="#1786A6"/>
<stop offset="1" stop-color="#373B94"/>
</linearGradient>
<linearGradient id="paint37_linear_21_3768" x1="390.5" y1="261.75" x2="489" y2="261.75" gradientUnits="userSpaceOnUse">
<stop stop-color="#1786A6"/>
<stop offset="1" stop-color="#373B94"/>
</linearGradient>
<linearGradient id="paint38_linear_21_3768" x1="207" y1="260.25" x2="310" y2="260.25" gradientUnits="userSpaceOnUse">
<stop stop-color="#1786A6"/>
<stop offset="1" stop-color="#373B94"/>
</linearGradient>
<linearGradient id="paint39_linear_21_3768" x1="56" y1="348.5" x2="158" y2="348.5" gradientUnits="userSpaceOnUse">
<stop stop-color="#1786A6"/>
<stop offset="1" stop-color="#373B94"/>
</linearGradient>
<linearGradient id="paint40_linear_21_3768" x1="212" y1="394" x2="337" y2="394" gradientUnits="userSpaceOnUse">
<stop stop-color="#1786A6"/>
<stop offset="1" stop-color="#373B94"/>
</linearGradient>
<linearGradient id="paint41_linear_21_3768" x1="362" y1="394" x2="492" y2="394" gradientUnits="userSpaceOnUse">
<stop stop-color="#1786A6"/>
<stop offset="1" stop-color="#373B94"/>
</linearGradient>
<radialGradient id="paint42_radial_21_3768" cx="0" cy="0" r="1" gradientUnits="userSpaceOnUse" gradientTransform="translate(89.2585 164.197) rotate(1.59527) scale(38.5193 31.0563)">
<stop stop-color="#F2F2F2"/>
<stop offset="0.02" stop-color="#D1D1D1"/>
<stop offset="0.06" stop-color="#A5A5A5"/>
<stop offset="0.1" stop-color="#7E7E7E"/>
<stop offset="0.14" stop-color="#5C5C5C"/>
<stop offset="0.19" stop-color="#3F3F3F"/>
<stop offset="0.24" stop-color="#282828"/>
<stop offset="0.3" stop-color="#161616"/>
<stop offset="0.37" stop-color="#090909"/>
<stop offset="0.46" stop-color="#020202"/>
<stop offset="0.67"/>
</radialGradient>
<radialGradient id="paint43_radial_21_3768" cx="0" cy="0" r="1" gradientUnits="userSpaceOnUse" gradientTransform="translate(145.259 196.197) rotate(1.59527) scale(38.5193 31.0563)">
<stop stop-color="#F2F2F2"/>
<stop offset="0.02" stop-color="#D1D1D1"/>
<stop offset="0.06" stop-color="#A5A5A5"/>
<stop offset="0.1" stop-color="#7E7E7E"/>
<stop offset="0.14" stop-color="#5C5C5C"/>
<stop offset="0.19" stop-color="#3F3F3F"/>
<stop offset="0.24" stop-color="#282828"/>
<stop offset="0.3" stop-color="#161616"/>
<stop offset="0.37" stop-color="#090909"/>
<stop offset="0.46" stop-color="#020202"/>
<stop offset="0.67"/>
</radialGradient>
<radialGradient id="paint44_radial_21_3768" cx="0" cy="0" r="1" gradientUnits="userSpaceOnUse" gradientTransform="translate(225.259 65.1972) rotate(1.59527) scale(38.5193 31.0563)">
<stop stop-color="#F2F2F2"/>
<stop offset="0.02" stop-color="#D1D1D1"/>
<stop offset="0.06" stop-color="#A5A5A5"/>
<stop offset="0.1" stop-color="#7E7E7E"/>
<stop offset="0.14" stop-color="#5C5C5C"/>
<stop offset="0.19" stop-color="#3F3F3F"/>
<stop offset="0.24" stop-color="#282828"/>
<stop offset="0.3" stop-color="#161616"/>
<stop offset="0.37" stop-color="#090909"/>
<stop offset="0.46" stop-color="#020202"/>
<stop offset="0.67"/>
</radialGradient>
<radialGradient id="paint45_radial_21_3768" cx="0" cy="0" r="1" gradientUnits="userSpaceOnUse" gradientTransform="translate(290.259 103.197) rotate(1.59527) scale(38.5193 31.0563)">
<stop stop-color="#F2F2F2"/>
<stop offset="0.02" stop-color="#D1D1D1"/>
<stop offset="0.06" stop-color="#A5A5A5"/>
<stop offset="0.1" stop-color="#7E7E7E"/>
<stop offset="0.14" stop-color="#5C5C5C"/>
<stop offset="0.19" stop-color="#3F3F3F"/>
<stop offset="0.24" stop-color="#282828"/>
<stop offset="0.3" stop-color="#161616"/>
<stop offset="0.37" stop-color="#090909"/>
<stop offset="0.46" stop-color="#020202"/>
<stop offset="0.67"/>
</radialGradient>
<radialGradient id="paint46_radial_21_3768" cx="0" cy="0" r="1" gradientUnits="userSpaceOnUse" gradientTransform="translate(283.259 173.197) rotate(1.59527) scale(38.5193 31.0563)">
<stop stop-color="#F2F2F2"/>
<stop offset="0.02" stop-color="#D1D1D1"/>
<stop offset="0.06" stop-color="#A5A5A5"/>
<stop offset="0.1" stop-color="#7E7E7E"/>
<stop offset="0.14" stop-color="#5C5C5C"/>
<stop offset="0.19" stop-color="#3F3F3F"/>
<stop offset="0.24" stop-color="#282828"/>
<stop offset="0.3" stop-color="#161616"/>
<stop offset="0.37" stop-color="#090909"/>
<stop offset="0.46" stop-color="#020202"/>
<stop offset="0.67"/>
</radialGradient>
<radialGradient id="paint47_radial_21_3768" cx="0" cy="0" r="1" gradientUnits="userSpaceOnUse" gradientTransform="translate(429.259 88.1972) rotate(1.59527) scale(38.5193 31.0563)">
<stop stop-color="#F2F2F2"/>
<stop offset="0.02" stop-color="#D1D1D1"/>
<stop offset="0.06" stop-color="#A5A5A5"/>
<stop offset="0.1" stop-color="#7E7E7E"/>
<stop offset="0.14" stop-color="#5C5C5C"/>
<stop offset="0.19" stop-color="#3F3F3F"/>
<stop offset="0.24" stop-color="#282828"/>
<stop offset="0.3" stop-color="#161616"/>
<stop offset="0.37" stop-color="#090909"/>
<stop offset="0.46" stop-color="#020202"/>
<stop offset="0.67"/>
</radialGradient>
<radialGradient id="paint48_radial_21_3768" cx="0" cy="0" r="1" gradientUnits="userSpaceOnUse" gradientTransform="translate(419.259 176.197) rotate(1.59527) scale(38.5193 31.0563)">
<stop stop-color="#F2F2F2"/>
<stop offset="0.02" stop-color="#D1D1D1"/>
<stop offset="0.06" stop-color="#A5A5A5"/>
<stop offset="0.1" stop-color="#7E7E7E"/>
<stop offset="0.14" stop-color="#5C5C5C"/>
<stop offset="0.19" stop-color="#3F3F3F"/>
<stop offset="0.24" stop-color="#282828"/>
<stop offset="0.3" stop-color="#161616"/>
<stop offset="0.37" stop-color="#090909"/>
<stop offset="0.46" stop-color="#020202"/>
<stop offset="0.67"/>
</radialGradient>
<radialGradient id="paint49_radial_21_3768" cx="0" cy="0" r="1" gradientUnits="userSpaceOnUse" gradientTransform="translate(270.259 267.197) rotate(1.59527) scale(38.5193 31.0563)">
<stop stop-color="#F2F2F2"/>
<stop offset="0.02" stop-color="#D1D1D1"/>
<stop offset="0.06" stop-color="#A5A5A5"/>
<stop offset="0.1" stop-color="#7E7E7E"/>
<stop offset="0.14" stop-color="#5C5C5C"/>
<stop offset="0.19" stop-color="#3F3F3F"/>
<stop offset="0.24" stop-color="#282828"/>
<stop offset="0.3" stop-color="#161616"/>
<stop offset="0.37" stop-color="#090909"/>
<stop offset="0.46" stop-color="#020202"/>
<stop offset="0.67"/>
</radialGradient>
<radialGradient id="paint50_radial_21_3768" cx="0" cy="0" r="1" gradientUnits="userSpaceOnUse" gradientTransform="translate(109.259 350.197) rotate(1.59527) scale(38.5193 31.0563)">
<stop stop-color="#F2F2F2"/>
<stop offset="0.02" stop-color="#D1D1D1"/>
<stop offset="0.06" stop-color="#A5A5A5"/>
<stop offset="0.1" stop-color="#7E7E7E"/>
<stop offset="0.14" stop-color="#5C5C5C"/>
<stop offset="0.19" stop-color="#3F3F3F"/>
<stop offset="0.24" stop-color="#282828"/>
<stop offset="0.3" stop-color="#161616"/>
<stop offset="0.37" stop-color="#090909"/>
<stop offset="0.46" stop-color="#020202"/>
<stop offset="0.67"/>
</radialGradient>
<radialGradient id="paint51_radial_21_3768" cx="0" cy="0" r="1" gradientUnits="userSpaceOnUse" gradientTransform="translate(281.259 353.197) rotate(1.59527) scale(38.5193 31.0563)">
<stop stop-color="#F2F2F2"/>
<stop offset="0.02" stop-color="#D1D1D1"/>
<stop offset="0.06" stop-color="#A5A5A5"/>
<stop offset="0.1" stop-color="#7E7E7E"/>
<stop offset="0.14" stop-color="#5C5C5C"/>
<stop offset="0.19" stop-color="#3F3F3F"/>
<stop offset="0.24" stop-color="#282828"/>
<stop offset="0.3" stop-color="#161616"/>
<stop offset="0.37" stop-color="#090909"/>
<stop offset="0.46" stop-color="#020202"/>
<stop offset="0.67"/>
</radialGradient>
<radialGradient id="paint52_radial_21_3768" cx="0" cy="0" r="1" gradientUnits="userSpaceOnUse" gradientTransform="translate(263.259 439.197) rotate(1.59527) scale(38.5193 31.0563)">
<stop stop-color="#F2F2F2"/>
<stop offset="0.02" stop-color="#D1D1D1"/>
<stop offset="0.06" stop-color="#A5A5A5"/>
<stop offset="0.1" stop-color="#7E7E7E"/>
<stop offset="0.14" stop-color="#5C5C5C"/>
<stop offset="0.19" stop-color="#3F3F3F"/>
<stop offset="0.24" stop-color="#282828"/>
<stop offset="0.3" stop-color="#161616"/>
<stop offset="0.37" stop-color="#090909"/>
<stop offset="0.46" stop-color="#020202"/>
<stop offset="0.67"/>
</radialGradient>
<radialGradient id="paint53_radial_21_3768" cx="0" cy="0" r="1" gradientUnits="userSpaceOnUse" gradientTransform="translate(432.259 444.197) rotate(1.59527) scale(38.5193 31.0563)">
<stop stop-color="#F2F2F2"/>
<stop offset="0.02" stop-color="#D1D1D1"/>
<stop offset="0.06" stop-color="#A5A5A5"/>
<stop offset="0.1" stop-color="#7E7E7E"/>
<stop offset="0.14" stop-color="#5C5C5C"/>
<stop offset="0.19" stop-color="#3F3F3F"/>
<stop offset="0.24" stop-color="#282828"/>
<stop offset="0.3" stop-color="#161616"/>
<stop offset="0.37" stop-color="#090909"/>
<stop offset="0.46" stop-color="#020202"/>
<stop offset="0.67"/>
</radialGradient>
<radialGradient id="paint54_radial_21_3768" cx="0" cy="0" r="1" gradientUnits="userSpaceOnUse" gradientTransform="translate(427.259 359.197) rotate(1.59527) scale(38.5193 31.0563)">
<stop stop-color="#F2F2F2"/>
<stop offset="0.02" stop-color="#D1D1D1"/>
<stop offset="0.06" stop-color="#A5A5A5"/>
<stop offset="0.1" stop-color="#7E7E7E"/>
<stop offset="0.14" stop-color="#5C5C5C"/>
<stop offset="0.19" stop-color="#3F3F3F"/>
<stop offset="0.24" stop-color="#282828"/>
<stop offset="0.3" stop-color="#161616"/>
<stop offset="0.37" stop-color="#090909"/>
<stop offset="0.46" stop-color="#020202"/>
<stop offset="0.67"/>
</radialGradient>
<radialGradient id="paint55_radial_21_3768" cx="0" cy="0" r="1" gradientUnits="userSpaceOnUse" gradientTransform="translate(435.259 264.197) rotate(1.59527) scale(38.5193 31.0563)">
<stop stop-color="#F2F2F2"/>
<stop offset="0.02" stop-color="#D1D1D1"/>
<stop offset="0.06" stop-color="#A5A5A5"/>
<stop offset="0.1" stop-color="#7E7E7E"/>
<stop offset="0.14" stop-color="#5C5C5C"/>
<stop offset="0.19" stop-color="#3F3F3F"/>
<stop offset="0.24" stop-color="#282828"/>
<stop offset="0.3" stop-color="#161616"/>
<stop offset="0.37" stop-color="#090909"/>
<stop offset="0.46" stop-color="#020202"/>
<stop offset="0.67"/>
</radialGradient>
<radialGradient id="paint56_radial_21_3768" cx="0" cy="0" r="1" gradientUnits="userSpaceOnUse" gradientTransform="translate(120.259 268.197) rotate(1.59527) scale(38.5193 31.0563)">
<stop stop-color="#F2F2F2"/>
<stop offset="0.02" stop-color="#D1D1D1"/>
<stop offset="0.06" stop-color="#A5A5A5"/>
<stop offset="0.1" stop-color="#7E7E7E"/>
<stop offset="0.14" stop-color="#5C5C5C"/>
<stop offset="0.19" stop-color="#3F3F3F"/>
<stop offset="0.24" stop-color="#282828"/>
<stop offset="0.3" stop-color="#161616"/>
<stop offset="0.37" stop-color="#090909"/>
<stop offset="0.46" stop-color="#020202"/>
<stop offset="0.67"/>
</radialGradient>
<clipPath id="clip0_21_3768">
<rect width="545" height="536" fill="white"/>
</clipPath>
</defs>
</svg>
