<svg width="45" height="45" viewBox="0 0 45 45" fill="none" xmlns="http://www.w3.org/2000/svg">
<g clip-path="url(#clip0_21_3106)">
<path fill-rule="evenodd" clip-rule="evenodd" d="M0 4.5C0 3.30653 0.474106 2.16193 1.31802 1.31802C2.16193 0.474106 3.30653 0 4.5 0L40.5 0C41.6935 0 42.8381 0.474106 43.682 1.31802C44.5259 2.16193 45 3.30653 45 4.5V16.5L42.6 14.697C40.0003 12.7472 36.7845 11.8006 33.543 12.031C30.3015 12.2613 27.2519 13.6532 24.9541 15.9511C22.6562 18.2489 21.2643 21.2985 21.034 24.54C20.8036 27.7815 21.7502 30.9973 23.7 33.597L24 33.999V45H4.5C3.30653 45 2.16193 44.5259 1.31802 43.682C0.474106 42.8381 0 41.6935 0 40.5L0 4.5ZM24 15H9V12H24V15ZM9 24H18V21H9V24Z" fill="url(#paint0_linear_21_3106)"/>
<path fill-rule="evenodd" clip-rule="evenodd" d="M34.4996 15C32.4317 14.9997 30.4097 15.61 28.6873 16.7544C26.965 17.8988 25.6188 19.5262 24.8178 21.4327C24.0168 23.3391 23.7965 25.4396 24.1847 27.4708C24.5728 29.5019 25.552 31.3732 26.9996 32.85V43.5C26.9996 43.7786 27.0771 44.0516 27.2236 44.2886C27.37 44.5256 27.5796 44.7171 27.8287 44.8416C28.0779 44.9662 28.3568 45.019 28.6343 44.9939C28.9117 44.9689 29.1767 44.8671 29.3996 44.7L34.4996 40.875L39.5996 44.7C39.8224 44.8671 40.0874 44.9689 40.3648 44.9939C40.6423 45.019 40.9212 44.9662 41.1704 44.8416C41.4195 44.7171 41.6291 44.5256 41.7755 44.2886C41.922 44.0516 41.9996 43.7786 41.9996 43.5V32.85C43.4471 31.3732 44.4263 29.5019 44.8144 27.4708C45.2026 25.4396 44.9823 23.3391 44.1813 21.4327C43.3803 19.5262 42.0341 17.8988 40.3118 16.7544C38.5894 15.61 36.5674 14.9997 34.4996 15ZM29.9996 40.5V34.989C31.3646 35.637 32.8886 36 34.4996 36C36.1106 36 37.6346 35.64 38.9996 34.989V40.5L35.3996 37.8C35.1399 37.6053 34.8241 37.5 34.4996 37.5C34.175 37.5 33.8592 37.6053 33.5996 37.8L29.9996 40.5Z" fill="url(#paint1_linear_21_3106)"/>
</g>
<defs>
<linearGradient id="paint0_linear_21_3106" x1="-3.35276e-07" y1="22.5" x2="45" y2="22.5" gradientUnits="userSpaceOnUse">
<stop stop-color="#1786A6"/>
<stop offset="1" stop-color="#373B94"/>
</linearGradient>
<linearGradient id="paint1_linear_21_3106" x1="23.998" y1="30" x2="45.0011" y2="30" gradientUnits="userSpaceOnUse">
<stop stop-color="#1786A6"/>
<stop offset="1" stop-color="#373B94"/>
</linearGradient>
<clipPath id="clip0_21_3106">
<rect width="45" height="45" fill="white"/>
</clipPath>
</defs>
</svg>
