<svg width="102" height="99" viewBox="0 0 102 99" fill="none" xmlns="http://www.w3.org/2000/svg">
<g clip-path="url(#clip0_4_204)">
<path d="M9.94871 89.8066C9.91838 90.0432 9.86939 90.2474 9.79006 90.4144C9.71073 90.5884 9.60107 90.7253 9.46108 90.8389C9.32109 90.948 9.13677 91.0361 8.90811 91.1011C8.67946 91.166 8.40181 91.2055 8.0775 91.2287C7.75318 91.2542 7.36588 91.2681 6.9179 91.2681H4.22307C3.70977 91.2681 3.27813 91.2542 2.93048 91.224C2.57817 91.1892 2.28886 91.1289 2.06021 91.0408C1.83155 90.9456 1.65656 90.8181 1.5329 90.6441C1.41391 90.4701 1.32292 90.2427 1.26925 89.962C1.20859 89.679 1.18059 89.3334 1.16893 88.9228C1.15959 88.5075 1.15493 88.0181 1.15493 87.4427C1.15493 86.8697 1.15493 86.3733 1.16426 85.9627C1.17359 85.5475 1.20393 85.2018 1.25992 84.9188C1.32058 84.6358 1.40925 84.4084 1.5329 84.2368C1.65656 84.0697 1.83155 83.9352 2.06021 83.8401C2.28886 83.7519 2.57817 83.6916 2.93048 83.6615C3.27813 83.6313 3.7121 83.6174 4.22307 83.6174H6.92024C7.49653 83.6174 7.9795 83.6383 8.37381 83.6777C8.76112 83.7171 9.08077 83.8053 9.31875 83.9491C9.55674 84.0929 9.73173 84.3064 9.83672 84.5824C9.94172 84.8654 9.99071 85.2412 9.99071 85.7191H11.1456C11.1456 85.3688 11.12 85.0464 11.0756 84.7634C11.0266 84.4757 10.9403 84.2182 10.8167 83.9909C10.6977 83.7635 10.532 83.5663 10.329 83.397C10.126 83.23 9.86705 83.0908 9.55207 82.9818C9.23942 82.8727 8.86611 82.7939 8.43214 82.7405C8.00517 82.6871 7.49653 82.657 6.92024 82.657H4.22307C3.51611 82.657 2.92348 82.7011 2.44285 82.7846C1.95988 82.8727 1.56324 83.0026 1.24826 83.1743C0.935608 83.3483 0.69529 83.564 0.522634 83.8262C0.354645 84.0883 0.228652 84.3992 0.15399 84.7518C0.074662 85.109 0.0303314 85.508 0.0139991 85.9534C0.00466638 86.3988 0 86.893 0 87.4381C0 87.9763 0.00466638 88.4727 0.0139991 88.9181C0.0279983 89.3635 0.074662 89.7649 0.15399 90.1198C0.228652 90.477 0.352311 90.7833 0.522634 91.0454C0.697623 91.3075 0.935608 91.5256 1.24826 91.6973C1.5609 91.8712 1.95988 92.0035 2.44285 92.087C2.92582 92.1705 3.51845 92.2146 4.22307 92.2146H6.92024C7.49653 92.2146 8.00517 92.1844 8.43214 92.1357C8.86611 92.0824 9.23709 91.9965 9.55207 91.8828C9.86472 91.7692 10.1237 91.6254 10.329 91.4467C10.532 91.2727 10.6977 91.0663 10.8167 90.8227C10.9403 90.5814 11.0266 90.3077 11.0756 89.9968C11.12 89.6906 11.1456 89.345 11.1456 88.9622H9.99071C9.98838 89.2916 9.97438 89.57 9.94871 89.8066Z" fill="white"/>
<path d="M22.6811 82.8565V86.8721H14.2233V82.8565H13.0684V92.0313H14.2233V87.8278H22.6811V92.0313H23.836V82.8565H22.6811Z" fill="white"/>
<path d="M32.296 82.8565H30.6394L25.3711 92.0313H26.7103L27.9143 89.9296L28.4626 88.9738L31.533 83.6128L34.5872 88.9738L35.1355 89.9296L36.3347 92.0313H37.548L32.296 82.8565Z" fill="white"/>
<path d="M39.2163 82.8565V92.0313H40.3712V82.8565H39.2163Z" fill="white"/>
<path d="M53.1617 82.8565V90.8853L44.7039 82.8565H42.6787V92.0313H43.8336V83.8099L52.7791 92.0313H54.3167V82.8565H53.1617Z" fill="white"/>
<path d="M60.4694 91.0779V82.8565H59.3145V92.0313H67.7769V91.0756H60.4694V91.0779Z" fill="white"/>
<path d="M70.4694 87.8278H78.1596V86.8721H69.3145V92.0313H78.5422V91.0779H70.4694V87.8278Z" fill="white"/>
<path d="M78.5422 82.8565H69.3145V83.8123H78.5422V82.8565Z" fill="url(#paint0_linear_4_204)"/>
<path d="M86.2347 82.8565H84.5781L79.3145 92.0313H80.6467L81.8506 89.9296L82.3989 88.9738L85.4694 83.6128L88.5282 88.9738L89.0695 89.9296L90.2734 92.0313H91.482L86.2347 82.8565Z" fill="white"/>
<path d="M102 83.8123V82.8565H93.1548V92.0313H94.3097V87.8278H101.617V86.8721H94.3074V83.8099H102V83.8123Z" fill="white"/>
<path d="M51.2745 17.9112C51.9884 17.9112 52.5671 17.3358 52.5671 16.6261C52.5671 15.9163 51.9884 15.3409 51.2745 15.3409C50.5606 15.3409 49.9819 15.9163 49.9819 16.6261C49.9819 17.3358 50.5606 17.9112 51.2745 17.9112Z" fill="url(#paint1_linear_4_204)"/>
<path d="M62.4014 40.3344L51.7224 58.3292V18.8554C52.77 18.6489 53.5609 17.728 53.5609 16.626C53.5609 15.3733 52.5366 14.355 51.2767 14.355C50.0168 14.355 48.9925 15.3733 48.9925 16.626C48.9925 17.6908 49.7345 18.5863 50.7308 18.8299V58.3269L40.0518 40.4319L51.2744 0L62.4014 40.3344Z" fill="url(#paint2_linear_4_204)"/>
<path d="M25.2452 46.9528C25.9591 46.9528 26.5378 46.3775 26.5378 45.6677C26.5378 44.9579 25.9591 44.3825 25.2452 44.3825C24.5313 44.3825 23.9526 44.9579 23.9526 45.6677C23.9526 46.3775 24.5313 46.9528 25.2452 46.9528Z" fill="url(#paint3_linear_4_204)"/>
<path d="M69.7531 69.0791C69.0858 69.0791 68.4839 69.3645 68.0662 69.8191L51.7712 60.4958L51.2743 60.2105L50.7773 60.4958L34.4823 69.8191C34.0647 69.3645 33.4627 69.0791 32.7954 69.0791C31.5355 69.0791 30.5112 70.0975 30.5112 71.3502C30.5112 72.6029 31.5355 73.6213 32.7954 73.6213C34.0553 73.6213 35.0796 72.6029 35.0796 71.3502C35.0796 71.1159 35.0446 70.8909 34.977 70.6775L50.7773 61.6326V75.6488C49.7554 75.8762 48.9901 76.7855 48.9901 77.8665C48.9901 79.1192 50.0144 80.1376 51.2743 80.1376C52.5342 80.1376 53.5585 79.1192 53.5585 77.8665C53.5585 76.7832 52.7908 75.8762 51.7712 75.6488V61.6326L67.5716 70.6775C67.5039 70.8886 67.4689 71.1136 67.4689 71.3502C67.4689 72.6029 68.4932 73.6213 69.7531 73.6213C71.013 73.6213 72.0373 72.6029 72.0373 71.3502C72.0373 70.0975 71.013 69.0791 69.7531 69.0791ZM32.7954 72.6354C32.0838 72.6354 31.5028 72.0578 31.5028 71.3502C31.5028 70.6427 32.0838 70.065 32.7954 70.065C33.507 70.065 34.088 70.6427 34.088 71.3502C34.088 72.0578 33.507 72.6354 32.7954 72.6354ZM52.5669 77.8689C52.5669 78.5764 51.9859 79.154 51.2743 79.154C50.5627 79.154 49.9817 78.5764 49.9817 77.8689C49.9817 77.1613 50.5627 76.5837 51.2743 76.5837C51.9859 76.586 52.5669 77.1613 52.5669 77.8689ZM69.7531 72.6354C69.0415 72.6354 68.4605 72.0578 68.4605 71.3502C68.4605 70.6427 69.0415 70.065 69.7531 70.065C70.4647 70.065 71.0457 70.6427 71.0457 71.3502C71.0457 72.0578 70.4647 72.6354 69.7531 72.6354Z" fill="url(#paint4_linear_4_204)"/>
<path d="M45.4693 58.016L26.7502 47.3727C26.3489 47.7253 25.8216 47.9388 25.2453 47.9388C23.9853 47.9388 22.9611 46.9204 22.9611 45.6677C22.9611 44.415 23.9853 43.3966 25.2453 43.3966C26.5052 43.3966 27.5295 44.415 27.5295 45.6677C27.5295 45.9901 27.4618 46.294 27.3381 46.5724L46.1856 57.2852L47.9402 58.2828L33.6214 34.4236C34.0297 34.013 34.284 33.4493 34.284 32.8252C34.284 31.5725 33.2598 30.5541 31.9998 30.5541C30.7399 30.5541 29.7157 31.5725 29.7157 32.8252C29.7157 34.0779 30.7399 35.0963 31.9998 35.0963C32.2752 35.0963 32.5388 35.0453 32.7838 34.9548L37.3662 42.587L13.521 39.1444L28.8174 58.0114H22.1608C22.1071 56.8051 21.1062 55.8377 19.8813 55.8377C18.6213 55.8377 17.5971 56.8561 17.5971 58.1088C17.5971 59.3615 18.6213 60.3799 19.8813 60.3799C20.8239 60.3799 21.6358 59.8092 21.9835 58.9973H47.2052L45.4693 58.016ZM30.7096 32.8252C30.7096 32.1177 31.2882 31.5401 32.0022 31.5401C32.7161 31.5401 33.2948 32.1154 33.2948 32.8252C33.2948 33.5328 32.7161 34.1104 32.0022 34.1104C31.2882 34.1104 30.7096 33.5351 30.7096 32.8252ZM19.8813 59.3986C19.1696 59.3986 18.5887 58.8233 18.5887 58.1134C18.5887 57.4036 19.1673 56.8282 19.8813 56.8282C20.5929 56.8282 21.1739 57.4036 21.1739 58.1134C21.1739 58.8233 20.5929 59.3986 19.8813 59.3986Z" fill="url(#paint5_linear_4_204)"/>
<path d="M76.7525 47.1501C77.4664 47.1501 78.0451 46.5747 78.0451 45.8649C78.0451 45.1551 77.4664 44.5797 76.7525 44.5797C76.0387 44.5797 75.46 45.1551 75.46 45.8649C75.46 46.5747 76.0387 47.1501 76.7525 47.1501Z" fill="url(#paint6_linear_4_204)"/>
<path d="M54.793 59.2014H80.0147C80.3624 60.0134 81.1743 60.584 82.1169 60.584C83.3769 60.584 84.4011 59.5656 84.4011 58.3129C84.4011 57.0602 83.3769 56.0419 82.1169 56.0419C80.8897 56.0419 79.8887 57.0092 79.8374 58.2155H73.1808L88.4772 39.3485L64.632 42.7911L69.2144 35.159C69.4594 35.2494 69.723 35.3005 69.9983 35.3005C71.2583 35.3005 72.2825 34.2821 72.2825 33.0294C72.2825 31.7767 71.2583 30.7583 69.9983 30.7583C68.7384 30.7583 67.7142 31.7767 67.7142 33.0294C67.7142 33.6511 67.9685 34.2171 68.3768 34.6277L54.0557 58.4823L55.8102 57.4848L74.6577 46.7719C74.5341 46.4935 74.4664 46.1896 74.4664 45.8672C74.4664 44.6145 75.4907 43.5961 76.7506 43.5961C78.0105 43.5961 79.0348 44.6145 79.0348 45.8672C79.0348 47.1199 78.0105 48.1383 76.7506 48.1383C76.1743 48.1383 75.647 47.9225 75.2457 47.5722L56.5265 58.2155L54.793 59.2014ZM69.9983 34.3076C69.2867 34.3076 68.7058 33.7323 68.7058 33.0224C68.7058 32.3149 69.2844 31.7373 69.9983 31.7373C70.7123 31.7373 71.2909 32.3126 71.2909 33.0224C71.2909 33.7323 70.71 34.3076 69.9983 34.3076ZM80.8267 58.3106C80.8267 57.6031 81.4053 57.0255 82.1193 57.0255C82.8309 57.0255 83.4118 57.6008 83.4118 58.3106C83.4118 59.0182 82.8332 59.5958 82.1193 59.5958C81.4076 59.5958 80.8267 59.0205 80.8267 58.3106Z" fill="url(#paint7_linear_4_204)"/>
<path d="M79.6387 98.9095V95.0656H80.1216V98.5105H83.1828V98.9119H79.6387V98.9095Z" fill="white"/>
<path d="M85.8334 97.6267L87.1166 95.3811L88.3999 97.6267L88.6285 98.028L89.1302 98.9142H89.6365L87.4386 95.0656H86.741L84.5361 98.9142H85.0938L85.6001 98.028" fill="white"/>
<path d="M91.3701 98.9095V95.0656H94.5946C94.8372 95.0656 95.0309 95.0842 95.1779 95.1236C95.3249 95.163 95.4392 95.221 95.5185 95.2953C95.5979 95.3718 95.6515 95.4669 95.6795 95.5783C95.7052 95.692 95.7192 95.8219 95.7192 95.968C95.7192 96.0747 95.7099 96.1698 95.6912 96.251C95.6725 96.3322 95.6492 96.4041 95.6189 96.4645C95.5885 96.5248 95.5535 96.5758 95.5162 96.6152C95.4765 96.657 95.4392 96.6895 95.3972 96.7173C95.3039 96.78 95.1965 96.8171 95.0752 96.824C95.2269 96.8333 95.3599 96.8681 95.4789 96.9331C95.5302 96.9609 95.5792 96.998 95.6259 97.0398C95.6749 97.0815 95.7168 97.1349 95.7542 97.1975C95.7915 97.2601 95.8218 97.3344 95.8452 97.4179C95.8685 97.5014 95.8802 97.5988 95.8802 97.7102C95.8802 97.8447 95.8732 97.9654 95.8615 98.0767C95.8498 98.1881 95.8242 98.2878 95.7845 98.376C95.7448 98.4641 95.6912 98.543 95.6189 98.608C95.5465 98.6752 95.4509 98.7309 95.3295 98.775C95.2105 98.8191 95.0636 98.8515 94.8886 98.8747C94.7159 98.8956 94.5083 98.9072 94.2656 98.9072H91.3701V98.9095ZM94.1069 96.6663C94.2703 96.6663 94.4126 96.664 94.5316 96.657C94.6506 96.65 94.7532 96.6384 94.8372 96.6199C94.9212 96.6013 94.9889 96.5758 95.0402 96.5433C95.0916 96.5109 95.1335 96.4691 95.1615 96.4181C95.1919 96.367 95.2105 96.3044 95.2199 96.2325C95.2292 96.1606 95.2339 96.0724 95.2339 95.9727C95.2339 95.8659 95.2222 95.7801 95.1989 95.7128C95.1755 95.6456 95.1336 95.5945 95.0729 95.5597C95.0122 95.5226 94.9306 95.4994 94.8279 95.4878C94.7252 95.4762 94.5923 95.4693 94.4313 95.4693H91.8508V96.6709H94.1069V96.6663ZM94.1069 98.5105C94.2959 98.5105 94.4569 98.5082 94.5946 98.5012C94.7322 98.4943 94.8489 98.4827 94.9446 98.4641C95.0402 98.4456 95.1172 98.4177 95.1756 98.3806C95.2339 98.3458 95.2805 98.2971 95.3132 98.2368C95.3459 98.1765 95.3692 98.1046 95.3809 98.021C95.3925 97.9352 95.3972 97.8331 95.3972 97.7125C95.3972 97.6197 95.3925 97.5385 95.3809 97.4689C95.3692 97.3993 95.3459 97.3413 95.3132 97.2926C95.2805 97.2439 95.2339 97.2068 95.1756 97.1766C95.1172 97.1488 95.0402 97.1256 94.9446 97.107C94.8489 97.0908 94.7322 97.0792 94.5946 97.0722C94.4569 97.0676 94.2936 97.063 94.1069 97.063H91.8531V98.5059H94.1069V98.5105Z" fill="white"/>
<path d="M100.154 96.7475C100.42 96.7475 100.647 96.7591 100.836 96.78C101.025 96.8008 101.186 96.8333 101.316 96.8774C101.447 96.9191 101.549 96.9725 101.626 97.0375C101.703 97.1001 101.764 97.1743 101.806 97.2555C101.848 97.3367 101.876 97.4272 101.888 97.5293C101.899 97.629 101.906 97.738 101.906 97.8563C101.906 97.9723 101.897 98.0814 101.876 98.1834C101.855 98.2855 101.818 98.3783 101.764 98.4641C101.71 98.55 101.638 98.6242 101.545 98.6915C101.451 98.7588 101.335 98.8144 101.193 98.8608C101.05 98.9072 100.878 98.942 100.677 98.9675C100.476 98.9907 100.241 99.0047 99.9723 99.0047H99.3283C99.0856 99.0047 98.8757 98.9954 98.6937 98.9768C98.5117 98.9583 98.3554 98.9304 98.2247 98.8933C98.094 98.8562 97.9867 98.8075 97.9004 98.7495C97.8141 98.6915 97.7464 98.6242 97.6951 98.5477C97.6437 98.4688 97.6087 98.3806 97.5877 98.2832C97.5667 98.1834 97.5574 98.0744 97.5574 97.9538H98.0404C98.0404 98.1069 98.0614 98.2252 98.1057 98.3134C98.15 98.3992 98.2224 98.4641 98.3227 98.5082C98.423 98.5523 98.556 98.5778 98.7193 98.5894C98.8827 98.601 99.0856 98.6056 99.3283 98.6056H99.9723C100.255 98.6056 100.488 98.5917 100.675 98.5662C100.861 98.5384 101.011 98.4966 101.12 98.4386C101.23 98.3806 101.309 98.3018 101.354 98.209C101.398 98.1139 101.421 97.9979 101.421 97.8633C101.421 97.7264 101.405 97.6128 101.374 97.5223C101.344 97.4318 101.281 97.3599 101.19 97.3066C101.099 97.2532 100.971 97.2138 100.803 97.1929C100.637 97.1697 100.42 97.1581 100.152 97.1581H99.4869C99.1906 97.1581 98.9387 97.1465 98.7287 97.1256C98.5187 97.1047 98.3414 97.0723 98.199 97.0328C98.0567 96.9911 97.9424 96.9423 97.8561 96.8797C97.7697 96.8194 97.7044 96.7498 97.6601 96.6709C97.6157 96.5921 97.5877 96.5062 97.5737 96.4088C97.5597 96.3137 97.5527 96.2093 97.5527 96.0979C97.5527 95.9819 97.5621 95.8729 97.5831 95.7732C97.6041 95.6734 97.6437 95.5829 97.6997 95.5017C97.7557 95.4206 97.8351 95.3486 97.933 95.286C98.031 95.2234 98.1594 95.17 98.3134 95.1259C98.4673 95.0819 98.6563 95.0517 98.8733 95.0285C99.0903 95.0076 99.3493 94.996 99.6433 94.996H100.126C100.369 94.996 100.579 95.0053 100.761 95.0215C100.943 95.0401 101.099 95.0656 101.23 95.1051C101.361 95.1422 101.47 95.1886 101.556 95.2443C101.643 95.2999 101.713 95.3672 101.762 95.4438C101.813 95.5203 101.848 95.6085 101.869 95.7082C101.89 95.8056 101.899 95.917 101.899 96.0353H101.417C101.417 95.8845 101.396 95.7685 101.351 95.6827C101.307 95.5969 101.235 95.5342 101.134 95.4902C101.034 95.4484 100.901 95.4206 100.735 95.409C100.572 95.3974 100.367 95.3927 100.126 95.3927H99.6433C99.3213 95.3927 99.0553 95.4043 98.8477 95.4275C98.64 95.4507 98.4743 95.4878 98.3554 95.5412C98.234 95.5945 98.15 95.6665 98.1034 95.7569C98.0567 95.8474 98.0334 95.9587 98.0334 96.0956C98.0334 96.1791 98.0404 96.2534 98.052 96.3183C98.0637 96.3833 98.087 96.4413 98.1244 96.49C98.1617 96.5387 98.2107 96.5805 98.276 96.6129C98.3414 96.6454 98.4277 96.6732 98.535 96.6964C98.6423 96.7173 98.773 96.7336 98.9293 96.7428C99.0856 96.7521 99.27 96.7568 99.4846 96.7568H100.154V96.7475Z" fill="white"/>
<path d="M78.6589 94.9844H0.0561523V95.4785H78.6589V94.9844Z" fill="white"/>
</g>
<defs>
<linearGradient id="paint0_linear_4_204" x1="69.3144" y1="83.3342" x2="78.5427" y2="83.3342" gradientUnits="userSpaceOnUse">
<stop stop-color="#373B94"/>
<stop offset="1" stop-color="#0CB2C5"/>
</linearGradient>
<linearGradient id="paint1_linear_4_204" x1="49.9835" y1="16.6265" x2="52.5666" y2="16.6265" gradientUnits="userSpaceOnUse">
<stop stop-color="#373B94"/>
<stop offset="1" stop-color="#0CB2C5"/>
</linearGradient>
<linearGradient id="paint2_linear_4_204" x1="51.2252" y1="5.96041" x2="51.2252" y2="71.1385" gradientUnits="userSpaceOnUse">
<stop stop-color="#373B94"/>
<stop offset="1" stop-color="#0CB2C5"/>
</linearGradient>
<linearGradient id="paint3_linear_4_204" x1="25.2453" y1="5.96046" x2="25.2453" y2="71.1384" gradientUnits="userSpaceOnUse">
<stop stop-color="#373B94"/>
<stop offset="1" stop-color="#0CB2C5"/>
</linearGradient>
<linearGradient id="paint4_linear_4_204" x1="51.2748" y1="5.96037" x2="51.2748" y2="71.1384" gradientUnits="userSpaceOnUse">
<stop stop-color="#373B94"/>
<stop offset="1" stop-color="#0CB2C5"/>
</linearGradient>
<linearGradient id="paint5_linear_4_204" x1="30.7324" y1="5.9604" x2="30.7324" y2="71.1385" gradientUnits="userSpaceOnUse">
<stop stop-color="#373B94"/>
<stop offset="1" stop-color="#0CB2C5"/>
</linearGradient>
<linearGradient id="paint6_linear_4_204" x1="76.7537" y1="6.15798" x2="76.7537" y2="71.336" gradientUnits="userSpaceOnUse">
<stop stop-color="#373B94"/>
<stop offset="1" stop-color="#0CB2C5"/>
</linearGradient>
<linearGradient id="paint7_linear_4_204" x1="71.267" y1="5.96042" x2="71.267" y2="71.1385" gradientUnits="userSpaceOnUse">
<stop stop-color="#373B94"/>
<stop offset="1" stop-color="#0CB2C5"/>
</linearGradient>
<clipPath id="clip0_4_204">
<rect width="102" height="99" fill="white"/>
</clipPath>
</defs>
</svg>
