<svg width="150" height="160" viewBox="0 0 150 160" fill="none" xmlns="http://www.w3.org/2000/svg">
<path d="M75.5432 35.6416C76.957 35.6416 78.1031 34.4966 78.1031 33.0842C78.1031 31.6718 76.957 30.5269 75.5432 30.5269C74.1295 30.5269 72.9834 31.6718 72.9834 33.0842C72.9834 34.4966 74.1295 35.6416 75.5432 35.6416Z" fill="white"/>
<path d="M97.5784 80.2615L76.4298 116.069V37.5203C78.5044 37.1094 80.0708 35.2768 80.0708 33.0841C80.0708 30.5914 78.0424 28.5649 75.5472 28.5649C73.0521 28.5649 71.0236 30.5914 71.0236 33.0841C71.0236 35.203 72.493 36.9848 74.466 37.4695V116.065L53.3174 80.4554L75.5426 0L97.5784 80.2615Z" fill="white"/>
<path d="M23.9954 93.4316C25.4091 93.4316 26.5552 92.2866 26.5552 90.8743C26.5552 89.4619 25.4091 88.3169 23.9954 88.3169C22.5816 88.3169 21.4355 89.4619 21.4355 90.8743C21.4355 92.2866 22.5816 93.4316 23.9954 93.4316Z" fill="white"/>
<path d="M112.138 137.461C110.817 137.461 109.625 138.028 108.797 138.933L76.527 120.381L75.5428 119.813L74.5586 120.381L42.2881 138.933C41.461 138.028 40.2689 137.461 38.9474 137.461C36.4523 137.461 34.4238 139.487 34.4238 141.98C34.4238 144.473 36.4523 146.499 38.9474 146.499C41.4426 146.499 43.471 144.473 43.471 141.98C43.471 141.514 43.4017 141.066 43.2677 140.641L74.5586 122.643V150.534C72.5348 150.986 71.0192 152.796 71.0192 154.947C71.0192 157.439 73.0477 159.466 75.5428 159.466C78.0379 159.466 80.0664 157.439 80.0664 154.947C80.0664 152.791 78.5462 150.986 76.527 150.534V122.643L107.818 140.641C107.684 141.061 107.615 141.509 107.615 141.98C107.615 144.473 109.643 146.499 112.138 146.499C114.633 146.499 116.662 144.473 116.662 141.98C116.662 139.487 114.633 137.461 112.138 137.461ZM38.9474 144.537C37.5381 144.537 36.3876 143.388 36.3876 141.98C36.3876 140.572 37.5381 139.423 38.9474 139.423C40.3567 139.423 41.5073 140.572 41.5073 141.98C41.5073 143.388 40.3567 144.537 38.9474 144.537ZM78.1026 154.951C78.1026 156.359 76.9521 157.509 75.5428 157.509C74.1335 157.509 72.983 156.359 72.983 154.951C72.983 153.543 74.1335 152.394 75.5428 152.394C76.9521 152.399 78.1026 153.543 78.1026 154.951ZM112.138 144.537C110.729 144.537 109.578 143.388 109.578 141.98C109.578 140.572 110.729 139.423 112.138 139.423C113.547 139.423 114.698 140.572 114.698 141.98C114.698 143.388 113.547 144.537 112.138 144.537Z" fill="white"/>
<path d="M64.0466 115.446L26.9753 94.2671C26.1806 94.9688 25.1363 95.3934 23.995 95.3934C21.4999 95.3934 19.4714 93.3669 19.4714 90.8742C19.4714 88.3815 21.4999 86.355 23.995 86.355C26.4902 86.355 28.5186 88.3815 28.5186 90.8742C28.5186 91.5158 28.3846 92.1206 28.1397 92.6745L65.4652 113.992L68.9399 115.977L40.5831 68.4996C41.3917 67.6825 41.8953 66.5608 41.8953 65.319C41.8953 62.8263 39.8669 60.7998 37.3717 60.7998C34.8766 60.7998 32.8481 62.8263 32.8481 65.319C32.8481 67.8118 34.8766 69.8383 37.3717 69.8383C37.917 69.8383 38.4391 69.7367 38.9243 69.5567L47.9992 84.7439L0.776367 77.8935L31.0692 115.437H17.8866C17.7803 113.036 15.798 111.112 13.3722 111.112C10.8771 111.112 8.8486 113.138 8.8486 115.631C8.8486 118.123 10.8771 120.15 13.3722 120.15C15.2389 120.15 16.8469 119.014 17.5354 117.399H67.4844L64.0466 115.446ZM34.8165 65.319C34.8165 63.9111 35.9625 62.7617 37.3764 62.7617C38.7903 62.7617 39.9362 63.9065 39.9362 65.319C39.9362 66.727 38.7903 67.8764 37.3764 67.8764C35.9625 67.8764 34.8165 66.7316 34.8165 65.319ZM13.3722 118.197C11.9629 118.197 10.8124 117.053 10.8124 115.64C10.8124 114.227 11.9583 113.083 13.3722 113.083C14.7815 113.083 15.932 114.227 15.932 115.64C15.932 117.053 14.7815 118.197 13.3722 118.197Z" fill="white"/>
<path d="M126 93.8237C127.414 93.8237 128.56 92.6787 128.56 91.2664C128.56 89.854 127.414 88.709 126 88.709C124.586 88.709 123.44 89.854 123.44 91.2664C123.44 92.6787 124.586 93.8237 126 93.8237Z" fill="white"/>
<path d="M82.5109 117.805H132.46C133.148 119.421 134.756 120.556 136.623 120.556C139.118 120.556 141.147 118.53 141.147 116.037C141.147 113.544 139.118 111.518 136.623 111.518C134.193 111.518 132.21 113.443 132.109 115.843H118.926L149.219 78.2998L101.996 85.1502L111.071 69.9629C111.556 70.143 112.078 70.2445 112.624 70.2445C115.119 70.2445 117.147 68.218 117.147 65.7253C117.147 63.2326 115.119 61.2061 112.624 61.2061C110.128 61.2061 108.1 63.2326 108.1 65.7253C108.1 66.9624 108.604 68.0888 109.412 68.9058L81.0508 116.374L84.5255 114.389L121.851 93.0715C121.606 92.5176 121.472 91.9129 121.472 91.2712C121.472 88.7785 123.5 86.752 125.996 86.752C128.491 86.752 130.519 88.7785 130.519 91.2712C130.519 93.764 128.491 95.7905 125.996 95.7905C124.854 95.7905 123.81 95.3612 123.015 94.6641L85.944 115.843L82.5109 117.805ZM112.624 68.2688C111.214 68.2688 110.064 67.124 110.064 65.7114C110.064 64.3035 111.21 63.1541 112.624 63.1541C114.037 63.1541 115.183 64.2989 115.183 65.7114C115.183 67.124 114.033 68.2688 112.624 68.2688ZM134.068 116.032C134.068 114.624 135.214 113.475 136.628 113.475C138.037 113.475 139.188 114.62 139.188 116.032C139.188 117.44 138.042 118.59 136.628 118.59C135.218 118.59 134.068 117.445 134.068 116.032Z" fill="white"/>
</svg>
