<svg width="45" height="51" viewBox="0 0 45 51" fill="none" xmlns="http://www.w3.org/2000/svg">
<path d="M17.9996 18.2C27.6102 18.2 35.3996 14.3053 35.3996 9.50005C35.3996 4.69475 27.6102 0.800049 17.9996 0.800049C8.38901 0.800049 0.599609 4.69475 0.599609 9.50005C0.599609 14.3053 8.38901 18.2 17.9996 18.2ZM31.6006 18.2464C32.9636 17.5649 34.2889 16.6978 35.3996 15.648V21.7003C32.1284 20.7721 28.6461 20.9135 25.4609 22.1041C22.2758 23.2946 19.5544 25.472 17.6941 28.3183C15.8338 31.1647 14.9318 34.5311 15.1198 37.9263C15.3078 41.3215 16.5759 44.5678 18.7391 47.1913L17.9996 47.2C8.38901 47.2 0.599609 43.3053 0.599609 38.5V15.648C1.71031 16.6978 3.03561 17.5649 4.39861 18.2464C8.02941 20.0618 12.8434 21.1 17.9996 21.1C23.1558 21.1 27.9698 20.0618 31.6006 18.2464ZM31.0496 24C34.5107 24 37.83 25.375 40.2774 27.8223C42.7247 30.2697 44.0996 33.589 44.0996 37.05C44.0996 40.5111 42.7247 43.8304 40.2774 46.2778C37.83 48.7251 34.5107 50.1 31.0496 50.1C27.5885 50.1 24.2692 48.7251 21.8219 46.2778C19.3745 43.8304 17.9996 40.5111 17.9996 37.05C17.9996 33.589 19.3745 30.2697 21.8219 27.8223C24.2692 25.375 27.5885 24 31.0496 24ZM37.8733 38.0766L37.882 38.0679C38.1477 37.799 38.2976 37.4368 38.2996 37.0587V37.0413C38.2972 36.6605 38.1452 36.296 37.8762 36.0263L32.0762 30.2263C31.8043 29.9541 31.4354 29.801 31.0506 29.8007C30.6659 29.8004 30.2967 29.953 30.0245 30.2249C29.7522 30.4968 29.5991 30.8657 29.5988 31.2505C29.5985 31.6353 29.7511 32.0044 30.023 32.2766L33.3493 35.6H25.2496C24.865 35.6 24.4962 35.7528 24.2243 36.0247C23.9524 36.2967 23.7996 36.6655 23.7996 37.05C23.7996 37.4346 23.9524 37.8034 24.2243 38.0754C24.4962 38.3473 24.865 38.5 25.2496 38.5H33.3493L30.023 41.8234C29.7507 42.0957 29.5978 42.465 29.5978 42.85C29.5978 43.2351 29.7507 43.6044 30.023 43.8766C30.2953 44.1489 30.6646 44.3019 31.0496 44.3019C31.4347 44.3019 31.8039 44.1489 32.0762 43.8766L37.8733 38.0766Z" fill="url(#paint0_linear_21_5579)"/>
<defs>
<linearGradient id="paint0_linear_21_5579" x1="0.599609" y1="25.4501" x2="44.0996" y2="25.45" gradientUnits="userSpaceOnUse">
<stop stop-color="#1786A6"/>
<stop offset="1" stop-color="#373B94"/>
</linearGradient>
</defs>
</svg>
