<svg width="52" height="52" viewBox="0 0 52 52" fill="none" xmlns="http://www.w3.org/2000/svg">
<g clip-path="url(#clip0_21_3110)">
<path d="M48.4531 13.1647C48.4537 13.1256 48.4441 13.0869 48.425 13.0527C48.406 13.0185 48.3783 12.9899 48.3448 12.9697L26.1083 0.0303865C26.0742 0.0101753 26.0352 -0.000489261 25.9956 -0.000489263C25.956 -0.000489265 25.917 0.0101753 25.8829 0.0303865L3.65293 13.1149C3.5056 13.2016 3.5056 13.4182 3.65293 13.5049L25.8873 26.4442C25.9218 26.4638 25.9609 26.4737 26.0005 26.4729C26.0402 26.4722 26.0789 26.4608 26.1126 26.4399L48.3448 13.3597C48.3783 13.3396 48.406 13.311 48.425 13.2767C48.4441 13.2425 48.4537 13.2039 48.4531 13.1647ZM48.4531 19.3679C48.4533 19.3287 48.4432 19.2902 48.4238 19.2562C48.4044 19.2222 48.3763 19.1939 48.3425 19.1741C48.3087 19.1543 48.2703 19.1438 48.2311 19.1436C48.192 19.1434 48.1535 19.1535 48.1194 19.1729L28.6909 30.4092C28.6564 30.4289 28.6277 30.4572 28.6075 30.4914C28.5874 30.5256 28.5766 30.5645 28.5761 30.6042L28.5761 37.3577C28.5761 37.5311 28.7668 37.6394 28.9163 37.5527L48.3426 26.3164C48.3764 26.2964 48.4044 26.2678 48.4238 26.2336C48.4432 26.1994 48.4533 26.1607 48.4531 26.1214L48.4531 19.3679ZM48.4531 32.1317C48.4532 32.0927 48.4429 32.0543 48.4234 32.0205C48.4038 31.9867 48.3756 31.9587 48.3417 31.9393C48.3078 31.9199 48.2694 31.9099 48.2303 31.9102C48.1913 31.9105 48.153 31.9211 48.1194 31.9411L25.9999 44.7547L3.88043 31.9411C3.84683 31.9211 3.80856 31.9105 3.76951 31.9102C3.73046 31.9099 3.69202 31.9199 3.65811 31.9393C3.62421 31.9587 3.59604 31.9867 3.57648 32.0205C3.55692 32.0543 3.54666 32.0927 3.54676 32.1317L3.54676 38.8982C3.54622 38.9368 3.55598 38.9748 3.57503 39.0083C3.59407 39.0418 3.62171 39.0696 3.6551 39.0889L25.8894 51.9697C25.9229 51.9896 25.961 52 25.9999 52C26.0388 52 26.077 51.9896 26.1104 51.9697L48.3426 39.0889C48.3764 39.0699 48.4045 39.0422 48.4239 39.0087C48.4433 38.9751 48.4534 38.937 48.4531 38.8982L48.4531 32.1317ZM23.1031 30.4201C23.1036 30.3807 23.0934 30.342 23.0735 30.308C23.0537 30.274 23.0249 30.2461 22.9904 30.2272L3.88043 19.1751C3.73093 19.0884 3.54676 19.1967 3.54676 19.3701L3.54676 26.1236C3.54634 26.1627 3.55611 26.2012 3.57511 26.2354C3.5941 26.2696 3.62167 26.2982 3.6551 26.3186L22.7651 37.3686C22.7992 37.3885 22.8379 37.399 22.8774 37.3991C22.9169 37.3992 22.9557 37.3887 22.9898 37.3689C23.024 37.3491 23.0523 37.3206 23.0718 37.2862C23.0913 37.2519 23.1013 37.213 23.1009 37.1736L23.1009 30.4179L23.1031 30.4201Z" fill="url(#paint0_linear_21_3110)"/>
</g>
<defs>
<linearGradient id="paint0_linear_21_3110" x1="25.9978" y1="-0.00048965" x2="25.9978" y2="52" gradientUnits="userSpaceOnUse">
<stop stop-color="#1786A6"/>
<stop offset="1" stop-color="#373B94"/>
</linearGradient>
<clipPath id="clip0_21_3110">
<rect width="52" height="52" fill="white" transform="translate(52) rotate(90)"/>
</clipPath>
</defs>
</svg>
