<svg width="55" height="55" viewBox="0 0 55 55" fill="none" xmlns="http://www.w3.org/2000/svg">
<path d="M48.4375 39.0464V29.0877C48.4375 28.0599 48.0293 27.0743 47.3026 26.3476C46.5759 25.6209 45.5902 25.2127 44.5625 25.2127H29.0625V15.2539C30.8889 14.7823 32.4806 13.6608 33.5393 12.0996C34.598 10.5384 35.0509 8.64473 34.8132 6.77347C34.5756 4.9022 33.6636 3.18186 32.2482 1.93491C30.8329 0.687953 29.0113 0 27.125 0C25.2387 0 23.4172 0.687953 22.0018 1.93491C20.5865 3.18186 19.6745 4.9022 19.4368 6.77347C19.1991 8.64473 19.6521 10.5384 20.7107 12.0996C21.7694 13.6608 23.3611 14.7823 25.1875 15.2539V25.2127H9.68752C8.6598 25.2127 7.67418 25.6209 6.94748 26.3476C6.22078 27.0743 5.81252 28.0599 5.81252 29.0877V39.0464C3.98612 39.518 2.3944 40.6395 1.33573 42.2007C0.277054 43.7619 -0.175893 45.6556 0.0617887 47.5268C0.29947 49.3981 1.21146 51.1185 2.62682 52.3654C4.04217 53.6124 5.86372 54.3003 7.75002 54.3003C9.63632 54.3003 11.4579 53.6124 12.8732 52.3654C14.2886 51.1185 15.2006 49.3981 15.4382 47.5268C15.6759 45.6556 15.223 43.7619 14.1643 42.2007C13.1056 40.6395 11.5139 39.518 9.68752 39.0464V29.0877H44.5625V39.0464C42.7361 39.518 41.1444 40.6395 40.0857 42.2007C39.0271 43.7619 38.5741 45.6556 38.8118 47.5268C39.0495 49.3981 39.9615 51.1185 41.3768 52.3654C42.7922 53.6124 44.6137 54.3003 46.5 54.3003C48.3863 54.3003 50.2079 53.6124 51.6232 52.3654C53.0386 51.1185 53.9506 49.3981 54.1882 47.5268C54.4259 45.6556 53.973 43.7619 52.9143 42.2007C51.8556 40.6395 50.2639 39.518 48.4375 39.0464ZM11.625 46.5252C11.625 47.2916 11.3978 48.0408 10.972 48.678C10.5462 49.3152 9.94098 49.8119 9.23292 50.1052C8.52485 50.3985 7.74572 50.4752 6.99404 50.3257C6.24237 50.1762 5.55191 49.8071 5.00998 49.2652C4.46805 48.7233 4.09899 48.0328 3.94947 47.2811C3.79996 46.5295 3.8767 45.7503 4.16998 45.0423C4.46327 44.3342 4.95994 43.729 5.59718 43.3032C6.23442 42.8774 6.98362 42.6502 7.75002 42.6502C8.77773 42.6502 9.76335 43.0584 10.4901 43.7851C11.2168 44.5118 11.625 45.4974 11.625 46.5252ZM23.25 7.77516C23.25 7.00875 23.4773 6.25956 23.9031 5.62232C24.3289 4.98508 24.9341 4.48841 25.6421 4.19512C26.3502 3.90183 27.1293 3.82509 27.881 3.97461C28.6327 4.12413 29.3231 4.49319 29.8651 5.03512C30.407 5.57704 30.776 6.2675 30.9256 7.01918C31.0751 7.77086 30.9983 8.54999 30.705 9.25805C30.4118 9.96612 29.9151 10.5713 29.2779 10.9971C28.6406 11.4229 27.8914 11.6502 27.125 11.6502C26.0973 11.6502 25.1117 11.2419 24.385 10.5152C23.6583 9.78849 23.25 8.80287 23.25 7.77516ZM46.5 50.4002C45.7336 50.4002 44.9844 50.1729 44.3472 49.7471C43.7099 49.3213 43.2133 48.7161 42.92 48.0081C42.6267 47.3 42.55 46.5209 42.6995 45.7692C42.849 45.0175 43.218 44.327 43.76 43.7851C44.3019 43.2432 44.9924 42.8741 45.744 42.7246C46.4957 42.5751 47.2749 42.6518 47.9829 42.9451C48.691 43.2384 49.2962 43.7351 49.722 44.3723C50.1478 45.0096 50.375 45.7588 50.375 46.5252C50.375 47.5529 49.9668 48.5385 49.2401 49.2652C48.5134 49.9919 47.5277 50.4002 46.5 50.4002Z" fill="url(#paint0_linear_21_3019)"/>
<defs>
<linearGradient id="paint0_linear_21_3019" x1="-4.04194e-07" y1="27.1502" x2="54.25" y2="27.1502" gradientUnits="userSpaceOnUse">
<stop stop-color="#1786A6"/>
<stop offset="1" stop-color="#373B94"/>
</linearGradient>
</defs>
</svg>
