<svg width="202" height="197" viewBox="0 0 202 197" fill="none" xmlns="http://www.w3.org/2000/svg">
<g clip-path="url(#clip0_21_3044)">
<path d="M19.7024 178.706C19.6423 179.177 19.5453 179.583 19.3882 179.916C19.2311 180.262 19.0139 180.534 18.7366 180.76C18.4594 180.977 18.0944 181.153 17.6416 181.282C17.1887 181.411 16.6389 181.49 15.9966 181.536C15.3543 181.587 14.5873 181.614 13.7002 181.614H8.36334C7.3468 181.614 6.49198 181.587 5.80351 181.527C5.10579 181.457 4.53284 181.337 4.08001 181.162C3.62719 180.973 3.28065 180.719 3.03575 180.373C2.8001 180.026 2.6199 179.574 2.51362 179.015C2.39349 178.452 2.33804 177.764 2.31493 176.947C2.29645 176.121 2.28721 175.147 2.28721 174.002C2.28721 172.862 2.28721 171.874 2.30569 171.057C2.32418 170.231 2.38424 169.543 2.49514 168.98C2.61528 168.417 2.79086 167.964 3.03575 167.623C3.28065 167.29 3.62719 167.023 4.08001 166.833C4.53284 166.658 5.10579 166.538 5.80351 166.478C6.49198 166.418 7.35142 166.39 8.36334 166.39H13.7048C14.8461 166.39 15.8025 166.432 16.5834 166.51C17.3505 166.589 17.9835 166.764 18.4548 167.05C18.9261 167.336 19.2726 167.761 19.4806 168.31C19.6885 168.874 19.7855 169.621 19.7855 170.572H22.0727C22.0727 169.875 22.0219 169.234 21.9341 168.671C21.8371 168.098 21.6661 167.586 21.4212 167.133C21.1856 166.681 20.8575 166.289 20.4555 165.952C20.0535 165.619 19.5406 165.342 18.9169 165.125C18.2977 164.908 17.5584 164.751 16.6989 164.645C15.8534 164.539 14.8461 164.479 13.7048 164.479H8.36334C6.96329 164.479 5.78965 164.567 4.8378 164.733C3.88133 164.908 3.09582 165.167 2.47204 165.508C1.85287 165.855 1.37695 166.284 1.03502 166.806C0.702335 167.327 0.452822 167.946 0.304961 168.647C0.14786 169.358 0.0600682 170.152 0.0277238 171.039C0.00924126 171.925 0 172.908 0 173.993C0 175.064 0.00924126 176.052 0.0277238 176.938C0.0554475 177.824 0.14786 178.623 0.304961 179.329C0.452822 180.04 0.697715 180.649 1.03502 181.171C1.38157 181.693 1.85287 182.127 2.47204 182.468C3.0912 182.814 3.88133 183.078 4.8378 183.244C5.79427 183.41 6.96791 183.498 8.36334 183.498H13.7048C14.8461 183.498 15.8534 183.438 16.6989 183.341C17.5584 183.235 18.2931 183.064 18.9169 182.838C19.536 182.611 20.0489 182.325 20.4555 181.97C20.8575 181.623 21.1856 181.213 21.4212 180.728C21.6661 180.248 21.8371 179.703 21.9341 179.085C22.0219 178.475 22.0727 177.787 22.0727 177.026H19.7855C19.7809 177.681 19.7532 178.235 19.7024 178.706Z" fill="white"/>
<path d="M44.9169 164.876V172.867H28.1671V164.876H25.8799V183.133H28.1671V174.768H44.9169V183.133H47.2041V164.876H44.9169Z" fill="white"/>
<path d="M63.9591 164.876H60.6785L50.2451 183.133H52.8974L55.2816 178.951L56.3674 177.049L62.4482 166.381L68.4966 177.049L69.5824 178.951L71.9574 183.133H74.3602L63.9591 164.876Z" fill="white"/>
<path d="M77.6631 164.876V183.133H79.9503V164.876H77.6631Z" fill="white"/>
<path d="M105.281 164.876V180.853L88.5312 164.876H84.5205V183.133H86.8077V166.773L104.523 183.133H107.568V164.876H105.281Z" fill="white"/>
<path d="M119.753 181.236V164.876H117.466V183.133H134.225V181.231H119.753V181.236Z" fill="white"/>
<path d="M139.557 174.769H154.786V172.867H137.27V183.133H155.544V181.236H139.557V174.769Z" fill="white"/>
<path d="M155.544 164.876H137.27V166.778H155.544V164.876Z" fill="white"/>
<path d="M170.778 164.876H167.497L157.073 183.133H159.712L162.096 178.951L163.182 177.049L169.262 166.381L175.32 177.049L176.392 178.951L178.776 183.133H181.17L170.778 164.876Z" fill="white"/>
<path d="M202 166.778V164.876H184.483V183.133H186.771V174.768H201.242V172.867H186.766V166.773H202V166.778Z" fill="white"/>
<path d="M101.543 35.6416C102.957 35.6416 104.103 34.4966 104.103 33.0842C104.103 31.6718 102.957 30.5269 101.543 30.5269C100.129 30.5269 98.9834 31.6718 98.9834 33.0842C98.9834 34.4966 100.129 35.6416 101.543 35.6416Z" fill="white"/>
<path d="M123.578 80.2615L102.43 116.069V37.5203C104.504 37.1095 106.071 35.2768 106.071 33.0841C106.071 30.5914 104.042 28.5649 101.547 28.5649C99.0521 28.5649 97.0236 30.5914 97.0236 33.0841C97.0236 35.203 98.493 36.9848 100.466 37.4695V116.065L79.3174 80.4554L101.543 0L123.578 80.2615Z" fill="white"/>
<path d="M49.9954 93.4316C51.4091 93.4316 52.5552 92.2866 52.5552 90.8743C52.5552 89.4619 51.4091 88.3169 49.9954 88.3169C48.5816 88.3169 47.4355 89.4619 47.4355 90.8743C47.4355 92.2866 48.5816 93.4316 49.9954 93.4316Z" fill="white"/>
<path d="M138.138 137.461C136.817 137.461 135.625 138.028 134.797 138.933L102.527 120.381L101.543 119.813L100.559 120.381L68.2881 138.933C67.461 138.028 66.2689 137.461 64.9474 137.461C62.4523 137.461 60.4238 139.487 60.4238 141.98C60.4238 144.473 62.4523 146.499 64.9474 146.499C67.4426 146.499 69.471 144.473 69.471 141.98C69.471 141.514 69.4017 141.066 69.2677 140.641L100.559 122.643V150.534C98.5348 150.986 97.0192 152.796 97.0192 154.947C97.0192 157.439 99.0477 159.466 101.543 159.466C104.038 159.466 106.066 157.439 106.066 154.947C106.066 152.791 104.546 150.986 102.527 150.534V122.643L133.818 140.641C133.684 141.061 133.615 141.509 133.615 141.98C133.615 144.473 135.643 146.499 138.138 146.499C140.633 146.499 142.662 144.473 142.662 141.98C142.662 139.487 140.633 137.461 138.138 137.461ZM64.9474 144.537C63.5381 144.537 62.3876 143.388 62.3876 141.98C62.3876 140.572 63.5381 139.423 64.9474 139.423C66.3567 139.423 67.5073 140.572 67.5073 141.98C67.5073 143.388 66.3567 144.537 64.9474 144.537ZM104.103 154.951C104.103 156.359 102.952 157.509 101.543 157.509C100.134 157.509 98.983 156.359 98.983 154.951C98.983 153.543 100.134 152.394 101.543 152.394C102.952 152.399 104.103 153.543 104.103 154.951ZM138.138 144.537C136.729 144.537 135.578 143.388 135.578 141.98C135.578 140.572 136.729 139.423 138.138 139.423C139.547 139.423 140.698 140.572 140.698 141.98C140.698 143.388 139.547 144.537 138.138 144.537Z" fill="white"/>
<path d="M90.0466 115.446L52.9753 94.2671C52.1806 94.9688 51.1363 95.3934 49.995 95.3934C47.4999 95.3934 45.4714 93.3669 45.4714 90.8742C45.4714 88.3815 47.4999 86.355 49.995 86.355C52.4902 86.355 54.5186 88.3815 54.5186 90.8742C54.5186 91.5158 54.3846 92.1206 54.1397 92.6745L91.4652 113.992L94.9399 115.977L66.5831 68.4996C67.3917 67.6825 67.8953 66.5608 67.8953 65.319C67.8953 62.8263 65.8669 60.7998 63.3717 60.7998C60.8766 60.7998 58.8481 62.8263 58.8481 65.319C58.8481 67.8118 60.8766 69.8383 63.3717 69.8383C63.917 69.8383 64.4391 69.7367 64.9243 69.5567L73.9992 84.7439L26.7764 77.8935L57.0692 115.437H43.8866C43.7803 113.036 41.798 111.112 39.3722 111.112C36.8771 111.112 34.8486 113.138 34.8486 115.631C34.8486 118.123 36.8771 120.15 39.3722 120.15C41.2389 120.15 42.8469 119.014 43.5354 117.399H93.4844L90.0466 115.446ZM60.8165 65.319C60.8165 63.9111 61.9625 62.7617 63.3764 62.7617C64.7903 62.7617 65.9362 63.9065 65.9362 65.319C65.9362 66.727 64.7903 67.8764 63.3764 67.8764C61.9625 67.8764 60.8165 66.7316 60.8165 65.319ZM39.3722 118.197C37.9629 118.197 36.8124 117.053 36.8124 115.64C36.8124 114.227 37.9583 113.083 39.3722 113.083C40.7815 113.083 41.932 114.227 41.932 115.64C41.932 117.053 40.7815 118.197 39.3722 118.197Z" fill="white"/>
<path d="M152 93.8237C153.414 93.8237 154.56 92.6787 154.56 91.2664C154.56 89.854 153.414 88.709 152 88.709C150.586 88.709 149.44 89.854 149.44 91.2664C149.44 92.6787 150.586 93.8237 152 93.8237Z" fill="white"/>
<path d="M108.511 117.805H158.46C159.148 119.421 160.756 120.556 162.623 120.556C165.118 120.556 167.147 118.53 167.147 116.037C167.147 113.544 165.118 111.518 162.623 111.518C160.193 111.518 158.21 113.443 158.109 115.843H144.926L175.219 78.2998L127.996 85.1502L137.071 69.9629C137.556 70.143 138.078 70.2445 138.624 70.2445C141.119 70.2445 143.147 68.218 143.147 65.7253C143.147 63.2326 141.119 61.2061 138.624 61.2061C136.128 61.2061 134.1 63.2326 134.1 65.7253C134.1 66.9624 134.604 68.0888 135.412 68.9058L107.051 116.374L110.525 114.389L147.851 93.0715C147.606 92.5176 147.472 91.9129 147.472 91.2712C147.472 88.7785 149.5 86.752 151.996 86.752C154.491 86.752 156.519 88.7785 156.519 91.2712C156.519 93.764 154.491 95.7905 151.996 95.7905C150.854 95.7905 149.81 95.3612 149.015 94.6641L111.944 115.843L108.511 117.805ZM138.624 68.2688C137.214 68.2688 136.064 67.124 136.064 65.7114C136.064 64.3035 137.21 63.1541 138.624 63.1541C140.037 63.1541 141.183 64.2989 141.183 65.7114C141.183 67.124 140.033 68.2688 138.624 68.2688ZM160.068 116.032C160.068 114.624 161.214 113.475 162.628 113.475C164.037 113.475 165.188 114.62 165.188 116.032C165.188 117.44 164.042 118.59 162.628 118.59C161.218 118.59 160.068 117.445 160.068 116.032Z" fill="white"/>
<path d="M157.716 196.82V189.171H158.672V196.026H164.735V196.825H157.716V196.82Z" fill="white"/>
<path d="M169.983 194.267L172.524 189.799L175.066 194.267L175.519 195.066L176.512 196.829H177.515L173.162 189.171H171.781L167.414 196.829H168.518L169.521 195.066" fill="white"/>
<path d="M180.948 196.82V189.171H187.334C187.814 189.171 188.198 189.208 188.489 189.286C188.78 189.365 189.007 189.48 189.164 189.628C189.321 189.78 189.427 189.97 189.483 190.191C189.533 190.417 189.561 190.676 189.561 190.967C189.561 191.179 189.543 191.368 189.506 191.53C189.469 191.691 189.422 191.834 189.362 191.954C189.302 192.074 189.233 192.176 189.159 192.255C189.081 192.338 189.007 192.402 188.923 192.458C188.739 192.582 188.526 192.656 188.286 192.67C188.586 192.688 188.85 192.758 189.085 192.887C189.187 192.942 189.284 193.016 189.376 193.099C189.473 193.182 189.556 193.289 189.63 193.413C189.704 193.538 189.764 193.686 189.811 193.852C189.857 194.018 189.88 194.212 189.88 194.433C189.88 194.701 189.866 194.941 189.843 195.163C189.82 195.384 189.769 195.583 189.69 195.758C189.612 195.934 189.506 196.091 189.362 196.22C189.219 196.354 189.03 196.464 188.789 196.552C188.554 196.64 188.263 196.705 187.916 196.751C187.574 196.792 187.163 196.815 186.682 196.815H180.948V196.82ZM186.368 192.356C186.692 192.356 186.974 192.351 187.209 192.338C187.445 192.324 187.648 192.301 187.815 192.264C187.981 192.227 188.115 192.176 188.216 192.111C188.318 192.047 188.401 191.964 188.457 191.862C188.517 191.761 188.554 191.636 188.572 191.493C188.591 191.35 188.6 191.174 188.6 190.976C188.6 190.763 188.577 190.593 188.531 190.459C188.484 190.325 188.401 190.223 188.281 190.154C188.161 190.08 187.999 190.034 187.796 190.011C187.593 189.988 187.329 189.974 187.011 189.974H181.9V192.365H186.368V192.356ZM186.368 196.026C186.743 196.026 187.061 196.021 187.334 196.007C187.607 195.994 187.838 195.971 188.027 195.934C188.216 195.897 188.369 195.841 188.484 195.767C188.6 195.698 188.692 195.601 188.757 195.481C188.822 195.361 188.868 195.218 188.891 195.052C188.914 194.881 188.923 194.678 188.923 194.438C188.923 194.253 188.914 194.092 188.891 193.953C188.868 193.815 188.822 193.699 188.757 193.602C188.692 193.505 188.6 193.432 188.484 193.372C188.369 193.316 188.216 193.27 188.027 193.233C187.838 193.201 187.607 193.178 187.334 193.164C187.061 193.155 186.738 193.145 186.368 193.145H181.905V196.017H186.368V196.026Z" fill="white"/>
<path d="M198.345 192.517C198.872 192.517 199.32 192.541 199.695 192.582C200.069 192.624 200.388 192.688 200.646 192.776C200.905 192.859 201.109 192.965 201.261 193.094C201.413 193.219 201.534 193.367 201.617 193.528C201.7 193.69 201.755 193.87 201.778 194.073C201.802 194.272 201.815 194.489 201.815 194.724C201.815 194.955 201.797 195.172 201.755 195.375C201.714 195.578 201.64 195.763 201.534 195.933C201.427 196.104 201.284 196.252 201.099 196.386C200.914 196.52 200.683 196.63 200.402 196.723C200.12 196.815 199.778 196.884 199.38 196.935C198.983 196.981 198.516 197.009 197.985 197.009H196.71C196.229 197.009 195.813 196.991 195.453 196.954C195.092 196.917 194.783 196.861 194.524 196.787C194.265 196.714 194.053 196.617 193.882 196.501C193.711 196.386 193.577 196.252 193.475 196.1C193.374 195.943 193.304 195.767 193.263 195.573C193.221 195.375 193.203 195.158 193.203 194.918H194.159C194.159 195.223 194.201 195.458 194.288 195.633C194.376 195.804 194.519 195.933 194.718 196.021C194.917 196.109 195.18 196.16 195.504 196.183C195.827 196.206 196.229 196.215 196.71 196.215H197.985C198.544 196.215 199.006 196.187 199.376 196.137C199.745 196.081 200.041 195.998 200.258 195.883C200.475 195.767 200.633 195.61 200.72 195.426C200.808 195.236 200.854 195.006 200.854 194.738C200.854 194.465 200.822 194.239 200.762 194.059C200.702 193.879 200.577 193.736 200.397 193.63C200.217 193.524 199.963 193.445 199.63 193.404C199.302 193.358 198.872 193.335 198.341 193.335H197.024C196.437 193.335 195.938 193.311 195.522 193.27C195.106 193.228 194.755 193.164 194.473 193.085C194.191 193.002 193.965 192.905 193.794 192.781C193.623 192.661 193.494 192.522 193.406 192.365C193.318 192.208 193.263 192.037 193.235 191.843C193.207 191.654 193.193 191.446 193.193 191.225C193.193 190.994 193.212 190.777 193.253 190.579C193.295 190.38 193.374 190.2 193.484 190.039C193.595 189.877 193.752 189.734 193.947 189.609C194.141 189.485 194.395 189.378 194.7 189.291C195.005 189.203 195.379 189.143 195.809 189.097C196.238 189.055 196.751 189.032 197.333 189.032H198.29C198.77 189.032 199.186 189.051 199.547 189.083C199.907 189.12 200.217 189.171 200.475 189.249C200.734 189.323 200.951 189.415 201.122 189.526C201.293 189.637 201.432 189.771 201.529 189.923C201.631 190.075 201.7 190.251 201.742 190.449C201.783 190.643 201.802 190.865 201.802 191.1H200.845C200.845 190.8 200.804 190.569 200.716 190.399C200.628 190.228 200.485 190.103 200.286 190.015C200.087 189.932 199.824 189.877 199.496 189.854C199.172 189.831 198.766 189.822 198.29 189.822H197.333C196.696 189.822 196.169 189.845 195.758 189.891C195.347 189.937 195.019 190.011 194.783 190.117C194.543 190.223 194.376 190.366 194.284 190.546C194.191 190.726 194.145 190.948 194.145 191.22C194.145 191.386 194.159 191.534 194.182 191.663C194.205 191.793 194.251 191.908 194.325 192.005C194.399 192.102 194.496 192.185 194.626 192.25C194.755 192.314 194.926 192.37 195.139 192.416C195.351 192.457 195.61 192.49 195.92 192.508C196.229 192.527 196.594 192.536 197.019 192.536H198.345V192.517Z" fill="white"/>
<path d="M155.776 189.009H0.111328V189.993H155.776V189.009Z" fill="white"/>
</g>
<defs>
<clipPath id="clip0_21_3044">
<rect width="202" height="197" fill="white"/>
</clipPath>
</defs>
</svg>
